<svg width="64" height="64" viewBox="0 0 64 64" fill="none" xmlns="http://www.w3.org/2000/svg">
<path d="M0.373531 63.8768L63.6617 63.8768L63.6617 0.588558L0.373531 0.588558L0.373531 63.8768Z" fill="#D35433"/>
<path d="M12.2799 9.04974L15.5691 12.3389L18.8583 9.04974L15.5691 5.76055L12.2799 9.04974Z" fill="#1C3F55"/>
<path d="M18.8606 15.6273L22.1498 18.9164L25.439 15.6273L22.1498 12.3381L18.8606 15.6273Z" fill="#1C3F55"/>
<path d="M25.438 9.04663L28.7272 12.3358L32.0164 9.04663L28.7272 5.75744L25.438 9.04663Z" fill="#1C3F55"/>
<path d="M5.69885 15.6214L8.98804 18.9106L12.2772 15.6214L8.98804 12.3322L5.69885 15.6214Z" fill="#1C3F55"/>
<path d="M38.5961 9.04351L41.8853 12.3327L45.1744 9.04351L41.8853 5.75432L38.5961 9.04351Z" fill="#1C3F55"/>
<path d="M45.1752 15.6247L48.4644 18.9139L51.7535 15.6247L48.4644 12.3355L45.1752 15.6247Z" fill="#1C3F55"/>
<path d="M51.7578 9.04938L55.047 12.3386L58.3362 9.04937L55.047 5.7602L51.7578 9.04938Z" fill="#1C3F55"/>
<path d="M32.0187 15.6241L35.3079 18.9133L38.5971 15.6241L35.3079 12.3349L32.0187 15.6241Z" fill="#1C3F55"/>
<path d="M12.2822 22.319L15.5714 25.6082L18.8606 22.319L15.5714 19.0298L12.2822 22.319Z" fill="#1C3F55"/>
<path d="M18.8575 28.8964L22.1467 32.1856L25.4359 28.8964L22.1467 25.6072L18.8575 28.8964Z" fill="#1C3F55"/>
<path d="M25.4351 22.3159L28.7242 25.605L32.0134 22.3159L28.7242 19.0267L25.4351 22.3159Z" fill="#1C3F55"/>
<path d="M5.69592 28.8959L8.98511 32.1851L12.2743 28.8959L8.98511 25.6067L5.69592 28.8959Z" fill="#1C3F55"/>
<path d="M38.5931 22.318L41.8823 25.6072L45.1715 22.318L41.8823 19.0288L38.5931 22.318Z" fill="#1C3F55"/>
<path d="M45.1775 28.8992L48.4667 32.1884L51.7559 28.8992L48.4667 25.61L45.1775 28.8992Z" fill="#1C3F55"/>
<path d="M51.7549 22.3185L55.0441 25.6077L58.3333 22.3185L55.0441 19.0294L51.7549 22.3185Z" fill="#1C3F55"/>
<path d="M32.0156 28.8933L35.3048 32.1825L38.594 28.8933L35.3048 25.6041L32.0156 28.8933Z" fill="#1C3F55"/>
<path d="M12.2841 35.5678L15.5732 38.857L18.8624 35.5678L15.5732 32.2786L12.2841 35.5678Z" fill="#1C3F55"/>
<path d="M18.8556 42.149L22.1448 45.4382L25.434 42.149L22.1448 38.8598L18.8556 42.149Z" fill="#1C3F55"/>
<path d="M25.442 35.5699L28.7312 38.8591L32.0204 35.5699L28.7312 32.2808L25.442 35.5699Z" fill="#1C3F55"/>
<path d="M5.69921 42.1484L8.9884 45.4376L12.2776 42.1484L8.9884 38.8592L5.69921 42.1484Z" fill="#1C3F55"/>
<path d="M38.5948 35.5668L41.884 38.856L45.1732 35.5668L41.884 32.2776L38.5948 35.5668Z" fill="#1C3F55"/>
<path d="M45.1754 42.1517L48.4646 45.4409L51.7538 42.1517L48.4646 38.8625L45.1754 42.1517Z" fill="#1C3F55"/>
<path d="M51.7567 35.5674L55.0459 38.8566L58.3351 35.5674L55.0459 32.2782L51.7567 35.5674Z" fill="#1C3F55"/>
<path d="M32.0137 42.1511L35.3029 45.4403L38.592 42.1511L35.3029 38.8619L32.0137 42.1511Z" fill="#1C3F55"/>
<path d="M12.2811 48.8423L15.5703 52.1315L18.8595 48.8423L15.5703 45.5531L12.2811 48.8423Z" fill="#1C3F55"/>
<path d="M18.8579 55.4235L22.1471 58.7126L25.4363 55.4235L22.1471 52.1343L18.8579 55.4235Z" fill="#1C3F55"/>
<path d="M25.4391 48.8392L28.7283 52.1284L32.0175 48.8392L28.7283 45.55L25.4391 48.8392Z" fill="#1C3F55"/>
<path d="M5.69616 55.4176L8.98535 58.7068L12.2745 55.4176L8.98535 52.1284L5.69616 55.4176Z" fill="#1C3F55"/>
<path d="M38.5972 48.836L41.8864 52.1252L45.1755 48.836L41.8864 45.5468L38.5972 48.836Z" fill="#1C3F55"/>
<path d="M45.1777 55.4209L48.4669 58.7101L51.7561 55.4209L48.4669 52.1317L45.1777 55.4209Z" fill="#1C3F55"/>
<path d="M51.759 48.8419L55.0482 52.131L58.3374 48.8419L55.0482 45.5527L51.759 48.8419Z" fill="#1C3F55"/>
<path d="M32.016 55.4203L35.3052 58.7095L38.5944 55.4203L35.3052 52.1312L32.016 55.4203Z" fill="#1C3F55"/>
</svg>
