<svg width="64" height="64" viewBox="0 0 64 64" fill="none" xmlns="http://www.w3.org/2000/svg">
<path d="M0.620846 63.8768L63.9091 63.8768L63.9091 0.588558L0.620846 0.588558L0.620846 63.8768Z" fill="#D35433"/>
<path d="M32.7144 14.6957V27.1579C32.7144 27.2419 32.7669 27.3155 32.8458 27.3523C32.8615 27.3576 32.872 27.3628 32.8878 27.3734C32.9666 27.4101 33.0612 27.3944 33.1191 27.3366L42.7429 18.0911C45.4182 15.5209 44.6456 11.0848 41.2817 9.51327C41.1819 9.46597 41.082 9.42391 40.9821 9.37661C37.1032 7.6316 32.7091 10.4436 32.7091 14.701L32.7144 14.6957Z" fill="#1C3F55"/>
<path d="M10.9648 21.6968C10.9333 21.7757 10.9017 21.8598 10.8702 21.9386C9.60873 25.3077 12.1684 28.8871 15.7688 28.8871H29.34C29.3662 28.824 29.3663 28.8188 29.3925 28.761L20.3837 19.7521C17.456 16.8245 12.4575 17.8336 10.9595 21.6916L10.9648 21.6968Z" fill="#1C3F55"/>
<path d="M52.8345 21.5338C52.9081 21.7231 52.9817 21.9123 53.05 22.1015C54.2589 25.4023 51.778 28.8976 48.2617 28.8976H34.5224C34.4961 28.8345 34.4961 28.8292 34.4698 28.7714L43.6049 19.6364C46.4694 16.7718 51.3418 17.7705 52.8345 21.5391V21.5338Z" fill="#1C3F55"/>
<path d="M21.0248 17.8757L30.491 27.3418C30.5541 27.4049 30.6487 27.4207 30.7275 27.3839C30.7591 27.3681 30.7853 27.3576 30.8169 27.3471C30.8905 27.3156 30.9378 27.2367 30.9378 27.1579V14.1754C30.9378 10.2754 26.9852 7.59482 23.3743 9.06652C23.1115 9.17164 22.854 9.28726 22.5964 9.4029C19.2588 10.9166 18.4336 15.2844 21.0301 17.8757H21.0248Z" fill="#1C3F55"/>
<path d="M32.7144 49.3385V36.6503C32.7144 36.5662 32.7669 36.4926 32.8458 36.4558C32.8615 36.4506 32.872 36.4453 32.8878 36.4348C32.9666 36.398 33.0612 36.4138 33.1191 36.4716L42.8953 45.8642C45.4393 48.3083 44.8138 52.5709 41.6444 54.1215C41.2975 54.2897 40.9453 54.4526 40.5879 54.605C36.8561 56.1976 32.7144 53.3909 32.7144 49.3332V49.3385Z" fill="#1C3F55"/>
<path d="M11.1015 42.453C10.9806 42.1534 10.8649 41.8485 10.7546 41.5437C9.60349 38.3165 11.995 34.9158 15.4272 34.9158H29.3452C29.3715 34.9788 29.3715 34.9841 29.3978 35.0419L20.1261 44.3136C17.3246 47.1151 12.5942 46.1269 11.1015 42.453Z" fill="#1C3F55"/>
<path d="M52.7662 42.4477C52.8871 42.1481 53.0027 41.8485 53.1131 41.5437C54.2642 38.3112 51.8727 34.9105 48.4405 34.9105H34.5276C34.5014 34.9736 34.5014 34.9789 34.4751 35.0367L43.7415 44.3031C46.543 47.1046 51.2787 46.1164 52.7714 42.4425L52.7662 42.4477Z" fill="#1C3F55"/>
<path d="M20.5991 46.3583L30.4911 36.4664C30.5541 36.4033 30.6487 36.3875 30.7276 36.4243C30.7591 36.4401 30.7854 36.4506 30.8169 36.4611C30.8905 36.4927 30.9378 36.5715 30.9378 36.6503V50.253C30.9378 53.7746 27.4373 56.2449 24.126 55.0308C23.3586 54.747 22.6122 54.4263 21.8869 54.0689C18.933 52.6025 18.2707 48.6867 20.5991 46.3583Z" fill="#1C3F55"/>
<path d="M31.7682 3.93134C16.1157 3.93134 3.3855 16.6615 3.3855 32.3141C3.3855 47.9666 16.1157 60.6968 31.7682 60.6968C47.4155 60.6968 60.1457 47.9666 60.1457 32.3141C60.1457 16.6615 47.4155 3.93134 31.7682 3.93134ZM31.7682 6.06005C45.7493 6.06005 57.2128 17.0505 57.9802 30.8424H5.55625C6.32364 17.0505 17.7923 6.06005 31.7682 6.06005ZM31.7682 58.5733C17.5085 58.5733 5.86636 47.1467 5.51946 32.9658H58.0117C57.6648 47.1467 46.0279 58.5733 31.7682 58.5733Z" fill="#1C3F55"/>
</svg>
