<svg width="64" height="64" viewBox="0 0 64 64" fill="none" xmlns="http://www.w3.org/2000/svg">
<path d="M63.6203 32.2194H63.6361V0.709351H32.126V0.725118L63.6203 32.2194Z" fill="#D35433"/>
<path d="M32.126 0.725118V0.709351H0.615967V32.2194H0.631718L32.126 0.725118Z" fill="#D35433"/>
<path d="M63.6203 32.2194H63.6361V63.7295H32.126V63.7137L63.6203 32.2194Z" fill="#D35433"/>
<path d="M32.126 63.7137V63.7295H0.615967V32.2194H0.631718L32.126 63.7137Z" fill="#D35433"/>
<path d="M63.6186 32.222L32.113 0.716431L0.607455 32.222L32.113 63.7276L63.6186 32.222Z" fill="#1C3F55"/>
<path d="M32.1417 16.4775H47.8626V32.1984L39.9995 24.3353L32.1417 16.4775Z" fill="#D35433"/>
<path d="M39.9995 24.3406H24.2471V40.093H39.9995V24.3406Z" fill="#D35433"/>
<path d="M32.0997 16.4775L16.363 32.2142V16.4775H32.0997Z" fill="#D35433"/>
<path d="M16.363 47.9718V32.2194L32.1155 47.9718H16.363Z" fill="#D35433"/>
<path d="M47.8626 32.2299V47.9718H32.126L39.9996 40.0982L47.8626 32.2299Z" fill="#D35433"/>
<path d="M32.0997 16.4775H32.1418L32.1208 16.4565L32.0997 16.4775Z" fill="#F5BC58"/>
<path d="M47.8627 32.1984V32.2311L47.8791 32.2147L47.8627 32.1984Z" fill="#F5BC58"/>
<path d="M32.1155 47.9719L32.1213 47.9777L32.1272 47.9719H32.1155Z" fill="#F5BC58"/>
</svg>
