<svg width="65" height="64" viewBox="0 0 65 64" fill="none" xmlns="http://www.w3.org/2000/svg">
<path d="M5.1049 59.6403L59.8835 59.6403L59.8835 4.86167L5.1049 4.86167L5.1049 59.6403Z" fill="#1C3F55"/>
<path d="M38.6123 26.1277V38.3638H26.3762V26.1277H38.6123ZM30.6284 34.1116H34.3602V30.3798H30.6284V34.1116Z" fill="#5B94A4"/>
<path d="M47.1221 17.6181V46.8733H17.8668V17.6181H47.1221ZM22.119 42.6212H42.8646V21.8755H22.119V42.6212Z" fill="#5B94A4"/>
<path d="M55.6314 9.10858V55.3829H9.35706V9.10858H55.6314ZM13.6145 51.1255H51.374V13.366H13.6145V51.1255Z" fill="#5B94A4"/>
<path d="M38.6123 26.1277V38.3638H26.3762V26.1277H38.6123ZM30.6284 34.1116H34.3602V30.3798H30.6284V34.1116Z" fill="#F5BC58"/>
<path d="M47.1221 17.6181V46.8733H17.8668V17.6181H47.1221ZM22.119 42.6212H42.8646V21.8755H22.119V42.6212Z" fill="#F5BC58"/>
<path d="M55.6314 9.10858V55.3829H9.35706V9.10858H55.6314ZM13.6145 51.1255H51.374V13.366H13.6145V51.1255Z" fill="#F5BC58"/>
<path d="M38.6123 26.1277V38.3638H26.3762V26.1277H38.6123ZM30.6284 34.1116H34.3602V30.3798H30.6284V34.1116Z" fill="#5B94A4"/>
<path d="M47.1221 17.6181V46.8733H17.8668V17.6181H47.1221ZM22.119 42.6212H42.8646V21.8755H22.119V42.6212Z" fill="#5B94A4"/>
<path d="M38.6123 26.1277V38.3638H26.3762V26.1277H38.6123ZM30.6284 34.1116H34.3602V30.3798H30.6284V34.1116Z" fill="#F5BC58"/>
<path d="M47.1221 17.6181V46.8733H17.8668V17.6181H47.1221ZM22.119 42.6212H42.8646V21.8755H22.119V42.6212Z" fill="#F5BC58"/>
<path d="M38.6123 26.1277V38.3638H26.3762V26.1277H38.6123ZM30.6284 34.1116H34.3602V30.3798H30.6284V34.1116Z" fill="#5B94A4"/>
<path d="M38.6123 26.1277V38.3638H26.3762V26.1277H38.6123ZM30.6284 34.1116H34.3602V30.3798H30.6284V34.1116Z" fill="#F5BC58"/>
<path d="M64.1358 0.598999V63.8872H0.847534V0.598999H64.1358ZM5.10496 59.6298H59.8836V4.85115H5.10496V59.6298Z" fill="#D35433"/>
<path d="M55.6314 9.10852V55.3829H9.35706V9.10852H55.6314ZM13.6145 51.1255H51.374V13.3659H13.6145V51.1255Z" fill="#D35433"/>
<path d="M47.1221 17.6181V46.8733H17.8668V17.6181H47.1221ZM22.119 42.6212H42.8646V21.8755H22.119V42.6212Z" fill="#D35433"/>
<path d="M38.6123 26.1276V38.3637H26.3762V26.1276H38.6123ZM30.6284 34.1116H34.3602V30.3798H30.6284V34.1116Z" fill="#D35433"/>
</svg>
