<svg width="141" height="141" viewBox="0 0 141 141" fill="none" xmlns="http://www.w3.org/2000/svg">
<path d="M4.73677e-06 70.3359L70.3359 140.672L140.672 70.336L70.3359 3.10527e-05L4.73677e-06 70.3359Z" fill="#D35433"/>
<path d="M100.448 42.9612L88.4577 54.9512C91.4977 58.5512 93.4678 63.0912 93.8878 68.0612H110.838C110.368 58.4212 106.518 49.6612 100.448 42.9612ZM68.4977 46.6812V29.7312C58.8577 30.2012 50.0977 34.0512 43.3977 40.1212L55.3878 52.1112C58.9878 49.0712 63.5277 47.1012 68.4977 46.6812ZM52.5477 54.9412L40.5577 42.9512C34.4877 49.6512 30.6377 58.4112 30.1677 68.0512H47.1077C47.5277 63.0812 49.4977 58.5412 52.5477 54.9412ZM68.4977 93.4512C63.5277 93.0312 58.9878 91.0612 55.3878 88.0112L43.3977 100.001C50.0977 106.071 58.8577 109.921 68.4977 110.391V93.4512ZM47.1177 72.0712H30.1777C30.6477 81.7112 34.4977 90.4712 40.5677 97.1712L52.5577 85.1812C49.5177 81.5812 47.5477 77.0412 47.1177 72.0712ZM97.6177 100.011L85.6277 88.0212C82.0277 91.0612 77.4877 93.0312 72.5177 93.4612V110.401C82.1577 109.931 90.9177 106.081 97.6177 100.011ZM97.6177 40.1312C90.9177 34.0612 82.1577 30.2112 72.5177 29.7412V46.6912C77.4877 47.1112 82.0177 49.0812 85.6277 52.1312L97.6277 40.1312H97.6177ZM110.848 72.0812H93.8977C93.4777 77.0512 91.5077 81.5912 88.4677 85.1912L100.458 97.1812C106.528 90.4812 110.378 81.7212 110.848 72.0812Z" fill="#F4BB58"/>
<path d="M51.6978 69.8912C51.6978 59.4712 60.1777 50.9912 70.5977 50.9912C81.0177 50.9912 89.4977 59.4712 89.4977 69.8912C89.4977 80.3112 81.0177 88.7912 70.5977 88.7912C60.1777 88.7912 51.6978 80.3112 51.6978 69.8912ZM84.8077 69.8912C84.8077 62.0512 78.4277 55.6712 70.5877 55.6712C62.7477 55.6712 56.3677 62.0512 56.3677 69.8912C56.3677 77.7312 62.7477 84.1112 70.5877 84.1112C78.4277 84.1112 84.8077 77.7312 84.8077 69.8912Z" fill="#F4BB58"/>
</svg>
