<svg width="345" height="111" viewBox="0 0 345 111" fill="none" xmlns="http://www.w3.org/2000/svg">
<path fill-rule="evenodd" clip-rule="evenodd" d="M33.7705 58.4876L30.2568 60.5698C29.5411 60.9602 28.6301 60.765 28.1746 59.9842L22.3185 50.0938C21.0171 47.8815 18.7397 46.7103 16.3322 46.7103C15.8116 46.7103 15.226 46.7753 14.6404 46.9055C14.8356 46.7103 15.0308 46.515 15.1609 46.3849C15.4863 46.0596 15.8767 45.7993 16.2671 45.539C17.3733 44.8883 18.5445 44.563 19.7808 44.563C22.1883 44.563 24.4657 45.7993 25.7671 47.9465L31.6233 57.902C32.0787 58.6178 33.0548 58.878 33.7705 58.4876Z" fill="#D0AF72"/>
<path fill-rule="evenodd" clip-rule="evenodd" d="M64.5479 61.677C62.2705 60.1153 59.4075 59.5297 56.8048 61.0263L37.9349 72.0229C32.2089 75.4064 24.7911 73.4544 21.4726 67.7283L13.9897 54.9098C12.1027 51.6564 13.2089 47.427 16.4623 45.4749C19.7157 43.5879 23.9452 44.6941 25.8973 47.9475L31.6884 57.903C32.1438 58.6187 33.0548 58.879 33.7705 58.4886L34.9418 57.8379L66.7603 39.4886C70.7294 36.1701 70.339 29.7934 65.524 27.1256L11.2568 4.28656C6.96233 1.81396 1.62671 4.09136 0.260274 8.71122C0.0650682 9.36191 0 10.0777 0 10.7934V102.475C0 108.917 6.96233 112.951 12.5582 109.763L64.8082 79.5708C66.1096 78.855 67.2808 77.8139 68.0616 76.3824C70.0137 72.9338 69.7534 68.6393 67.8014 65.2557C67.0205 63.8893 65.8493 62.653 64.5479 61.677Z" fill="#D0AF72"/>
<path d="M162.411 41.9604C165.924 38.4467 167.616 34.3473 167.616 29.3371C167.616 24.3268 165.924 20.2275 162.411 16.7138C158.897 13.2001 154.798 11.5083 149.787 11.5083C145.102 11.5083 141.198 13.0049 137.815 16.0631L136.774 17.3645C136.709 17.6247 136.644 17.885 136.644 18.1453C136.644 18.6658 136.839 19.1213 137.164 19.5117L154.863 37.0802C155.709 37.9261 157.01 37.796 157.791 37.1453C158.181 36.6898 158.376 36.2343 158.376 35.6487C158.376 35.0631 158.181 34.6076 157.791 34.2172L141.394 17.885L144.061 16.6487C145.753 15.8679 147.64 15.4775 149.722 15.4775C153.496 15.4775 156.815 16.8439 159.548 19.5117C162.215 22.1795 163.647 25.498 163.647 29.272C163.647 33.111 162.281 36.3645 159.548 39.0973C156.88 41.7652 153.561 43.1966 149.722 43.1966C145.948 43.1966 142.63 41.8302 139.897 39.0973C139.116 38.3165 137.88 38.3165 137.034 39.0973C136.644 39.4878 136.448 39.9432 136.448 40.4638C136.448 41.0494 136.644 41.4398 137.164 41.9604C140.613 45.4741 144.777 47.1658 149.722 47.1658C154.733 47.1658 158.897 45.4741 162.411 41.9604Z" fill="#D0AF72"/>
<path d="M342.195 5.65189C340.958 5.65189 339.982 6.62792 339.982 7.86422V29.467C339.982 33.9567 337.51 36.8197 333.215 37.3402C333.15 37.3402 333.085 37.3402 333.02 37.3402V17.7546C333.02 15.6074 332.5 13.6553 331.523 11.8985C331.003 10.9224 330.287 9.94641 329.506 9.16559C327.554 7.14846 324.887 5.78203 321.893 5.45669L320.852 5.39162L288.969 5.52175C288.123 5.52175 287.407 5.19641 286.887 4.61079C286.366 4.02518 285.65 3.63477 284.804 3.63477H284.349C282.852 3.63477 281.681 4.806 281.681 6.30257V23.7409H313.304C313.825 23.7409 314.085 24.1313 313.955 24.5868C311.938 31.419 305.952 37.2101 298.859 37.2101L278.948 37.3402C274.654 36.7546 270.294 33.2409 270.294 28.7512V7.86422C270.294 6.62792 269.318 5.65189 268.082 5.65189C266.845 5.65189 265.869 6.62792 265.869 7.86422V28.7512C265.869 32.0697 267.236 35.1279 269.383 37.3402C271.335 39.3574 274.003 41.4396 276.996 41.7649H277.452L298.859 41.6998C302.438 41.6998 306.082 40.4635 309.01 38.7718L310.702 37.6656C315.256 34.3471 318.054 28.7512 318.575 22.895C318.575 20.8128 316.948 19.1211 314.866 19.1211L286.041 19.3163V9.16559C286.041 9.16559 286.887 9.94641 288.839 9.94641L320.787 10.0765C321.113 10.0765 321.438 10.0765 321.698 10.0765C321.958 10.0765 322.154 10.1416 322.414 10.2067C326.318 11.0526 328.465 13.5252 328.465 17.6896V41.6998H332.955H333.41C336.404 41.3745 339.071 40.008 341.023 37.9909C343.171 35.7786 344.537 32.7204 344.537 29.4019V7.79915C344.537 6.56285 343.561 5.58682 342.325 5.58682L342.195 5.65189Z" fill="#D0AF72"/>
<path d="M125.777 12.1593C125.387 12.5497 125.191 13.2004 125.191 14.1114V29.1422C125.191 29.2723 125.191 29.4675 125.256 29.6627V29.7929V29.9881C125.061 33.4367 123.695 36.3648 121.222 38.8374C118.489 41.5052 115.236 42.8716 111.267 42.8716C107.493 42.8716 104.174 41.5052 101.441 38.8374C98.9688 36.4299 97.6024 33.4367 97.4072 29.9881V29.8579V29.6627C97.4072 29.5326 97.4722 29.3374 97.4722 29.1422V14.1114C97.4722 13.2004 97.277 12.5497 96.8866 12.1593C96.0407 11.3134 94.8695 11.3134 94.0236 12.1593C93.6332 12.5497 93.438 13.2655 93.438 14.2415V29.2723C93.5031 34.1525 95.1948 38.2518 98.6435 41.7004C101.897 44.9538 105.996 46.7107 111.006 46.971H111.527C114.065 46.8408 116.407 46.3203 118.489 45.4744C120.572 44.5634 122.393 43.3271 124.02 41.7004C127.469 38.2518 129.161 34.1525 129.226 29.2723V14.2415C129.226 13.2655 129.03 12.5497 128.64 12.1593C127.794 11.3134 126.558 11.3134 125.777 12.1593Z" fill="#D0AF72"/>
<path d="M111.267 69.0291C107.233 69.0291 103.849 70.1353 100.726 72.4777L97.4722 74.9503V59.1387C97.4722 58.5531 97.277 58.0976 96.8866 57.7072C96.4962 57.3168 96.0407 57.1216 95.4551 57.1216C94.8695 57.1216 94.4791 57.3168 94.0236 57.7072C93.6332 58.1627 93.438 58.5531 93.438 59.1387V87.1181C93.5031 91.9983 95.1948 96.0976 98.6435 99.5462C102.157 103.06 106.256 104.752 111.267 104.752C116.277 104.752 120.376 103.06 123.89 99.5462C127.404 96.0325 129.096 91.9332 129.096 86.923C129.096 81.9127 127.404 77.8134 123.89 74.2997C120.376 70.7209 116.277 69.0291 111.267 69.0291ZM121.092 96.6832C118.424 99.351 115.106 100.717 111.267 100.717C107.493 100.717 104.174 99.351 101.441 96.6182C98.9688 94.1455 97.6024 91.2175 97.4072 87.7688V87.6387V87.4435C97.4072 87.3134 97.4722 87.1182 97.4722 86.923V85.1661C97.7976 82.0428 99.164 79.3099 101.441 77.0325C104.109 74.3647 107.428 72.9983 111.267 72.9983C115.106 72.9983 118.359 74.3647 121.092 77.0976C123.76 79.7654 125.126 83.0839 125.126 86.923C125.126 90.762 123.76 94.0154 121.092 96.6832Z" fill="#D0AF72"/>
<path d="M165.989 96.6188C163.191 99.3517 159.938 100.718 156.164 100.718C152.39 100.718 149.072 99.3517 146.339 96.6188C143.606 93.8859 142.239 90.6325 142.239 86.7935C142.239 83.0195 143.606 79.701 146.339 77.0332C149.072 74.3654 152.325 72.999 156.164 72.999C158.246 72.999 160.133 73.3894 161.825 74.1702L164.493 75.4065L148.161 91.7387C147.77 92.1291 147.575 92.5846 147.575 93.1702C147.575 93.7558 147.77 94.2113 148.161 94.6668C148.876 95.3825 150.243 95.4476 151.089 94.6017L168.787 77.0332C169.178 76.6428 169.308 76.2524 169.308 75.6668C169.308 75.3414 169.243 75.0812 169.178 74.8859L168.137 73.5846C164.818 70.5264 160.849 69.0298 156.164 69.0298C151.219 69.0298 147.055 70.7216 143.541 74.2353C140.027 77.749 138.335 81.8483 138.335 86.8585C138.335 91.8038 140.027 95.9681 143.541 99.4818C147.055 102.996 151.154 104.687 156.164 104.687C161.174 104.687 165.274 102.996 168.722 99.4818C169.243 98.9613 169.438 98.5709 169.438 97.9853C169.438 97.3996 169.243 97.0092 168.852 96.6188C168.007 95.838 166.77 95.838 165.989 96.6188Z" fill="#D0AF72"/>
<path d="M196.442 69.0298C191.497 69.0298 187.332 70.7216 183.819 74.2353C180.305 77.749 178.613 81.8483 178.613 86.8585C178.613 91.8038 180.305 95.9681 183.819 99.4818C187.332 102.996 191.432 104.687 196.442 104.687C200.476 104.687 203.925 103.581 206.983 101.304L210.236 98.8311V102.93C210.236 103.776 210.366 104.167 210.497 104.232C211.408 104.883 213.034 104.883 213.945 104.232C214.01 104.167 214.205 103.841 214.205 102.865V86.6633C214.14 81.7832 212.449 77.6839 209 74.2353C205.551 70.7216 201.452 69.0298 196.442 69.0298ZM210.301 86.0777V86.2079C210.301 86.338 210.301 86.5332 210.301 86.7284V88.4853C209.976 91.6085 208.61 94.3414 206.332 96.6188C203.664 99.2866 200.346 100.718 196.507 100.718C192.668 100.718 189.414 99.3517 186.682 96.6188C184.014 93.8859 182.647 90.6325 182.647 86.7935C182.647 83.0195 184.014 79.701 186.682 77.0332C189.349 74.3654 192.668 72.999 196.442 72.999C200.281 72.999 203.534 74.3654 206.267 77.0332C208.74 79.5058 210.106 82.4339 210.301 85.8825V86.0777Z" fill="#D0AF72"/>
<path d="M251.229 96.6188C248.431 99.3517 245.178 100.718 241.404 100.718C237.565 100.718 234.311 99.3517 231.579 96.6188C228.911 93.8859 227.544 90.6325 227.544 86.7935C227.544 83.0195 228.911 79.701 231.644 77.0332C234.312 74.3654 237.63 72.999 241.469 72.999C244.983 72.999 248.041 74.1702 250.579 76.3825H250.644L251.294 77.0332C252.01 77.814 253.181 77.8791 254.027 77.0332C254.418 76.6428 254.613 76.1873 254.613 75.6668C254.613 75.3414 254.548 75.0812 254.483 74.8859L253.442 73.5846C250.058 70.5264 246.154 69.0298 241.469 69.0298C236.459 69.0298 232.359 70.7216 228.846 74.2353C225.332 77.749 223.64 81.8483 223.64 86.8585C223.64 91.8038 225.332 95.9681 228.846 99.4818C232.359 102.996 236.459 104.687 241.469 104.687C246.414 104.687 250.579 102.996 254.027 99.4818C254.548 98.9613 254.678 98.5709 254.678 97.9853C254.678 97.3996 254.483 97.0092 254.092 96.6188C253.181 95.838 251.945 95.838 251.229 96.6188Z" fill="#D0AF72"/>
<path d="M281.681 69.0298C276.671 69.0298 272.572 70.7216 269.058 74.2353C265.544 77.749 263.853 81.8483 263.853 86.8585C263.853 91.8038 265.544 95.9681 269.058 99.4818C272.572 102.996 276.671 104.687 281.681 104.687C286.627 104.687 290.791 102.996 294.305 99.4818C297.818 95.9681 299.51 91.8688 299.51 86.8585C299.51 81.8483 297.818 77.749 294.305 74.2353C290.726 70.7216 286.627 69.0298 281.681 69.0298ZM291.442 96.6188C288.774 99.2866 285.455 100.718 281.681 100.718C277.842 100.718 274.589 99.3517 271.856 96.6188C269.188 93.8859 267.757 90.6325 267.757 86.7935C267.757 83.0195 269.123 79.701 271.856 77.0332C274.589 74.3654 277.842 72.999 281.681 72.999C285.455 72.999 288.774 74.3654 291.442 77.0332C294.109 79.701 295.476 83.0195 295.476 86.7935C295.476 90.6325 294.109 93.951 291.442 96.6188Z" fill="#D0AF72"/>
<path d="M333.801 70.4609C331.719 69.615 329.442 69.0945 326.839 68.9644H326.318C321.308 69.2246 317.209 70.9815 313.955 74.2349C310.507 77.6835 308.815 81.7828 308.75 86.663V102.019C308.75 102.995 308.945 103.711 309.335 104.101C310.181 104.947 311.353 104.947 312.198 104.101C312.589 103.711 312.784 103.06 312.784 102.149V86.7931C312.784 86.663 312.784 86.4678 312.719 86.2726V86.0774V85.9472C312.914 82.4986 314.281 79.5055 316.753 77.0979C319.421 74.4301 322.74 73.0637 326.579 73.0637C330.548 73.0637 333.866 74.4301 336.534 77.0979C339.007 79.5705 340.373 82.4986 340.568 85.9472V86.1424V86.2726C340.503 86.4027 340.503 86.5979 340.503 86.7931V102.149C340.503 103.06 340.699 103.711 341.089 104.101C341.935 104.947 343.106 104.947 343.952 104.101C344.342 103.711 344.538 102.995 344.538 102.019V86.5979C344.472 81.7178 342.781 77.6185 339.332 74.1698C337.705 72.6082 335.818 71.3719 333.801 70.4609Z" fill="#D0AF72"/>
<path d="M111.267 16.649C113.154 16.649 114.651 15.1524 114.651 13.2654C114.651 11.3784 113.154 9.88184 111.267 9.88184C109.38 9.88184 107.884 11.3784 107.884 13.2654C107.884 15.1524 109.38 16.649 111.267 16.649Z" fill="#D0AF72"/>
<path d="M289.75 49.3128C289.75 47.4258 288.254 45.9292 286.367 45.9292C284.48 45.9292 282.983 47.4258 282.983 49.3128C282.983 51.1997 284.48 52.6963 286.367 52.6963C288.254 52.6963 289.75 51.1997 289.75 49.3128Z" fill="#D0AF72"/>
<path d="M297.102 49.3128C297.102 47.4258 295.606 45.9292 293.719 45.9292C291.832 45.9292 290.335 47.4258 290.335 49.3128C290.335 51.1997 291.832 52.6963 293.719 52.6963C295.606 52.6963 297.102 51.1997 297.102 49.3128Z" fill="#D0AF72"/>
<path d="M338.421 49.3128C338.421 47.4258 336.925 45.9292 335.038 45.9292C333.151 45.9292 331.654 47.4258 331.654 49.3128C331.654 51.1997 333.151 52.6963 335.038 52.6963C336.925 52.6963 338.421 51.1997 338.421 49.3128Z" fill="#D0AF72"/>
<path d="M233.205 37.2106L168.137 37.3407C167.356 38.6421 166.25 40.5941 165.078 41.7654L233.075 41.6352C237.565 41.6352 241.534 40.0736 244.983 37.7311C249.147 35.4537 257.996 20.3579 249.277 19.1866C248.757 19.1866 185.51 19.3818 185.055 19.3818C184.664 13.7859 188.048 8.25511 193.188 5.91265C195.531 4.87155 198.524 4.93662 200.996 4.80648C205.421 4.61128 209.911 4.74142 214.335 4.74142H214.465C218.174 4.74142 219.801 4.74142 223.575 4.74142C224.811 4.74142 225.852 3.70032 225.852 2.46402C225.852 1.22772 224.811 0.186623 223.575 0.186623C220.582 0.186623 219.801 0.186623 216.808 0.186623C212.969 0.186623 209.13 0.0564827 205.291 0.0564827C201.712 0.0564827 197.743 -0.268859 194.294 0.6421C191.952 1.22772 188.633 2.85443 185.51 6.75854C182.191 9.94689 177.376 23.0257 184.729 23.7414L247.52 23.6763C247.52 23.6763 248.692 23.5462 248.496 24.1969C246.479 31.2894 240.428 37.2106 233.205 37.2106Z" fill="#D0AF72"/>
</svg>
