<svg width="1440" height="35" viewBox="0 0 1440 35" fill="none" xmlns="http://www.w3.org/2000/svg">
<path d="M269.97 28.6H0V34.6H269.97V28.6Z" fill="#D35433"/>
<path d="M269.97 6.08008H0V7.08008H269.97V6.08008Z" fill="#D35433"/>
<path d="M269.97 0H0V3H269.97V0Z" fill="#D35433"/>
<path d="M269.98 22.7V12.04H259.32V22.7H269.98Z" fill="#D35433"/>
<path d="M256.48 22.7V12.04H245.82V22.7H256.48Z" fill="#D35433"/>
<path d="M242.98 22.7V12.04H232.32V22.7H242.98Z" fill="#D35433"/>
<path d="M229.48 22.7101V12.05H218.82V22.7101H229.48Z" fill="#D35433"/>
<path d="M215.98 22.7101V12.05H205.32V22.7101H215.98Z" fill="#D35433"/>
<path d="M202.49 22.7V12.04H191.83V22.7H202.49Z" fill="#D35433"/>
<path d="M188.99 22.7V12.04H178.33V22.7H188.99Z" fill="#D35433"/>
<path d="M175.49 22.7V12.04H164.83V22.7H175.49Z" fill="#D35433"/>
<path d="M161.99 22.7V12.04H151.33V22.7H161.99Z" fill="#D35433"/>
<path d="M148.49 22.7V12.04H137.83V22.7H148.49Z" fill="#D35433"/>
<path d="M134.99 22.7101V12.05H124.33V22.7101H134.99Z" fill="#D35433"/>
<path d="M121.49 22.7101V12.05H110.83V22.7101H121.49Z" fill="#D35433"/>
<path d="M108 22.7V12.04H97.34V22.7H108Z" fill="#D35433"/>
<path d="M94.5 22.7V12.04H83.84V22.7H94.5Z" fill="#D35433"/>
<path d="M81 22.7V12.04H70.34V22.7H81Z" fill="#D35433"/>
<path d="M67.5 22.7V12.04H56.84V22.7H67.5Z" fill="#D35433"/>
<path d="M54 22.7V12.04H43.34V22.7H54Z" fill="#D35433"/>
<path d="M40.5 22.7101V12.05H29.84V22.7101H40.5Z" fill="#D35433"/>
<path d="M27 22.7101V12.05H16.34V22.7101H27Z" fill="#D35433"/>
<path d="M13.51 22.7V12.04H2.84998V22.7H13.51Z" fill="#D35433"/>
<path d="M539.95 28.6H269.98V34.6H539.95V28.6Z" fill="#D35433"/>
<path d="M539.95 6.08008H269.98V7.08008H539.95V6.08008Z" fill="#D35433"/>
<path d="M539.95 0H269.98V3H539.95V0Z" fill="#D35433"/>
<path d="M539.95 22.7V12.04H529.29V22.7H539.95Z" fill="#D35433"/>
<path d="M526.45 22.7V12.04H515.79V22.7H526.45Z" fill="#D35433"/>
<path d="M512.95 22.71V12.05H502.29V22.71H512.95Z" fill="#D35433"/>
<path d="M499.45 22.71V12.05H488.79V22.71H499.45Z" fill="#D35433"/>
<path d="M485.96 22.7V12.04H475.3V22.7H485.96Z" fill="#D35433"/>
<path d="M472.46 22.7V12.04H461.8V22.7H472.46Z" fill="#D35433"/>
<path d="M458.96 22.7V12.04H448.3V22.7H458.96Z" fill="#D35433"/>
<path d="M445.46 22.7V12.04H434.8V22.7H445.46Z" fill="#D35433"/>
<path d="M431.96 22.7V12.04H421.3V22.7H431.96Z" fill="#D35433"/>
<path d="M418.46 22.7101V12.05H407.8V22.7101H418.46Z" fill="#D35433"/>
<path d="M404.96 22.7101V12.05H394.3V22.7101H404.96Z" fill="#D35433"/>
<path d="M391.47 22.7001V12.04H380.81V22.7001H391.47Z" fill="#D35433"/>
<path d="M377.97 22.7001V12.04H367.31V22.7001H377.97Z" fill="#D35433"/>
<path d="M364.47 22.7001V12.04H353.81V22.7001H364.47Z" fill="#D35433"/>
<path d="M350.97 22.7001V12.04H340.31V22.7001H350.97Z" fill="#D35433"/>
<path d="M337.47 22.7001V12.04H326.81V22.7001H337.47Z" fill="#D35433"/>
<path d="M323.97 22.7101V12.05H313.31V22.7101H323.97Z" fill="#D35433"/>
<path d="M310.47 22.7101V12.05H299.81V22.7101H310.47Z" fill="#D35433"/>
<path d="M296.98 22.7V12.04H286.32V22.7H296.98Z" fill="#D35433"/>
<path d="M283.48 22.7V12.04H272.82V22.7H283.48Z" fill="#D35433"/>
<path d="M809.92 28.6H539.95V34.6H809.92V28.6Z" fill="#D35433"/>
<path d="M809.92 6.08008H539.95V7.08008H809.92V6.08008Z" fill="#D35433"/>
<path d="M809.92 0H539.95V3H809.92V0Z" fill="#D35433"/>
<path d="M809.92 22.7001V12.04H799.26V22.7001H809.92Z" fill="#D35433"/>
<path d="M796.42 22.71V12.05H785.76V22.71H796.42Z" fill="#D35433"/>
<path d="M782.92 22.7V12.04H772.26V22.7H782.92Z" fill="#D35433"/>
<path d="M769.43 22.7V12.04H758.77V22.7H769.43Z" fill="#D35433"/>
<path d="M755.93 22.7V12.04H745.27V22.7H755.93Z" fill="#D35433"/>
<path d="M742.43 22.7V12.04H731.77V22.7H742.43Z" fill="#D35433"/>
<path d="M728.93 22.7V12.04H718.27V22.7H728.93Z" fill="#D35433"/>
<path d="M715.43 22.7V12.04H704.77V22.7H715.43Z" fill="#D35433"/>
<path d="M701.93 22.71V12.05H691.27V22.71H701.93Z" fill="#D35433"/>
<path d="M688.43 22.7V12.04H677.77V22.7H688.43Z" fill="#D35433"/>
<path d="M674.94 22.7V12.04H664.28V22.7H674.94Z" fill="#D35433"/>
<path d="M661.44 22.7V12.04H650.78V22.7H661.44Z" fill="#D35433"/>
<path d="M647.94 22.7V12.04H637.28V22.7H647.94Z" fill="#D35433"/>
<path d="M634.44 22.7V12.04H623.78V22.7H634.44Z" fill="#D35433"/>
<path d="M620.94 22.7V12.04H610.28V22.7H620.94Z" fill="#D35433"/>
<path d="M607.44 22.71V12.05H596.78V22.71H607.44Z" fill="#D35433"/>
<path d="M593.94 22.7V12.04H583.28V22.7H593.94Z" fill="#D35433"/>
<path d="M580.45 22.7V12.04H569.79V22.7H580.45Z" fill="#D35433"/>
<path d="M566.95 22.7V12.04H556.29V22.7H566.95Z" fill="#D35433"/>
<path d="M553.45 22.7V12.04H542.79V22.7H553.45Z" fill="#D35433"/>
<path d="M1079.97 28.6H810V34.6H1079.97V28.6Z" fill="#D35433"/>
<path d="M1079.97 6.08008H810V7.08008H1079.97V6.08008Z" fill="#D35433"/>
<path d="M1079.97 0H810V3H1079.97V0Z" fill="#D35433"/>
<path d="M1079.97 22.7001V12.04H1069.31V22.7001H1079.97Z" fill="#D35433"/>
<path d="M1066.47 22.71V12.05H1055.81V22.71H1066.47Z" fill="#D35433"/>
<path d="M1052.97 22.7V12.04H1042.31V22.7H1052.97Z" fill="#D35433"/>
<path d="M1039.48 22.7V12.04H1028.82V22.7H1039.48Z" fill="#D35433"/>
<path d="M1025.98 22.7V12.04H1015.32V22.7H1025.98Z" fill="#D35433"/>
<path d="M1012.48 22.7V12.04H1001.82V22.7H1012.48Z" fill="#D35433"/>
<path d="M998.98 22.7V12.04H988.32V22.7H998.98Z" fill="#D35433"/>
<path d="M985.48 22.7V12.04H974.82V22.7H985.48Z" fill="#D35433"/>
<path d="M971.98 22.71V12.05H961.32V22.71H971.98Z" fill="#D35433"/>
<path d="M958.48 22.7V12.04H947.82V22.7H958.48Z" fill="#D35433"/>
<path d="M944.99 22.7V12.04H934.33V22.7H944.99Z" fill="#D35433"/>
<path d="M931.49 22.7V12.04H920.83V22.7H931.49Z" fill="#D35433"/>
<path d="M917.99 22.7V12.04H907.33V22.7H917.99Z" fill="#D35433"/>
<path d="M904.49 22.7V12.04H893.83V22.7H904.49Z" fill="#D35433"/>
<path d="M890.99 22.7V12.04H880.33V22.7H890.99Z" fill="#D35433"/>
<path d="M877.49 22.71V12.05H866.83V22.71H877.49Z" fill="#D35433"/>
<path d="M863.99 22.7V12.04H853.33V22.7H863.99Z" fill="#D35433"/>
<path d="M850.5 22.7V12.04H839.84V22.7H850.5Z" fill="#D35433"/>
<path d="M837 22.7V12.04H826.34V22.7H837Z" fill="#D35433"/>
<path d="M823.5 22.7V12.04H812.84V22.7H823.5Z" fill="#D35433"/>
<path d="M1349.97 28.6H1080V34.6H1349.97V28.6Z" fill="#D35433"/>
<path d="M1349.97 6.08008H1080V7.08008H1349.97V6.08008Z" fill="#D35433"/>
<path d="M1349.97 0H1080V3H1349.97V0Z" fill="#D35433"/>
<path d="M1349.97 22.7001V12.04H1339.31V22.7001H1349.97Z" fill="#D35433"/>
<path d="M1336.47 22.71V12.05H1325.81V22.71H1336.47Z" fill="#D35433"/>
<path d="M1322.97 22.7V12.04H1312.31V22.7H1322.97Z" fill="#D35433"/>
<path d="M1309.48 22.7V12.04H1298.82V22.7H1309.48Z" fill="#D35433"/>
<path d="M1295.98 22.7V12.04H1285.32V22.7H1295.98Z" fill="#D35433"/>
<path d="M1282.48 22.7V12.04H1271.82V22.7H1282.48Z" fill="#D35433"/>
<path d="M1268.98 22.7V12.04H1258.32V22.7H1268.98Z" fill="#D35433"/>
<path d="M1255.48 22.7V12.04H1244.82V22.7H1255.48Z" fill="#D35433"/>
<path d="M1241.98 22.71V12.05H1231.32V22.71H1241.98Z" fill="#D35433"/>
<path d="M1228.48 22.7V12.04H1217.82V22.7H1228.48Z" fill="#D35433"/>
<path d="M1214.99 22.7V12.04H1204.33V22.7H1214.99Z" fill="#D35433"/>
<path d="M1201.49 22.7V12.04H1190.83V22.7H1201.49Z" fill="#D35433"/>
<path d="M1187.99 22.7V12.04H1177.33V22.7H1187.99Z" fill="#D35433"/>
<path d="M1174.49 22.7V12.04H1163.83V22.7H1174.49Z" fill="#D35433"/>
<path d="M1160.99 22.7V12.04H1150.33V22.7H1160.99Z" fill="#D35433"/>
<path d="M1147.49 22.71V12.05H1136.83V22.71H1147.49Z" fill="#D35433"/>
<path d="M1133.99 22.7V12.04H1123.33V22.7H1133.99Z" fill="#D35433"/>
<path d="M1120.5 22.7V12.04H1109.84V22.7H1120.5Z" fill="#D35433"/>
<path d="M1107 22.7V12.04H1096.34V22.7H1107Z" fill="#D35433"/>
<path d="M1093.5 22.7V12.04H1082.84V22.7H1093.5Z" fill="#D35433"/>
<path d="M1619.97 28.6H1350V34.6H1619.97V28.6Z" fill="#D35433"/>
<path d="M1619.97 6.08008H1350V7.08008H1619.97V6.08008Z" fill="#D35433"/>
<path d="M1619.97 0H1350V3H1619.97V0Z" fill="#D35433"/>
<path d="M1444.49 22.7V12.04H1433.83V22.7H1444.49Z" fill="#D35433"/>
<path d="M1430.99 22.7V12.04H1420.33V22.7H1430.99Z" fill="#D35433"/>
<path d="M1417.49 22.71V12.05H1406.83V22.71H1417.49Z" fill="#D35433"/>
<path d="M1403.99 22.7V12.04H1393.33V22.7H1403.99Z" fill="#D35433"/>
<path d="M1390.5 22.7V12.04H1379.84V22.7H1390.5Z" fill="#D35433"/>
<path d="M1377 22.7V12.04H1366.34V22.7H1377Z" fill="#D35433"/>
<path d="M1363.5 22.7V12.04H1352.84V22.7H1363.5Z" fill="#D35433"/>
</svg>
