<svg width="1440" height="29" viewBox="0 0 1440 29" fill="none" xmlns="http://www.w3.org/2000/svg">
<path d="M733.07 0L719 14.07L733.07 28.14L747.14 14.07L733.07 0ZM724.99 16.3H723.52V14.84H724.99V16.3ZM724.99 13.37H723.52V11.91H724.99V13.37ZM727.91 19.23H726.45V17.76H727.91V19.23ZM727.91 16.3H726.45V14.84H727.91V16.3ZM727.94 13.35H726.47V11.89H727.94V13.35ZM727.94 10.42H726.47V8.95996H727.94V10.42ZM730.84 22.15H729.38V20.69H730.84V22.15ZM730.84 19.23H729.38V17.76H730.84V19.23ZM730.86 16.28H729.4V14.81H730.86V16.28ZM730.86 13.35H729.4V11.89H730.86V13.35ZM730.88 10.4H729.42V8.94H730.88V10.4ZM730.88 7.47998H729.42V6.01001H730.88V7.47998ZM733.76 25.08H732.3V23.62H733.76V25.08ZM733.76 22.15H732.3V20.69H733.76V22.15ZM733.79 19.2H732.33V17.74H733.79V19.2ZM733.79 16.28H732.33V14.81H733.79V16.28ZM733.81 13.33H732.35V11.87H733.81V13.33ZM733.81 10.4H732.35V8.94H733.81V10.4ZM733.84 7.45001H732.37V5.98999H733.84V7.45001ZM733.84 4.52997H732.37V3.06H733.84V4.52997ZM736.72 22.13H735.25V20.66H736.72V22.13ZM736.72 19.2H735.25V17.74H736.72V19.2ZM736.74 16.25H735.27V14.79H736.74V16.25ZM736.74 13.33H735.27V11.87H736.74V13.33ZM736.76 10.38H735.3V8.90997H736.76V10.38ZM736.76 7.45001H735.3V5.98999H736.76V7.45001ZM739.66 19.18H738.2V17.72H739.66V19.18ZM739.66 16.25H738.2V14.79H739.66V16.25ZM739.69 13.3H738.22V11.84H739.69V13.3ZM739.69 10.38H738.22V8.90997H739.69V10.38ZM742.61 16.23H741.15V14.77H742.61V16.23ZM741.15 13.3V11.84H742.61V13.3H741.15Z" fill="#D35433"/>
<path d="M761.21 0L747.14 14.07L761.21 28.14L775.28 14.07L761.21 0ZM753.13 16.3H751.66V14.84H753.13V16.3ZM753.13 13.37H751.66V11.91H753.13V13.37ZM756.05 19.23H754.59V17.76H756.05V19.23ZM756.05 16.3H754.59V14.84H756.05V16.3ZM756.08 13.35H754.61V11.89H756.08V13.35ZM756.08 10.42H754.61V8.95996H756.08V10.42ZM758.98 22.15H757.52V20.69H758.98V22.15ZM758.98 19.23H757.52V17.76H758.98V19.23ZM759 16.28H757.54V14.81H759V16.28ZM759 13.35H757.54V11.89H759V13.35ZM759.02 10.4H757.56V8.94H759.02V10.4ZM759.02 7.47998H757.56V6.01001H759.02V7.47998ZM761.9 25.08H760.44V23.62H761.9V25.08ZM761.9 22.15H760.44V20.69H761.9V22.15ZM761.93 19.2H760.47V17.74H761.93V19.2ZM761.93 16.28H760.47V14.81H761.93V16.28ZM761.95 13.33H760.49V11.87H761.95V13.33ZM761.95 10.4H760.49V8.94H761.95V10.4ZM761.98 7.45001H760.51V5.98999H761.98V7.45001ZM761.98 4.52997H760.51V3.06H761.98V4.52997ZM764.86 22.13H763.39V20.66H764.86V22.13ZM764.86 19.2H763.39V17.74H764.86V19.2ZM764.88 16.25H763.41V14.79H764.88V16.25ZM764.88 13.33H763.41V11.87H764.88V13.33ZM764.9 10.38H763.44V8.90997H764.9V10.38ZM764.9 7.45001H763.44V5.98999H764.9V7.45001ZM767.8 19.18H766.34V17.72H767.8V19.18ZM767.8 16.25H766.34V14.79H767.8V16.25ZM767.83 13.3H766.36V11.84H767.83V13.3ZM767.83 10.38H766.36V8.90997H767.83V10.38ZM770.75 16.23H769.29V14.77H770.75V16.23ZM769.29 13.3V11.84H770.75V13.3H769.29Z" fill="#D35433"/>
<path d="M789.35 0L775.28 14.07L789.35 28.14L803.42 14.07L789.35 0ZM781.27 16.3H779.8V14.84H781.27V16.3ZM781.27 13.37H779.8V11.91H781.27V13.37ZM784.19 19.23H782.73V17.76H784.19V19.23ZM784.19 16.3H782.73V14.84H784.19V16.3ZM784.22 13.35H782.75V11.89H784.22V13.35ZM784.22 10.42H782.75V8.95996H784.22V10.42ZM787.12 22.15H785.66V20.69H787.12V22.15ZM787.12 19.23H785.66V17.76H787.12V19.23ZM787.14 16.28H785.68V14.81H787.14V16.28ZM787.14 13.35H785.68V11.89H787.14V13.35ZM787.16 10.4H785.7V8.94H787.16V10.4ZM787.16 7.47998H785.7V6.01001H787.16V7.47998ZM790.04 25.08H788.58V23.62H790.04V25.08ZM790.04 22.15H788.58V20.69H790.04V22.15ZM790.07 19.2H788.61V17.74H790.07V19.2ZM790.07 16.28H788.61V14.81H790.07V16.28ZM790.09 13.33H788.63V11.87H790.09V13.33ZM790.09 10.4H788.63V8.94H790.09V10.4ZM790.12 7.45001H788.65V5.98999H790.12V7.45001ZM790.12 4.52997H788.65V3.06H790.12V4.52997ZM793 22.13H791.53V20.66H793V22.13ZM793 19.2H791.53V17.74H793V19.2ZM793.02 16.25H791.55V14.79H793.02V16.25ZM793.02 13.33H791.55V11.87H793.02V13.33ZM793.04 10.38H791.58V8.90997H793.04V10.38ZM793.04 7.45001H791.58V5.98999H793.04V7.45001ZM795.94 19.18H794.48V17.72H795.94V19.18ZM795.94 16.25H794.48V14.79H795.94V16.25ZM795.97 13.3H794.5V11.84H795.97V13.3ZM795.97 10.38H794.5V8.90997H795.97V10.38ZM798.89 16.23H797.43V14.77H798.89V16.23ZM797.43 13.3V11.84H798.89V13.3H797.43Z" fill="#D35433"/>
<path d="M817.49 0L803.42 14.07L817.49 28.14L831.56 14.07L817.49 0ZM809.41 16.3H807.94V14.84H809.41V16.3ZM809.41 13.37H807.94V11.91H809.41V13.37ZM812.33 19.23H810.87V17.76H812.33V19.23ZM812.33 16.3H810.87V14.84H812.33V16.3ZM812.36 13.35H810.89V11.89H812.36V13.35ZM812.36 10.42H810.89V8.95996H812.36V10.42ZM815.26 22.15H813.8V20.69H815.26V22.15ZM815.26 19.23H813.8V17.76H815.26V19.23ZM815.28 16.28H813.82V14.81H815.28V16.28ZM815.28 13.35H813.82V11.89H815.28V13.35ZM815.3 10.4H813.84V8.94H815.3V10.4ZM815.3 7.47998H813.84V6.01001H815.3V7.47998ZM818.18 25.08H816.72V23.62H818.18V25.08ZM818.18 22.15H816.72V20.69H818.18V22.15ZM818.21 19.2H816.75V17.74H818.21V19.2ZM818.21 16.28H816.75V14.81H818.21V16.28ZM818.23 13.33H816.77V11.87H818.23V13.33ZM818.23 10.4H816.77V8.94H818.23V10.4ZM818.26 7.45001H816.79V5.98999H818.26V7.45001ZM818.26 4.52997H816.79V3.06H818.26V4.52997ZM821.14 22.13H819.67V20.66H821.14V22.13ZM821.14 19.2H819.67V17.74H821.14V19.2ZM821.16 16.25H819.69V14.79H821.16V16.25ZM821.16 13.33H819.69V11.87H821.16V13.33ZM821.18 10.38H819.72V8.90997H821.18V10.38ZM821.18 7.45001H819.72V5.98999H821.18V7.45001ZM824.08 19.18H822.62V17.72H824.08V19.18ZM824.08 16.25H822.62V14.79H824.08V16.25ZM824.11 13.3H822.64V11.84H824.11V13.3ZM824.11 10.38H822.64V8.90997H824.11V10.38ZM827.03 16.23H825.57V14.77H827.03V16.23ZM825.57 13.3V11.84H827.03V13.3H825.57Z" fill="#D35433"/>
<path d="M845.63 0L831.56 14.07L845.63 28.14L859.7 14.07L845.63 0ZM837.55 16.3H836.08V14.84H837.55V16.3ZM837.55 13.37H836.08V11.91H837.55V13.37ZM840.47 19.23H839.01V17.76H840.47V19.23ZM840.47 16.3H839.01V14.84H840.47V16.3ZM840.5 13.35H839.03V11.89H840.5V13.35ZM840.5 10.42H839.03V8.95996H840.5V10.42ZM843.4 22.15H841.94V20.69H843.4V22.15ZM843.4 19.23H841.94V17.76H843.4V19.23ZM843.42 16.28H841.96V14.81H843.42V16.28ZM843.42 13.35H841.96V11.89H843.42V13.35ZM843.44 10.4H841.98V8.94H843.44V10.4ZM843.44 7.47998H841.98V6.01001H843.44V7.47998ZM846.32 25.08H844.86V23.62H846.32V25.08ZM846.32 22.15H844.86V20.69H846.32V22.15ZM846.35 19.2H844.89V17.74H846.35V19.2ZM846.35 16.28H844.89V14.81H846.35V16.28ZM846.37 13.33H844.91V11.87H846.37V13.33ZM846.37 10.4H844.91V8.94H846.37V10.4ZM846.4 7.45001H844.93V5.98999H846.4V7.45001ZM846.4 4.52997H844.93V3.06H846.4V4.52997ZM849.28 22.13H847.81V20.66H849.28V22.13ZM849.28 19.2H847.81V17.74H849.28V19.2ZM849.3 16.25H847.83V14.79H849.3V16.25ZM849.3 13.33H847.83V11.87H849.3V13.33ZM849.32 10.38H847.86V8.90997H849.32V10.38ZM849.32 7.45001H847.86V5.98999H849.32V7.45001ZM852.22 19.18H850.76V17.72H852.22V19.18ZM852.22 16.25H850.76V14.79H852.22V16.25ZM852.25 13.3H850.78V11.84H852.25V13.3ZM852.25 10.38H850.78V8.90997H852.25V10.38ZM855.17 16.23H853.71V14.77H855.17V16.23ZM853.71 13.3V11.84H855.17V13.3H853.71Z" fill="#D35433"/>
<path d="M873.77 0L859.7 14.07L873.77 28.14L887.84 14.07L873.77 0ZM865.69 16.3H864.22V14.84H865.69V16.3ZM865.69 13.37H864.22V11.91H865.69V13.37ZM868.61 19.23H867.15V17.76H868.61V19.23ZM868.61 16.3H867.15V14.84H868.61V16.3ZM868.64 13.35H867.17V11.89H868.64V13.35ZM868.64 10.42H867.17V8.95996H868.64V10.42ZM871.54 22.15H870.08V20.69H871.54V22.15ZM871.54 19.23H870.08V17.76H871.54V19.23ZM871.56 16.28H870.1V14.81H871.56V16.28ZM871.56 13.35H870.1V11.89H871.56V13.35ZM871.58 10.4H870.12V8.94H871.58V10.4ZM871.58 7.47998H870.12V6.01001H871.58V7.47998ZM874.46 25.08H873V23.62H874.46V25.08ZM874.46 22.15H873V20.69H874.46V22.15ZM874.49 19.2H873.03V17.74H874.49V19.2ZM874.49 16.28H873.03V14.81H874.49V16.28ZM874.51 13.33H873.05V11.87H874.51V13.33ZM874.51 10.4H873.05V8.94H874.51V10.4ZM874.54 7.45001H873.07V5.98999H874.54V7.45001ZM874.54 4.52997H873.07V3.06H874.54V4.52997ZM877.42 22.13H875.95V20.66H877.42V22.13ZM877.42 19.2H875.95V17.74H877.42V19.2ZM877.44 16.25H875.97V14.79H877.44V16.25ZM877.44 13.33H875.97V11.87H877.44V13.33ZM877.46 10.38H876V8.90997H877.46V10.38ZM877.46 7.45001H876V5.98999H877.46V7.45001ZM880.36 19.18H878.9V17.72H880.36V19.18ZM880.36 16.25H878.9V14.79H880.36V16.25ZM880.39 13.3H878.92V11.84H880.39V13.3ZM880.39 10.38H878.92V8.90997H880.39V10.38ZM883.31 16.23H881.85V14.77H883.31V16.23ZM881.85 13.3V11.84H883.31V13.3H881.85Z" fill="#D35433"/>
<path d="M901.91 0L887.84 14.07L901.91 28.14L915.98 14.07L901.91 0ZM893.83 16.3H892.36V14.84H893.83V16.3ZM893.83 13.37H892.36V11.91H893.83V13.37ZM896.75 19.23H895.29V17.76H896.75V19.23ZM896.75 16.3H895.29V14.84H896.75V16.3ZM896.78 13.35H895.31V11.89H896.78V13.35ZM896.78 10.42H895.31V8.95996H896.78V10.42ZM899.68 22.15H898.22V20.69H899.68V22.15ZM899.68 19.23H898.22V17.76H899.68V19.23ZM899.7 16.28H898.24V14.81H899.7V16.28ZM899.7 13.35H898.24V11.89H899.7V13.35ZM899.72 10.4H898.26V8.94H899.72V10.4ZM899.72 7.47998H898.26V6.01001H899.72V7.47998ZM902.6 25.08H901.14V23.62H902.6V25.08ZM902.6 22.15H901.14V20.69H902.6V22.15ZM902.63 19.2H901.17V17.74H902.63V19.2ZM902.63 16.28H901.17V14.81H902.63V16.28ZM902.65 13.33H901.19V11.87H902.65V13.33ZM902.65 10.4H901.19V8.94H902.65V10.4ZM902.68 7.45001H901.21V5.98999H902.68V7.45001ZM902.68 4.52997H901.21V3.06H902.68V4.52997ZM905.56 22.13H904.09V20.66H905.56V22.13ZM905.56 19.2H904.09V17.74H905.56V19.2ZM905.58 16.25H904.11V14.79H905.58V16.25ZM905.58 13.33H904.11V11.87H905.58V13.33ZM905.6 10.38H904.14V8.90997H905.6V10.38ZM905.6 7.45001H904.14V5.98999H905.6V7.45001ZM908.5 19.18H907.04V17.72H908.5V19.18ZM908.5 16.25H907.04V14.79H908.5V16.25ZM908.53 13.3H907.06V11.84H908.53V13.3ZM908.53 10.38H907.06V8.90997H908.53V10.38ZM911.45 16.23H909.99V14.77H911.45V16.23ZM909.99 13.3V11.84H911.45V13.3H909.99Z" fill="#D35433"/>
<path d="M930.05 0L915.98 14.07L930.05 28.14L944.12 14.07L930.05 0ZM921.97 16.3H920.5V14.84H921.97V16.3ZM921.97 13.37H920.5V11.91H921.97V13.37ZM924.89 19.23H923.43V17.76H924.89V19.23ZM924.89 16.3H923.43V14.84H924.89V16.3ZM924.92 13.35H923.45V11.89H924.92V13.35ZM924.92 10.42H923.45V8.95996H924.92V10.42ZM927.82 22.15H926.36V20.69H927.82V22.15ZM927.82 19.23H926.36V17.76H927.82V19.23ZM927.84 16.28H926.38V14.81H927.84V16.28ZM927.84 13.35H926.38V11.89H927.84V13.35ZM927.86 10.4H926.4V8.94H927.86V10.4ZM927.86 7.47998H926.4V6.01001H927.86V7.47998ZM930.74 25.08H929.28V23.62H930.74V25.08ZM930.74 22.15H929.28V20.69H930.74V22.15ZM930.77 19.2H929.31V17.74H930.77V19.2ZM930.77 16.28H929.31V14.81H930.77V16.28ZM930.79 13.33H929.33V11.87H930.79V13.33ZM930.79 10.4H929.33V8.94H930.79V10.4ZM930.82 7.45001H929.35V5.98999H930.82V7.45001ZM930.82 4.52997H929.35V3.06H930.82V4.52997ZM933.7 22.13H932.23V20.66H933.7V22.13ZM933.7 19.2H932.23V17.74H933.7V19.2ZM933.72 16.25H932.25V14.79H933.72V16.25ZM933.72 13.33H932.25V11.87H933.72V13.33ZM933.74 10.38H932.28V8.90997H933.74V10.38ZM933.74 7.45001H932.28V5.98999H933.74V7.45001ZM936.64 19.18H935.18V17.72H936.64V19.18ZM936.64 16.25H935.18V14.79H936.64V16.25ZM936.67 13.3H935.2V11.84H936.67V13.3ZM936.67 10.38H935.2V8.90997H936.67V10.38ZM939.59 16.23H938.13V14.77H939.59V16.23ZM938.13 13.3V11.84H939.59V13.3H938.13Z" fill="#D35433"/>
<path d="M958.19 0L944.12 14.07L958.19 28.14L972.26 14.07L958.19 0ZM950.11 16.3H948.64V14.84H950.11V16.3ZM950.11 13.37H948.64V11.91H950.11V13.37ZM953.03 19.23H951.57V17.76H953.03V19.23ZM953.03 16.3H951.57V14.84H953.03V16.3ZM953.06 13.35H951.59V11.89H953.06V13.35ZM953.06 10.42H951.59V8.95996H953.06V10.42ZM955.96 22.15H954.5V20.69H955.96V22.15ZM955.96 19.23H954.5V17.76H955.96V19.23ZM955.98 16.28H954.52V14.81H955.98V16.28ZM955.98 13.35H954.52V11.89H955.98V13.35ZM956 10.4H954.54V8.94H956V10.4ZM956 7.47998H954.54V6.01001H956V7.47998ZM958.88 25.08H957.42V23.62H958.88V25.08ZM958.88 22.15H957.42V20.69H958.88V22.15ZM958.91 19.2H957.45V17.74H958.91V19.2ZM958.91 16.28H957.45V14.81H958.91V16.28ZM958.93 13.33H957.47V11.87H958.93V13.33ZM958.93 10.4H957.47V8.94H958.93V10.4ZM958.96 7.45001H957.49V5.98999H958.96V7.45001ZM958.96 4.52997H957.49V3.06H958.96V4.52997ZM961.84 22.13H960.37V20.66H961.84V22.13ZM961.84 19.2H960.37V17.74H961.84V19.2ZM961.86 16.25H960.39V14.79H961.86V16.25ZM961.86 13.33H960.39V11.87H961.86V13.33ZM961.88 10.38H960.42V8.90997H961.88V10.38ZM961.88 7.45001H960.42V5.98999H961.88V7.45001ZM964.78 19.18H963.32V17.72H964.78V19.18ZM964.78 16.25H963.32V14.79H964.78V16.25ZM964.81 13.3H963.34V11.84H964.81V13.3ZM964.81 10.38H963.34V8.90997H964.81V10.38ZM967.73 16.23H966.27V14.77H967.73V16.23ZM966.27 13.3V11.84H967.73V13.3H966.27Z" fill="#D35433"/>
<path d="M986.33 0L972.26 14.07L986.33 28.14L1000.4 14.07L986.33 0ZM978.25 16.3H976.78V14.84H978.25V16.3ZM978.25 13.37H976.78V11.91H978.25V13.37ZM981.17 19.23H979.71V17.76H981.17V19.23ZM981.17 16.3H979.71V14.84H981.17V16.3ZM981.2 13.35H979.73V11.89H981.2V13.35ZM981.2 10.42H979.73V8.95996H981.2V10.42ZM984.1 22.15H982.64V20.69H984.1V22.15ZM984.1 19.23H982.64V17.76H984.1V19.23ZM984.12 16.28H982.66V14.81H984.12V16.28ZM984.12 13.35H982.66V11.89H984.12V13.35ZM984.14 10.4H982.68V8.94H984.14V10.4ZM984.14 7.47998H982.68V6.01001H984.14V7.47998ZM987.02 25.08H985.56V23.62H987.02V25.08ZM987.02 22.15H985.56V20.69H987.02V22.15ZM987.05 19.2H985.59V17.74H987.05V19.2ZM987.05 16.28H985.59V14.81H987.05V16.28ZM987.07 13.33H985.61V11.87H987.07V13.33ZM987.07 10.4H985.61V8.94H987.07V10.4ZM987.1 7.45001H985.63V5.98999H987.1V7.45001ZM987.1 4.52997H985.63V3.06H987.1V4.52997ZM989.98 22.13H988.51V20.66H989.98V22.13ZM989.98 19.2H988.51V17.74H989.98V19.2ZM990 16.25H988.53V14.79H990V16.25ZM990 13.33H988.53V11.87H990V13.33ZM990.02 10.38H988.56V8.90997H990.02V10.38ZM990.02 7.45001H988.56V5.98999H990.02V7.45001ZM992.92 19.18H991.46V17.72H992.92V19.18ZM992.92 16.25H991.46V14.79H992.92V16.25ZM992.95 13.3H991.48V11.84H992.95V13.3ZM992.95 10.38H991.48V8.90997H992.95V10.38ZM995.87 16.23H994.41V14.77H995.87V16.23ZM994.41 13.3V11.84H995.87V13.3H994.41Z" fill="#D35433"/>
<path d="M452.07 0L438 14.07L452.07 28.14L466.14 14.07L452.07 0ZM443.99 16.3H442.52V14.84H443.99V16.3ZM443.99 13.37H442.52V11.91H443.99V13.37ZM446.91 19.23H445.45V17.76H446.91V19.23ZM446.91 16.3H445.45V14.84H446.91V16.3ZM446.94 13.35H445.47V11.89H446.94V13.35ZM446.94 10.42H445.47V8.95996H446.94V10.42ZM449.84 22.15H448.38V20.69H449.84V22.15ZM449.84 19.23H448.38V17.76H449.84V19.23ZM449.86 16.28H448.4V14.81H449.86V16.28ZM449.86 13.35H448.4V11.89H449.86V13.35ZM449.88 10.4H448.42V8.94H449.88V10.4ZM449.88 7.47998H448.42V6.01001H449.88V7.47998ZM452.76 25.08H451.3V23.62H452.76V25.08ZM452.76 22.15H451.3V20.69H452.76V22.15ZM452.79 19.2H451.33V17.74H452.79V19.2ZM452.79 16.28H451.33V14.81H452.79V16.28ZM452.81 13.33H451.35V11.87H452.81V13.33ZM452.81 10.4H451.35V8.94H452.81V10.4ZM452.84 7.45001H451.37V5.98999H452.84V7.45001ZM452.84 4.52997H451.37V3.06H452.84V4.52997ZM455.72 22.13H454.25V20.66H455.72V22.13ZM455.72 19.2H454.25V17.74H455.72V19.2ZM455.74 16.25H454.27V14.79H455.74V16.25ZM455.74 13.33H454.27V11.87H455.74V13.33ZM455.76 10.38H454.3V8.90997H455.76V10.38ZM455.76 7.45001H454.3V5.98999H455.76V7.45001ZM458.66 19.18H457.2V17.72H458.66V19.18ZM458.66 16.25H457.2V14.79H458.66V16.25ZM458.69 13.3H457.22V11.84H458.69V13.3ZM458.69 10.38H457.22V8.90997H458.69V10.38ZM461.61 16.23H460.15V14.77H461.61V16.23ZM460.15 13.3V11.84H461.61V13.3H460.15Z" fill="#D35433"/>
<path d="M480.21 0L466.14 14.07L480.21 28.14L494.28 14.07L480.21 0ZM472.13 16.3H470.66V14.84H472.13V16.3ZM472.13 13.37H470.66V11.91H472.13V13.37ZM475.05 19.23H473.59V17.76H475.05V19.23ZM475.05 16.3H473.59V14.84H475.05V16.3ZM475.08 13.35H473.61V11.89H475.08V13.35ZM475.08 10.42H473.61V8.95996H475.08V10.42ZM477.98 22.15H476.52V20.69H477.98V22.15ZM477.98 19.23H476.52V17.76H477.98V19.23ZM478 16.28H476.54V14.81H478V16.28ZM478 13.35H476.54V11.89H478V13.35ZM478.02 10.4H476.56V8.94H478.02V10.4ZM478.02 7.47998H476.56V6.01001H478.02V7.47998ZM480.9 25.08H479.44V23.62H480.9V25.08ZM480.9 22.15H479.44V20.69H480.9V22.15ZM480.93 19.2H479.47V17.74H480.93V19.2ZM480.93 16.28H479.47V14.81H480.93V16.28ZM480.95 13.33H479.49V11.87H480.95V13.33ZM480.95 10.4H479.49V8.94H480.95V10.4ZM480.98 7.45001H479.51V5.98999H480.98V7.45001ZM480.98 4.52997H479.51V3.06H480.98V4.52997ZM483.86 22.13H482.39V20.66H483.86V22.13ZM483.86 19.2H482.39V17.74H483.86V19.2ZM483.88 16.25H482.41V14.79H483.88V16.25ZM483.88 13.33H482.41V11.87H483.88V13.33ZM483.9 10.38H482.44V8.90997H483.9V10.38ZM483.9 7.45001H482.44V5.98999H483.9V7.45001ZM486.8 19.18H485.34V17.72H486.8V19.18ZM486.8 16.25H485.34V14.79H486.8V16.25ZM486.83 13.3H485.36V11.84H486.83V13.3ZM486.83 10.38H485.36V8.90997H486.83V10.38ZM489.75 16.23H488.29V14.77H489.75V16.23ZM488.29 13.3V11.84H489.75V13.3H488.29Z" fill="#D35433"/>
<path d="M508.35 0L494.28 14.07L508.35 28.14L522.42 14.07L508.35 0ZM500.27 16.3H498.8V14.84H500.27V16.3ZM500.27 13.37H498.8V11.91H500.27V13.37ZM503.19 19.23H501.73V17.76H503.19V19.23ZM503.19 16.3H501.73V14.84H503.19V16.3ZM503.22 13.35H501.75V11.89H503.22V13.35ZM503.22 10.42H501.75V8.95996H503.22V10.42ZM506.12 22.15H504.66V20.69H506.12V22.15ZM506.12 19.23H504.66V17.76H506.12V19.23ZM506.14 16.28H504.68V14.81H506.14V16.28ZM506.14 13.35H504.68V11.89H506.14V13.35ZM506.16 10.4H504.7V8.94H506.16V10.4ZM506.16 7.47998H504.7V6.01001H506.16V7.47998ZM509.04 25.08H507.58V23.62H509.04V25.08ZM509.04 22.15H507.58V20.69H509.04V22.15ZM509.07 19.2H507.61V17.74H509.07V19.2ZM509.07 16.28H507.61V14.81H509.07V16.28ZM509.09 13.33H507.63V11.87H509.09V13.33ZM509.09 10.4H507.63V8.94H509.09V10.4ZM509.12 7.45001H507.65V5.98999H509.12V7.45001ZM509.12 4.52997H507.65V3.06H509.12V4.52997ZM512 22.13H510.53V20.66H512V22.13ZM512 19.2H510.53V17.74H512V19.2ZM512.02 16.25H510.55V14.79H512.02V16.25ZM512.02 13.33H510.55V11.87H512.02V13.33ZM512.04 10.38H510.58V8.90997H512.04V10.38ZM512.04 7.45001H510.58V5.98999H512.04V7.45001ZM514.94 19.18H513.48V17.72H514.94V19.18ZM514.94 16.25H513.48V14.79H514.94V16.25ZM514.97 13.3H513.5V11.84H514.97V13.3ZM514.97 10.38H513.5V8.90997H514.97V10.38ZM517.89 16.23H516.43V14.77H517.89V16.23ZM516.43 13.3V11.84H517.89V13.3H516.43Z" fill="#D35433"/>
<path d="M536.49 0L522.42 14.07L536.49 28.14L550.56 14.07L536.49 0ZM528.41 16.3H526.94V14.84H528.41V16.3ZM528.41 13.37H526.94V11.91H528.41V13.37ZM531.33 19.23H529.87V17.76H531.33V19.23ZM531.33 16.3H529.87V14.84H531.33V16.3ZM531.36 13.35H529.89V11.89H531.36V13.35ZM531.36 10.42H529.89V8.95996H531.36V10.42ZM534.26 22.15H532.8V20.69H534.26V22.15ZM534.26 19.23H532.8V17.76H534.26V19.23ZM534.28 16.28H532.82V14.81H534.28V16.28ZM534.28 13.35H532.82V11.89H534.28V13.35ZM534.3 10.4H532.84V8.94H534.3V10.4ZM534.3 7.47998H532.84V6.01001H534.3V7.47998ZM537.18 25.08H535.72V23.62H537.18V25.08ZM537.18 22.15H535.72V20.69H537.18V22.15ZM537.21 19.2H535.75V17.74H537.21V19.2ZM537.21 16.28H535.75V14.81H537.21V16.28ZM537.23 13.33H535.77V11.87H537.23V13.33ZM537.23 10.4H535.77V8.94H537.23V10.4ZM537.26 7.45001H535.79V5.98999H537.26V7.45001ZM537.26 4.52997H535.79V3.06H537.26V4.52997ZM540.14 22.13H538.67V20.66H540.14V22.13ZM540.14 19.2H538.67V17.74H540.14V19.2ZM540.16 16.25H538.69V14.79H540.16V16.25ZM540.16 13.33H538.69V11.87H540.16V13.33ZM540.18 10.38H538.72V8.90997H540.18V10.38ZM540.18 7.45001H538.72V5.98999H540.18V7.45001ZM543.08 19.18H541.62V17.72H543.08V19.18ZM543.08 16.25H541.62V14.79H543.08V16.25ZM543.11 13.3H541.64V11.84H543.11V13.3ZM543.11 10.38H541.64V8.90997H543.11V10.38ZM546.03 16.23H544.57V14.77H546.03V16.23ZM544.57 13.3V11.84H546.03V13.3H544.57Z" fill="#D35433"/>
<path d="M564.63 0L550.56 14.07L564.63 28.14L578.7 14.07L564.63 0ZM556.55 16.3H555.08V14.84H556.55V16.3ZM556.55 13.37H555.08V11.91H556.55V13.37ZM559.47 19.23H558.01V17.76H559.47V19.23ZM559.47 16.3H558.01V14.84H559.47V16.3ZM559.5 13.35H558.03V11.89H559.5V13.35ZM559.5 10.42H558.03V8.95996H559.5V10.42ZM562.4 22.15H560.94V20.69H562.4V22.15ZM562.4 19.23H560.94V17.76H562.4V19.23ZM562.42 16.28H560.96V14.81H562.42V16.28ZM562.42 13.35H560.96V11.89H562.42V13.35ZM562.44 10.4H560.98V8.94H562.44V10.4ZM562.44 7.47998H560.98V6.01001H562.44V7.47998ZM565.32 25.08H563.86V23.62H565.32V25.08ZM565.32 22.15H563.86V20.69H565.32V22.15ZM565.35 19.2H563.89V17.74H565.35V19.2ZM565.35 16.28H563.89V14.81H565.35V16.28ZM565.37 13.33H563.91V11.87H565.37V13.33ZM565.37 10.4H563.91V8.94H565.37V10.4ZM565.4 7.45001H563.93V5.98999H565.4V7.45001ZM565.4 4.52997H563.93V3.06H565.4V4.52997ZM568.28 22.13H566.81V20.66H568.28V22.13ZM568.28 19.2H566.81V17.74H568.28V19.2ZM568.3 16.25H566.83V14.79H568.3V16.25ZM568.3 13.33H566.83V11.87H568.3V13.33ZM568.32 10.38H566.86V8.90997H568.32V10.38ZM568.32 7.45001H566.86V5.98999H568.32V7.45001ZM571.22 19.18H569.76V17.72H571.22V19.18ZM571.22 16.25H569.76V14.79H571.22V16.25ZM571.25 13.3H569.78V11.84H571.25V13.3ZM571.25 10.38H569.78V8.90997H571.25V10.38ZM574.17 16.23H572.71V14.77H574.17V16.23ZM572.71 13.3V11.84H574.17V13.3H572.71Z" fill="#D35433"/>
<path d="M592.77 0L578.7 14.07L592.77 28.14L606.84 14.07L592.77 0ZM584.69 16.3H583.22V14.84H584.69V16.3ZM584.69 13.37H583.22V11.91H584.69V13.37ZM587.61 19.23H586.15V17.76H587.61V19.23ZM587.61 16.3H586.15V14.84H587.61V16.3ZM587.64 13.35H586.17V11.89H587.64V13.35ZM587.64 10.42H586.17V8.95996H587.64V10.42ZM590.54 22.15H589.08V20.69H590.54V22.15ZM590.54 19.23H589.08V17.76H590.54V19.23ZM590.56 16.28H589.1V14.81H590.56V16.28ZM590.56 13.35H589.1V11.89H590.56V13.35ZM590.58 10.4H589.12V8.94H590.58V10.4ZM590.58 7.47998H589.12V6.01001H590.58V7.47998ZM593.46 25.08H592V23.62H593.46V25.08ZM593.46 22.15H592V20.69H593.46V22.15ZM593.49 19.2H592.03V17.74H593.49V19.2ZM593.49 16.28H592.03V14.81H593.49V16.28ZM593.51 13.33H592.05V11.87H593.51V13.33ZM593.51 10.4H592.05V8.94H593.51V10.4ZM593.54 7.45001H592.07V5.98999H593.54V7.45001ZM593.54 4.52997H592.07V3.06H593.54V4.52997ZM596.42 22.13H594.95V20.66H596.42V22.13ZM596.42 19.2H594.95V17.74H596.42V19.2ZM596.44 16.25H594.97V14.79H596.44V16.25ZM596.44 13.33H594.97V11.87H596.44V13.33ZM596.46 10.38H595V8.90997H596.46V10.38ZM596.46 7.45001H595V5.98999H596.46V7.45001ZM599.36 19.18H597.9V17.72H599.36V19.18ZM599.36 16.25H597.9V14.79H599.36V16.25ZM599.39 13.3H597.92V11.84H599.39V13.3ZM599.39 10.38H597.92V8.90997H599.39V10.38ZM602.31 16.23H600.85V14.77H602.31V16.23ZM600.85 13.3V11.84H602.31V13.3H600.85Z" fill="#D35433"/>
<path d="M620.91 0L606.84 14.07L620.91 28.14L634.98 14.07L620.91 0ZM612.83 16.3H611.36V14.84H612.83V16.3ZM612.83 13.37H611.36V11.91H612.83V13.37ZM615.75 19.23H614.29V17.76H615.75V19.23ZM615.75 16.3H614.29V14.84H615.75V16.3ZM615.78 13.35H614.31V11.89H615.78V13.35ZM615.78 10.42H614.31V8.95996H615.78V10.42ZM618.68 22.15H617.22V20.69H618.68V22.15ZM618.68 19.23H617.22V17.76H618.68V19.23ZM618.7 16.28H617.24V14.81H618.7V16.28ZM618.7 13.35H617.24V11.89H618.7V13.35ZM618.72 10.4H617.26V8.94H618.72V10.4ZM618.72 7.47998H617.26V6.01001H618.72V7.47998ZM621.6 25.08H620.14V23.62H621.6V25.08ZM621.6 22.15H620.14V20.69H621.6V22.15ZM621.63 19.2H620.17V17.74H621.63V19.2ZM621.63 16.28H620.17V14.81H621.63V16.28ZM621.65 13.33H620.19V11.87H621.65V13.33ZM621.65 10.4H620.19V8.94H621.65V10.4ZM621.68 7.45001H620.21V5.98999H621.68V7.45001ZM621.68 4.52997H620.21V3.06H621.68V4.52997ZM624.56 22.13H623.09V20.66H624.56V22.13ZM624.56 19.2H623.09V17.74H624.56V19.2ZM624.58 16.25H623.11V14.79H624.58V16.25ZM624.58 13.33H623.11V11.87H624.58V13.33ZM624.6 10.38H623.14V8.90997H624.6V10.38ZM624.6 7.45001H623.14V5.98999H624.6V7.45001ZM627.5 19.18H626.04V17.72H627.5V19.18ZM627.5 16.25H626.04V14.79H627.5V16.25ZM627.53 13.3H626.06V11.84H627.53V13.3ZM627.53 10.38H626.06V8.90997H627.53V10.38ZM630.45 16.23H628.99V14.77H630.45V16.23ZM628.99 13.3V11.84H630.45V13.3H628.99Z" fill="#D35433"/>
<path d="M649.05 0L634.98 14.07L649.05 28.14L663.12 14.07L649.05 0ZM640.97 16.3H639.5V14.84H640.97V16.3ZM640.97 13.37H639.5V11.91H640.97V13.37ZM643.89 19.23H642.43V17.76H643.89V19.23ZM643.89 16.3H642.43V14.84H643.89V16.3ZM643.92 13.35H642.45V11.89H643.92V13.35ZM643.92 10.42H642.45V8.95996H643.92V10.42ZM646.82 22.15H645.36V20.69H646.82V22.15ZM646.82 19.23H645.36V17.76H646.82V19.23ZM646.84 16.28H645.38V14.81H646.84V16.28ZM646.84 13.35H645.38V11.89H646.84V13.35ZM646.86 10.4H645.4V8.94H646.86V10.4ZM646.86 7.47998H645.4V6.01001H646.86V7.47998ZM649.74 25.08H648.28V23.62H649.74V25.08ZM649.74 22.15H648.28V20.69H649.74V22.15ZM649.77 19.2H648.31V17.74H649.77V19.2ZM649.77 16.28H648.31V14.81H649.77V16.28ZM649.79 13.33H648.33V11.87H649.79V13.33ZM649.79 10.4H648.33V8.94H649.79V10.4ZM649.82 7.45001H648.35V5.98999H649.82V7.45001ZM649.82 4.52997H648.35V3.06H649.82V4.52997ZM652.7 22.13H651.23V20.66H652.7V22.13ZM652.7 19.2H651.23V17.74H652.7V19.2ZM652.72 16.25H651.25V14.79H652.72V16.25ZM652.72 13.33H651.25V11.87H652.72V13.33ZM652.74 10.38H651.28V8.90997H652.74V10.38ZM652.74 7.45001H651.28V5.98999H652.74V7.45001ZM655.64 19.18H654.18V17.72H655.64V19.18ZM655.64 16.25H654.18V14.79H655.64V16.25ZM655.67 13.3H654.2V11.84H655.67V13.3ZM655.67 10.38H654.2V8.90997H655.67V10.38ZM658.59 16.23H657.13V14.77H658.59V16.23ZM657.13 13.3V11.84H658.59V13.3H657.13Z" fill="#D35433"/>
<path d="M677.19 0L663.12 14.07L677.19 28.14L691.26 14.07L677.19 0ZM669.11 16.3H667.64V14.84H669.11V16.3ZM669.11 13.37H667.64V11.91H669.11V13.37ZM672.03 19.23H670.57V17.76H672.03V19.23ZM672.03 16.3H670.57V14.84H672.03V16.3ZM672.06 13.35H670.59V11.89H672.06V13.35ZM672.06 10.42H670.59V8.95996H672.06V10.42ZM674.96 22.15H673.5V20.69H674.96V22.15ZM674.96 19.23H673.5V17.76H674.96V19.23ZM674.98 16.28H673.52V14.81H674.98V16.28ZM674.98 13.35H673.52V11.89H674.98V13.35ZM675 10.4H673.54V8.94H675V10.4ZM675 7.47998H673.54V6.01001H675V7.47998ZM677.88 25.08H676.42V23.62H677.88V25.08ZM677.88 22.15H676.42V20.69H677.88V22.15ZM677.91 19.2H676.45V17.74H677.91V19.2ZM677.91 16.28H676.45V14.81H677.91V16.28ZM677.93 13.33H676.47V11.87H677.93V13.33ZM677.93 10.4H676.47V8.94H677.93V10.4ZM677.96 7.45001H676.49V5.98999H677.96V7.45001ZM677.96 4.52997H676.49V3.06H677.96V4.52997ZM680.84 22.13H679.37V20.66H680.84V22.13ZM680.84 19.2H679.37V17.74H680.84V19.2ZM680.86 16.25H679.39V14.79H680.86V16.25ZM680.86 13.33H679.39V11.87H680.86V13.33ZM680.88 10.38H679.42V8.90997H680.88V10.38ZM680.88 7.45001H679.42V5.98999H680.88V7.45001ZM683.78 19.18H682.32V17.72H683.78V19.18ZM683.78 16.25H682.32V14.79H683.78V16.25ZM683.81 13.3H682.34V11.84H683.81V13.3ZM683.81 10.38H682.34V8.90997H683.81V10.38ZM686.73 16.23H685.27V14.77H686.73V16.23ZM685.27 13.3V11.84H686.73V13.3H685.27Z" fill="#D35433"/>
<path d="M705.33 0L691.26 14.07L705.33 28.14L719.4 14.07L705.33 0ZM697.25 16.3H695.78V14.84H697.25V16.3ZM697.25 13.37H695.78V11.91H697.25V13.37ZM700.17 19.23H698.71V17.76H700.17V19.23ZM700.17 16.3H698.71V14.84H700.17V16.3ZM700.2 13.35H698.73V11.89H700.2V13.35ZM700.2 10.42H698.73V8.95996H700.2V10.42ZM703.1 22.15H701.64V20.69H703.1V22.15ZM703.1 19.23H701.64V17.76H703.1V19.23ZM703.12 16.28H701.66V14.81H703.12V16.28ZM703.12 13.35H701.66V11.89H703.12V13.35ZM703.14 10.4H701.68V8.94H703.14V10.4ZM703.14 7.47998H701.68V6.01001H703.14V7.47998ZM706.02 25.08H704.56V23.62H706.02V25.08ZM706.02 22.15H704.56V20.69H706.02V22.15ZM706.05 19.2H704.59V17.74H706.05V19.2ZM706.05 16.28H704.59V14.81H706.05V16.28ZM706.07 13.33H704.61V11.87H706.07V13.33ZM706.07 10.4H704.61V8.94H706.07V10.4ZM706.1 7.45001H704.63V5.98999H706.1V7.45001ZM706.1 4.52997H704.63V3.06H706.1V4.52997ZM708.98 22.13H707.51V20.66H708.98V22.13ZM708.98 19.2H707.51V17.74H708.98V19.2ZM709 16.25H707.53V14.79H709V16.25ZM709 13.33H707.53V11.87H709V13.33ZM709.02 10.38H707.56V8.90997H709.02V10.38ZM709.02 7.45001H707.56V5.98999H709.02V7.45001ZM711.92 19.18H710.46V17.72H711.92V19.18ZM711.92 16.25H710.46V14.79H711.92V16.25ZM711.95 13.3H710.48V11.84H711.95V13.3ZM711.95 10.38H710.48V8.90997H711.95V10.38ZM714.87 16.23H713.41V14.77H714.87V16.23ZM713.41 13.3V11.84H714.87V13.3H713.41Z" fill="#D35433"/>
<path d="M171.07 0L157 14.07L171.07 28.14L185.14 14.07L171.07 0ZM162.99 16.3H161.52V14.84H162.99V16.3ZM162.99 13.37H161.52V11.91H162.99V13.37ZM165.91 19.23H164.45V17.76H165.91V19.23ZM165.91 16.3H164.45V14.84H165.91V16.3ZM165.94 13.35H164.47V11.89H165.94V13.35ZM165.94 10.42H164.47V8.95996H165.94V10.42ZM168.84 22.15H167.38V20.69H168.84V22.15ZM168.84 19.23H167.38V17.76H168.84V19.23ZM168.86 16.28H167.4V14.81H168.86V16.28ZM168.86 13.35H167.4V11.89H168.86V13.35ZM168.88 10.4H167.42V8.94H168.88V10.4ZM168.88 7.47998H167.42V6.01001H168.88V7.47998ZM171.76 25.08H170.3V23.62H171.76V25.08ZM171.76 22.15H170.3V20.69H171.76V22.15ZM171.79 19.2H170.33V17.74H171.79V19.2ZM171.79 16.28H170.33V14.81H171.79V16.28ZM171.81 13.33H170.35V11.87H171.81V13.33ZM171.81 10.4H170.35V8.94H171.81V10.4ZM171.84 7.45001H170.37V5.98999H171.84V7.45001ZM171.84 4.52997H170.37V3.06H171.84V4.52997ZM174.72 22.13H173.25V20.66H174.72V22.13ZM174.72 19.2H173.25V17.74H174.72V19.2ZM174.74 16.25H173.27V14.79H174.74V16.25ZM174.74 13.33H173.27V11.87H174.74V13.33ZM174.76 10.38H173.3V8.90997H174.76V10.38ZM174.76 7.45001H173.3V5.98999H174.76V7.45001ZM177.66 19.18H176.2V17.72H177.66V19.18ZM177.66 16.25H176.2V14.79H177.66V16.25ZM177.69 13.3H176.22V11.84H177.69V13.3ZM177.69 10.38H176.22V8.90997H177.69V10.38ZM180.61 16.23H179.15V14.77H180.61V16.23ZM179.15 13.3V11.84H180.61V13.3H179.15Z" fill="#D35433"/>
<path d="M199.21 0L185.14 14.07L199.21 28.14L213.28 14.07L199.21 0ZM191.13 16.3H189.66V14.84H191.13V16.3ZM191.13 13.37H189.66V11.91H191.13V13.37ZM194.05 19.23H192.59V17.76H194.05V19.23ZM194.05 16.3H192.59V14.84H194.05V16.3ZM194.08 13.35H192.61V11.89H194.08V13.35ZM194.08 10.42H192.61V8.95996H194.08V10.42ZM196.98 22.15H195.52V20.69H196.98V22.15ZM196.98 19.23H195.52V17.76H196.98V19.23ZM197 16.28H195.54V14.81H197V16.28ZM197 13.35H195.54V11.89H197V13.35ZM197.02 10.4H195.56V8.94H197.02V10.4ZM197.02 7.47998H195.56V6.01001H197.02V7.47998ZM199.9 25.08H198.44V23.62H199.9V25.08ZM199.9 22.15H198.44V20.69H199.9V22.15ZM199.93 19.2H198.47V17.74H199.93V19.2ZM199.93 16.28H198.47V14.81H199.93V16.28ZM199.95 13.33H198.49V11.87H199.95V13.33ZM199.95 10.4H198.49V8.94H199.95V10.4ZM199.98 7.45001H198.51V5.98999H199.98V7.45001ZM199.98 4.52997H198.51V3.06H199.98V4.52997ZM202.86 22.13H201.39V20.66H202.86V22.13ZM202.86 19.2H201.39V17.74H202.86V19.2ZM202.88 16.25H201.41V14.79H202.88V16.25ZM202.88 13.33H201.41V11.87H202.88V13.33ZM202.9 10.38H201.44V8.90997H202.9V10.38ZM202.9 7.45001H201.44V5.98999H202.9V7.45001ZM205.8 19.18H204.34V17.72H205.8V19.18ZM205.8 16.25H204.34V14.79H205.8V16.25ZM205.83 13.3H204.36V11.84H205.83V13.3ZM205.83 10.38H204.36V8.90997H205.83V10.38ZM208.75 16.23H207.29V14.77H208.75V16.23ZM207.29 13.3V11.84H208.75V13.3H207.29Z" fill="#D35433"/>
<path d="M227.35 0L213.28 14.07L227.35 28.14L241.42 14.07L227.35 0ZM219.27 16.3H217.8V14.84H219.27V16.3ZM219.27 13.37H217.8V11.91H219.27V13.37ZM222.19 19.23H220.73V17.76H222.19V19.23ZM222.19 16.3H220.73V14.84H222.19V16.3ZM222.22 13.35H220.75V11.89H222.22V13.35ZM222.22 10.42H220.75V8.95996H222.22V10.42ZM225.12 22.15H223.66V20.69H225.12V22.15ZM225.12 19.23H223.66V17.76H225.12V19.23ZM225.14 16.28H223.68V14.81H225.14V16.28ZM225.14 13.35H223.68V11.89H225.14V13.35ZM225.16 10.4H223.7V8.94H225.16V10.4ZM225.16 7.47998H223.7V6.01001H225.16V7.47998ZM228.04 25.08H226.58V23.62H228.04V25.08ZM228.04 22.15H226.58V20.69H228.04V22.15ZM228.07 19.2H226.61V17.74H228.07V19.2ZM228.07 16.28H226.61V14.81H228.07V16.28ZM228.09 13.33H226.63V11.87H228.09V13.33ZM228.09 10.4H226.63V8.94H228.09V10.4ZM228.12 7.45001H226.65V5.98999H228.12V7.45001ZM228.12 4.52997H226.65V3.06H228.12V4.52997ZM231 22.13H229.53V20.66H231V22.13ZM231 19.2H229.53V17.74H231V19.2ZM231.02 16.25H229.55V14.79H231.02V16.25ZM231.02 13.33H229.55V11.87H231.02V13.33ZM231.04 10.38H229.58V8.90997H231.04V10.38ZM231.04 7.45001H229.58V5.98999H231.04V7.45001ZM233.94 19.18H232.48V17.72H233.94V19.18ZM233.94 16.25H232.48V14.79H233.94V16.25ZM233.97 13.3H232.5V11.84H233.97V13.3ZM233.97 10.38H232.5V8.90997H233.97V10.38ZM236.89 16.23H235.43V14.77H236.89V16.23ZM235.43 13.3V11.84H236.89V13.3H235.43Z" fill="#D35433"/>
<path d="M255.49 0L241.42 14.07L255.49 28.14L269.56 14.07L255.49 0ZM247.41 16.3H245.94V14.84H247.41V16.3ZM247.41 13.37H245.94V11.91H247.41V13.37ZM250.33 19.23H248.87V17.76H250.33V19.23ZM250.33 16.3H248.87V14.84H250.33V16.3ZM250.36 13.35H248.89V11.89H250.36V13.35ZM250.36 10.42H248.89V8.95996H250.36V10.42ZM253.26 22.15H251.8V20.69H253.26V22.15ZM253.26 19.23H251.8V17.76H253.26V19.23ZM253.28 16.28H251.82V14.81H253.28V16.28ZM253.28 13.35H251.82V11.89H253.28V13.35ZM253.3 10.4H251.84V8.94H253.3V10.4ZM253.3 7.47998H251.84V6.01001H253.3V7.47998ZM256.18 25.08H254.72V23.62H256.18V25.08ZM256.18 22.15H254.72V20.69H256.18V22.15ZM256.21 19.2H254.75V17.74H256.21V19.2ZM256.21 16.28H254.75V14.81H256.21V16.28ZM256.23 13.33H254.77V11.87H256.23V13.33ZM256.23 10.4H254.77V8.94H256.23V10.4ZM256.26 7.45001H254.79V5.98999H256.26V7.45001ZM256.26 4.52997H254.79V3.06H256.26V4.52997ZM259.14 22.13H257.67V20.66H259.14V22.13ZM259.14 19.2H257.67V17.74H259.14V19.2ZM259.16 16.25H257.69V14.79H259.16V16.25ZM259.16 13.33H257.69V11.87H259.16V13.33ZM259.18 10.38H257.72V8.90997H259.18V10.38ZM259.18 7.45001H257.72V5.98999H259.18V7.45001ZM262.08 19.18H260.62V17.72H262.08V19.18ZM262.08 16.25H260.62V14.79H262.08V16.25ZM262.11 13.3H260.64V11.84H262.11V13.3ZM262.11 10.38H260.64V8.90997H262.11V10.38ZM265.03 16.23H263.57V14.77H265.03V16.23ZM263.57 13.3V11.84H265.03V13.3H263.57Z" fill="#D35433"/>
<path d="M283.63 0L269.56 14.07L283.63 28.14L297.7 14.07L283.63 0ZM275.55 16.3H274.08V14.84H275.55V16.3ZM275.55 13.37H274.08V11.91H275.55V13.37ZM278.47 19.23H277.01V17.76H278.47V19.23ZM278.47 16.3H277.01V14.84H278.47V16.3ZM278.5 13.35H277.03V11.89H278.5V13.35ZM278.5 10.42H277.03V8.95996H278.5V10.42ZM281.4 22.15H279.94V20.69H281.4V22.15ZM281.4 19.23H279.94V17.76H281.4V19.23ZM281.42 16.28H279.96V14.81H281.42V16.28ZM281.42 13.35H279.96V11.89H281.42V13.35ZM281.44 10.4H279.98V8.94H281.44V10.4ZM281.44 7.47998H279.98V6.01001H281.44V7.47998ZM284.32 25.08H282.86V23.62H284.32V25.08ZM284.32 22.15H282.86V20.69H284.32V22.15ZM284.35 19.2H282.89V17.74H284.35V19.2ZM284.35 16.28H282.89V14.81H284.35V16.28ZM284.37 13.33H282.91V11.87H284.37V13.33ZM284.37 10.4H282.91V8.94H284.37V10.4ZM284.4 7.45001H282.93V5.98999H284.4V7.45001ZM284.4 4.52997H282.93V3.06H284.4V4.52997ZM287.28 22.13H285.81V20.66H287.28V22.13ZM287.28 19.2H285.81V17.74H287.28V19.2ZM287.3 16.25H285.83V14.79H287.3V16.25ZM287.3 13.33H285.83V11.87H287.3V13.33ZM287.32 10.38H285.86V8.90997H287.32V10.38ZM287.32 7.45001H285.86V5.98999H287.32V7.45001ZM290.22 19.18H288.76V17.72H290.22V19.18ZM290.22 16.25H288.76V14.79H290.22V16.25ZM290.25 13.3H288.78V11.84H290.25V13.3ZM290.25 10.38H288.78V8.90997H290.25V10.38ZM293.17 16.23H291.71V14.77H293.17V16.23ZM291.71 13.3V11.84H293.17V13.3H291.71Z" fill="#D35433"/>
<path d="M311.77 0L297.7 14.07L311.77 28.14L325.84 14.07L311.77 0ZM303.69 16.3H302.22V14.84H303.69V16.3ZM303.69 13.37H302.22V11.91H303.69V13.37ZM306.61 19.23H305.15V17.76H306.61V19.23ZM306.61 16.3H305.15V14.84H306.61V16.3ZM306.64 13.35H305.17V11.89H306.64V13.35ZM306.64 10.42H305.17V8.95996H306.64V10.42ZM309.54 22.15H308.08V20.69H309.54V22.15ZM309.54 19.23H308.08V17.76H309.54V19.23ZM309.56 16.28H308.1V14.81H309.56V16.28ZM309.56 13.35H308.1V11.89H309.56V13.35ZM309.58 10.4H308.12V8.94H309.58V10.4ZM309.58 7.47998H308.12V6.01001H309.58V7.47998ZM312.46 25.08H311V23.62H312.46V25.08ZM312.46 22.15H311V20.69H312.46V22.15ZM312.49 19.2H311.03V17.74H312.49V19.2ZM312.49 16.28H311.03V14.81H312.49V16.28ZM312.51 13.33H311.05V11.87H312.51V13.33ZM312.51 10.4H311.05V8.94H312.51V10.4ZM312.54 7.45001H311.07V5.98999H312.54V7.45001ZM312.54 4.52997H311.07V3.06H312.54V4.52997ZM315.42 22.13H313.95V20.66H315.42V22.13ZM315.42 19.2H313.95V17.74H315.42V19.2ZM315.44 16.25H313.97V14.79H315.44V16.25ZM315.44 13.33H313.97V11.87H315.44V13.33ZM315.46 10.38H314V8.90997H315.46V10.38ZM315.46 7.45001H314V5.98999H315.46V7.45001ZM318.36 19.18H316.9V17.72H318.36V19.18ZM318.36 16.25H316.9V14.79H318.36V16.25ZM318.39 13.3H316.92V11.84H318.39V13.3ZM318.39 10.38H316.92V8.90997H318.39V10.38ZM321.31 16.23H319.85V14.77H321.31V16.23ZM319.85 13.3V11.84H321.31V13.3H319.85Z" fill="#D35433"/>
<path d="M339.91 0L325.84 14.07L339.91 28.14L353.98 14.07L339.91 0ZM331.83 16.3H330.36V14.84H331.83V16.3ZM331.83 13.37H330.36V11.91H331.83V13.37ZM334.75 19.23H333.29V17.76H334.75V19.23ZM334.75 16.3H333.29V14.84H334.75V16.3ZM334.78 13.35H333.31V11.89H334.78V13.35ZM334.78 10.42H333.31V8.95996H334.78V10.42ZM337.68 22.15H336.22V20.69H337.68V22.15ZM337.68 19.23H336.22V17.76H337.68V19.23ZM337.7 16.28H336.24V14.81H337.7V16.28ZM337.7 13.35H336.24V11.89H337.7V13.35ZM337.72 10.4H336.26V8.94H337.72V10.4ZM337.72 7.47998H336.26V6.01001H337.72V7.47998ZM340.6 25.08H339.14V23.62H340.6V25.08ZM340.6 22.15H339.14V20.69H340.6V22.15ZM340.63 19.2H339.17V17.74H340.63V19.2ZM340.63 16.28H339.17V14.81H340.63V16.28ZM340.65 13.33H339.19V11.87H340.65V13.33ZM340.65 10.4H339.19V8.94H340.65V10.4ZM340.68 7.45001H339.21V5.98999H340.68V7.45001ZM340.68 4.52997H339.21V3.06H340.68V4.52997ZM343.56 22.13H342.09V20.66H343.56V22.13ZM343.56 19.2H342.09V17.74H343.56V19.2ZM343.58 16.25H342.11V14.79H343.58V16.25ZM343.58 13.33H342.11V11.87H343.58V13.33ZM343.6 10.38H342.14V8.90997H343.6V10.38ZM343.6 7.45001H342.14V5.98999H343.6V7.45001ZM346.5 19.18H345.04V17.72H346.5V19.18ZM346.5 16.25H345.04V14.79H346.5V16.25ZM346.53 13.3H345.06V11.84H346.53V13.3ZM346.53 10.38H345.06V8.90997H346.53V10.38ZM349.45 16.23H347.99V14.77H349.45V16.23ZM347.99 13.3V11.84H349.45V13.3H347.99Z" fill="#D35433"/>
<path d="M368.05 0L353.98 14.07L368.05 28.14L382.12 14.07L368.05 0ZM359.97 16.3H358.5V14.84H359.97V16.3ZM359.97 13.37H358.5V11.91H359.97V13.37ZM362.89 19.23H361.43V17.76H362.89V19.23ZM362.89 16.3H361.43V14.84H362.89V16.3ZM362.92 13.35H361.45V11.89H362.92V13.35ZM362.92 10.42H361.45V8.95996H362.92V10.42ZM365.82 22.15H364.36V20.69H365.82V22.15ZM365.82 19.23H364.36V17.76H365.82V19.23ZM365.84 16.28H364.38V14.81H365.84V16.28ZM365.84 13.35H364.38V11.89H365.84V13.35ZM365.86 10.4H364.4V8.94H365.86V10.4ZM365.86 7.47998H364.4V6.01001H365.86V7.47998ZM368.74 25.08H367.28V23.62H368.74V25.08ZM368.74 22.15H367.28V20.69H368.74V22.15ZM368.77 19.2H367.31V17.74H368.77V19.2ZM368.77 16.28H367.31V14.81H368.77V16.28ZM368.79 13.33H367.33V11.87H368.79V13.33ZM368.79 10.4H367.33V8.94H368.79V10.4ZM368.82 7.45001H367.35V5.98999H368.82V7.45001ZM368.82 4.52997H367.35V3.06H368.82V4.52997ZM371.7 22.13H370.23V20.66H371.7V22.13ZM371.7 19.2H370.23V17.74H371.7V19.2ZM371.72 16.25H370.25V14.79H371.72V16.25ZM371.72 13.33H370.25V11.87H371.72V13.33ZM371.74 10.38H370.28V8.90997H371.74V10.38ZM371.74 7.45001H370.28V5.98999H371.74V7.45001ZM374.64 19.18H373.18V17.72H374.64V19.18ZM374.64 16.25H373.18V14.79H374.64V16.25ZM374.67 13.3H373.2V11.84H374.67V13.3ZM374.67 10.38H373.2V8.90997H374.67V10.38ZM377.59 16.23H376.13V14.77H377.59V16.23ZM376.13 13.3V11.84H377.59V13.3H376.13Z" fill="#D35433"/>
<path d="M396.19 0L382.12 14.07L396.19 28.14L410.26 14.07L396.19 0ZM388.11 16.3H386.64V14.84H388.11V16.3ZM388.11 13.37H386.64V11.91H388.11V13.37ZM391.03 19.23H389.57V17.76H391.03V19.23ZM391.03 16.3H389.57V14.84H391.03V16.3ZM391.06 13.35H389.59V11.89H391.06V13.35ZM391.06 10.42H389.59V8.95996H391.06V10.42ZM393.96 22.15H392.5V20.69H393.96V22.15ZM393.96 19.23H392.5V17.76H393.96V19.23ZM393.98 16.28H392.52V14.81H393.98V16.28ZM393.98 13.35H392.52V11.89H393.98V13.35ZM394 10.4H392.54V8.94H394V10.4ZM394 7.47998H392.54V6.01001H394V7.47998ZM396.88 25.08H395.42V23.62H396.88V25.08ZM396.88 22.15H395.42V20.69H396.88V22.15ZM396.91 19.2H395.45V17.74H396.91V19.2ZM396.91 16.28H395.45V14.81H396.91V16.28ZM396.93 13.33H395.47V11.87H396.93V13.33ZM396.93 10.4H395.47V8.94H396.93V10.4ZM396.96 7.45001H395.49V5.98999H396.96V7.45001ZM396.96 4.52997H395.49V3.06H396.96V4.52997ZM399.84 22.13H398.37V20.66H399.84V22.13ZM399.84 19.2H398.37V17.74H399.84V19.2ZM399.86 16.25H398.39V14.79H399.86V16.25ZM399.86 13.33H398.39V11.87H399.86V13.33ZM399.88 10.38H398.42V8.90997H399.88V10.38ZM399.88 7.45001H398.42V5.98999H399.88V7.45001ZM402.78 19.18H401.32V17.72H402.78V19.18ZM402.78 16.25H401.32V14.79H402.78V16.25ZM402.81 13.3H401.34V11.84H402.81V13.3ZM402.81 10.38H401.34V8.90997H402.81V10.38ZM405.73 16.23H404.27V14.77H405.73V16.23ZM404.27 13.3V11.84H405.73V13.3H404.27Z" fill="#D35433"/>
<path d="M424.33 0L410.26 14.07L424.33 28.14L438.4 14.07L424.33 0ZM416.25 16.3H414.78V14.84H416.25V16.3ZM416.25 13.37H414.78V11.91H416.25V13.37ZM419.17 19.23H417.71V17.76H419.17V19.23ZM419.17 16.3H417.71V14.84H419.17V16.3ZM419.2 13.35H417.73V11.89H419.2V13.35ZM419.2 10.42H417.73V8.95996H419.2V10.42ZM422.1 22.15H420.64V20.69H422.1V22.15ZM422.1 19.23H420.64V17.76H422.1V19.23ZM422.12 16.28H420.66V14.81H422.12V16.28ZM422.12 13.35H420.66V11.89H422.12V13.35ZM422.14 10.4H420.68V8.94H422.14V10.4ZM422.14 7.47998H420.68V6.01001H422.14V7.47998ZM425.02 25.08H423.56V23.62H425.02V25.08ZM425.02 22.15H423.56V20.69H425.02V22.15ZM425.05 19.2H423.59V17.74H425.05V19.2ZM425.05 16.28H423.59V14.81H425.05V16.28ZM425.07 13.33H423.61V11.87H425.07V13.33ZM425.07 10.4H423.61V8.94H425.07V10.4ZM425.1 7.45001H423.63V5.98999H425.1V7.45001ZM425.1 4.52997H423.63V3.06H425.1V4.52997ZM427.98 22.13H426.51V20.66H427.98V22.13ZM427.98 19.2H426.51V17.74H427.98V19.2ZM428 16.25H426.53V14.79H428V16.25ZM428 13.33H426.53V11.87H428V13.33ZM428.02 10.38H426.56V8.90997H428.02V10.38ZM428.02 7.45001H426.56V5.98999H428.02V7.45001ZM430.92 19.18H429.46V17.72H430.92V19.18ZM430.92 16.25H429.46V14.79H430.92V16.25ZM430.95 13.3H429.48V11.84H430.95V13.3ZM430.95 10.38H429.48V8.90997H430.95V10.38ZM433.87 16.23H432.41V14.77H433.87V16.23ZM432.41 13.3V11.84H433.87V13.3H432.41Z" fill="#D35433"/>
<path d="M2.63 0L-11.44 14.07L2.63 28.14L16.7 14.07L2.63 0ZM-5.45001 16.3H-6.92001V14.84H-5.45001V16.3ZM-5.45001 13.37H-6.92001V11.91H-5.45001V13.37ZM-2.53 19.23H-3.98999V17.76H-2.53V19.23ZM-2.53 16.3H-3.98999V14.84H-2.53V16.3ZM-2.5 13.35H-3.97V11.89H-2.5V13.35ZM-2.5 10.42H-3.97V8.95996H-2.5V10.42ZM0.399994 22.15H-1.06V20.69H0.399994V22.15ZM0.399994 19.23H-1.06V17.76H0.399994V19.23ZM0.419983 16.28H-1.04001V14.81H0.419983V16.28ZM0.419983 13.35H-1.04001V11.89H0.419983V13.35ZM0.440002 10.4H-1.01999V8.94H0.440002V10.4ZM0.440002 7.47998H-1.01999V6.01001H0.440002V7.47998ZM3.32001 25.08H1.85999V23.62H3.32001V25.08ZM3.32001 22.15H1.85999V20.69H3.32001V22.15ZM3.35001 19.2H1.88998V17.74H3.35001V19.2ZM3.35001 16.28H1.88998V14.81H3.35001V16.28ZM3.37 13.33H1.91V11.87H3.37V13.33ZM3.37 10.4H1.91V8.94H3.37V10.4ZM3.39999 7.45001H1.92999V5.98999H3.39999V7.45001ZM3.39999 4.52997H1.92999V3.06H3.39999V4.52997ZM6.28 22.13H4.81V20.66H6.28V22.13ZM6.28 19.2H4.81V17.74H6.28V19.2ZM6.29999 16.25H4.82999V14.79H6.29999V16.25ZM6.29999 13.33H4.82999V11.87H6.29999V13.33ZM6.32001 10.38H4.85999V8.90997H6.32001V10.38ZM6.32001 7.45001H4.85999V5.98999H6.32001V7.45001ZM9.22 19.18H7.76001V17.72H9.22V19.18ZM9.22 16.25H7.76001V14.79H9.22V16.25ZM9.25 13.3H7.78V11.84H9.25V13.3ZM9.25 10.38H7.78V8.90997H9.25V10.38ZM12.17 16.23H10.71V14.77H12.17V16.23ZM10.71 13.3V11.84H12.17V13.3H10.71Z" fill="#D35433"/>
<path d="M30.77 0L16.7 14.07L30.77 28.14L44.84 14.07L30.77 0ZM22.69 16.3H21.22V14.84H22.69V16.3ZM22.69 13.37H21.22V11.91H22.69V13.37ZM25.61 19.23H24.15V17.76H25.61V19.23ZM25.61 16.3H24.15V14.84H25.61V16.3ZM25.64 13.35H24.17V11.89H25.64V13.35ZM25.64 10.42H24.17V8.95996H25.64V10.42ZM28.54 22.15H27.08V20.69H28.54V22.15ZM28.54 19.23H27.08V17.76H28.54V19.23ZM28.56 16.28H27.1V14.81H28.56V16.28ZM28.56 13.35H27.1V11.89H28.56V13.35ZM28.58 10.4H27.12V8.94H28.58V10.4ZM28.58 7.47998H27.12V6.01001H28.58V7.47998ZM31.46 25.08H30V23.62H31.46V25.08ZM31.46 22.15H30V20.69H31.46V22.15ZM31.49 19.2H30.03V17.74H31.49V19.2ZM31.49 16.28H30.03V14.81H31.49V16.28ZM31.51 13.33H30.05V11.87H31.51V13.33ZM31.51 10.4H30.05V8.94H31.51V10.4ZM31.54 7.45001H30.07V5.98999H31.54V7.45001ZM31.54 4.52997H30.07V3.06H31.54V4.52997ZM34.42 22.13H32.95V20.66H34.42V22.13ZM34.42 19.2H32.95V17.74H34.42V19.2ZM34.44 16.25H32.97V14.79H34.44V16.25ZM34.44 13.33H32.97V11.87H34.44V13.33ZM34.46 10.38H33V8.90997H34.46V10.38ZM34.46 7.45001H33V5.98999H34.46V7.45001ZM37.36 19.18H35.9V17.72H37.36V19.18ZM37.36 16.25H35.9V14.79H37.36V16.25ZM37.39 13.3H35.92V11.84H37.39V13.3ZM37.39 10.38H35.92V8.90997H37.39V10.38ZM40.31 16.23H38.85V14.77H40.31V16.23ZM38.85 13.3V11.84H40.31V13.3H38.85Z" fill="#D35433"/>
<path d="M58.91 0L44.84 14.07L58.91 28.14L72.98 14.07L58.91 0ZM50.83 16.3H49.36V14.84H50.83V16.3ZM50.83 13.37H49.36V11.91H50.83V13.37ZM53.75 19.23H52.29V17.76H53.75V19.23ZM53.75 16.3H52.29V14.84H53.75V16.3ZM53.78 13.35H52.31V11.89H53.78V13.35ZM53.78 10.42H52.31V8.95996H53.78V10.42ZM56.68 22.15H55.22V20.69H56.68V22.15ZM56.68 19.23H55.22V17.76H56.68V19.23ZM56.7 16.28H55.24V14.81H56.7V16.28ZM56.7 13.35H55.24V11.89H56.7V13.35ZM56.72 10.4H55.26V8.94H56.72V10.4ZM56.72 7.47998H55.26V6.01001H56.72V7.47998ZM59.6 25.08H58.14V23.62H59.6V25.08ZM59.6 22.15H58.14V20.69H59.6V22.15ZM59.63 19.2H58.17V17.74H59.63V19.2ZM59.63 16.28H58.17V14.81H59.63V16.28ZM59.65 13.33H58.19V11.87H59.65V13.33ZM59.65 10.4H58.19V8.94H59.65V10.4ZM59.68 7.45001H58.21V5.98999H59.68V7.45001ZM59.68 4.52997H58.21V3.06H59.68V4.52997ZM62.56 22.13H61.09V20.66H62.56V22.13ZM62.56 19.2H61.09V17.74H62.56V19.2ZM62.58 16.25H61.11V14.79H62.58V16.25ZM62.58 13.33H61.11V11.87H62.58V13.33ZM62.6 10.38H61.14V8.90997H62.6V10.38ZM62.6 7.45001H61.14V5.98999H62.6V7.45001ZM65.5 19.18H64.04V17.72H65.5V19.18ZM65.5 16.25H64.04V14.79H65.5V16.25ZM65.53 13.3H64.06V11.84H65.53V13.3ZM65.53 10.38H64.06V8.90997H65.53V10.38ZM68.45 16.23H66.99V14.77H68.45V16.23ZM66.99 13.3V11.84H68.45V13.3H66.99Z" fill="#D35433"/>
<path d="M87.05 0L72.98 14.07L87.05 28.14L101.12 14.07L87.05 0ZM78.97 16.3H77.5V14.84H78.97V16.3ZM78.97 13.37H77.5V11.91H78.97V13.37ZM81.89 19.23H80.43V17.76H81.89V19.23ZM81.89 16.3H80.43V14.84H81.89V16.3ZM81.92 13.35H80.45V11.89H81.92V13.35ZM81.92 10.42H80.45V8.95996H81.92V10.42ZM84.82 22.15H83.36V20.69H84.82V22.15ZM84.82 19.23H83.36V17.76H84.82V19.23ZM84.84 16.28H83.38V14.81H84.84V16.28ZM84.84 13.35H83.38V11.89H84.84V13.35ZM84.86 10.4H83.4V8.94H84.86V10.4ZM84.86 7.47998H83.4V6.01001H84.86V7.47998ZM87.74 25.08H86.28V23.62H87.74V25.08ZM87.74 22.15H86.28V20.69H87.74V22.15ZM87.77 19.2H86.31V17.74H87.77V19.2ZM87.77 16.28H86.31V14.81H87.77V16.28ZM87.79 13.33H86.33V11.87H87.79V13.33ZM87.79 10.4H86.33V8.94H87.79V10.4ZM87.82 7.45001H86.35V5.98999H87.82V7.45001ZM87.82 4.52997H86.35V3.06H87.82V4.52997ZM90.7 22.13H89.23V20.66H90.7V22.13ZM90.7 19.2H89.23V17.74H90.7V19.2ZM90.72 16.25H89.25V14.79H90.72V16.25ZM90.72 13.33H89.25V11.87H90.72V13.33ZM90.74 10.38H89.28V8.90997H90.74V10.38ZM90.74 7.45001H89.28V5.98999H90.74V7.45001ZM93.64 19.18H92.18V17.72H93.64V19.18ZM93.64 16.25H92.18V14.79H93.64V16.25ZM93.67 13.3H92.2V11.84H93.67V13.3ZM93.67 10.38H92.2V8.90997H93.67V10.38ZM96.59 16.23H95.13V14.77H96.59V16.23ZM95.13 13.3V11.84H96.59V13.3H95.13Z" fill="#D35433"/>
<path d="M115.19 0L101.12 14.07L115.19 28.14L129.26 14.07L115.19 0ZM107.11 16.3H105.64V14.84H107.11V16.3ZM107.11 13.37H105.64V11.91H107.11V13.37ZM110.03 19.23H108.57V17.76H110.03V19.23ZM110.03 16.3H108.57V14.84H110.03V16.3ZM110.06 13.35H108.59V11.89H110.06V13.35ZM110.06 10.42H108.59V8.95996H110.06V10.42ZM112.96 22.15H111.5V20.69H112.96V22.15ZM112.96 19.23H111.5V17.76H112.96V19.23ZM112.98 16.28H111.52V14.81H112.98V16.28ZM112.98 13.35H111.52V11.89H112.98V13.35ZM113 10.4H111.54V8.94H113V10.4ZM113 7.47998H111.54V6.01001H113V7.47998ZM115.88 25.08H114.42V23.62H115.88V25.08ZM115.88 22.15H114.42V20.69H115.88V22.15ZM115.91 19.2H114.45V17.74H115.91V19.2ZM115.91 16.28H114.45V14.81H115.91V16.28ZM115.93 13.33H114.47V11.87H115.93V13.33ZM115.93 10.4H114.47V8.94H115.93V10.4ZM115.96 7.45001H114.49V5.98999H115.96V7.45001ZM115.96 4.52997H114.49V3.06H115.96V4.52997ZM118.84 22.13H117.37V20.66H118.84V22.13ZM118.84 19.2H117.37V17.74H118.84V19.2ZM118.86 16.25H117.39V14.79H118.86V16.25ZM118.86 13.33H117.39V11.87H118.86V13.33ZM118.88 10.38H117.42V8.90997H118.88V10.38ZM118.88 7.45001H117.42V5.98999H118.88V7.45001ZM121.78 19.18H120.32V17.72H121.78V19.18ZM121.78 16.25H120.32V14.79H121.78V16.25ZM121.81 13.3H120.34V11.84H121.81V13.3ZM121.81 10.38H120.34V8.90997H121.81V10.38ZM124.73 16.23H123.27V14.77H124.73V16.23ZM123.27 13.3V11.84H124.73V13.3H123.27Z" fill="#D35433"/>
<path d="M143.33 0L129.26 14.07L143.33 28.14L157.4 14.07L143.33 0ZM135.25 16.3H133.78V14.84H135.25V16.3ZM135.25 13.37H133.78V11.91H135.25V13.37ZM138.17 19.23H136.71V17.76H138.17V19.23ZM138.17 16.3H136.71V14.84H138.17V16.3ZM138.2 13.35H136.73V11.89H138.2V13.35ZM138.2 10.42H136.73V8.95996H138.2V10.42ZM141.1 22.15H139.64V20.69H141.1V22.15ZM141.1 19.23H139.64V17.76H141.1V19.23ZM141.12 16.28H139.66V14.81H141.12V16.28ZM141.12 13.35H139.66V11.89H141.12V13.35ZM141.14 10.4H139.68V8.94H141.14V10.4ZM141.14 7.47998H139.68V6.01001H141.14V7.47998ZM144.02 25.08H142.56V23.62H144.02V25.08ZM144.02 22.15H142.56V20.69H144.02V22.15ZM144.05 19.2H142.59V17.74H144.05V19.2ZM144.05 16.28H142.59V14.81H144.05V16.28ZM144.07 13.33H142.61V11.87H144.07V13.33ZM144.07 10.4H142.61V8.94H144.07V10.4ZM144.1 7.45001H142.63V5.98999H144.1V7.45001ZM144.1 4.52997H142.63V3.06H144.1V4.52997ZM146.98 22.13H145.51V20.66H146.98V22.13ZM146.98 19.2H145.51V17.74H146.98V19.2ZM147 16.25H145.53V14.79H147V16.25ZM147 13.33H145.53V11.87H147V13.33ZM147.02 10.38H145.56V8.90997H147.02V10.38ZM147.02 7.45001H145.56V5.98999H147.02V7.45001ZM149.92 19.18H148.46V17.72H149.92V19.18ZM149.92 16.25H148.46V14.79H149.92V16.25ZM149.95 13.3H148.48V11.84H149.95V13.3ZM149.95 10.38H148.48V8.90997H149.95V10.38ZM152.87 16.23H151.41V14.77H152.87V16.23ZM151.41 13.3V11.84H152.87V13.3H151.41Z" fill="#D35433"/>
<path d="M1014.47 0L1000.4 14.07L1014.47 28.14L1028.54 14.07L1014.47 0ZM1006.39 16.3H1004.92V14.84H1006.39V16.3ZM1006.39 13.37H1004.92V11.91H1006.39V13.37ZM1009.31 19.23H1007.85V17.76H1009.31V19.23ZM1009.31 16.3H1007.85V14.84H1009.31V16.3ZM1009.34 13.35H1007.87V11.89H1009.34V13.35ZM1009.34 10.42H1007.87V8.95996H1009.34V10.42ZM1012.24 22.15H1010.78V20.69H1012.24V22.15ZM1012.24 19.23H1010.78V17.76H1012.24V19.23ZM1012.26 16.28H1010.8V14.81H1012.26V16.28ZM1012.26 13.35H1010.8V11.89H1012.26V13.35ZM1012.28 10.4H1010.82V8.94H1012.28V10.4ZM1012.28 7.47998H1010.82V6.01001H1012.28V7.47998ZM1015.16 25.08H1013.7V23.62H1015.16V25.08ZM1015.16 22.15H1013.7V20.69H1015.16V22.15ZM1015.19 19.2H1013.73V17.74H1015.19V19.2ZM1015.19 16.28H1013.73V14.81H1015.19V16.28ZM1015.21 13.33H1013.75V11.87H1015.21V13.33ZM1015.21 10.4H1013.75V8.94H1015.21V10.4ZM1015.24 7.45001H1013.77V5.98999H1015.24V7.45001ZM1015.24 4.52997H1013.77V3.06H1015.24V4.52997ZM1018.12 22.13H1016.65V20.66H1018.12V22.13ZM1018.12 19.2H1016.65V17.74H1018.12V19.2ZM1018.14 16.25H1016.67V14.79H1018.14V16.25ZM1018.14 13.33H1016.67V11.87H1018.14V13.33ZM1018.16 10.38H1016.7V8.90997H1018.16V10.38ZM1018.16 7.45001H1016.7V5.98999H1018.16V7.45001ZM1021.06 19.18H1019.6V17.72H1021.06V19.18ZM1021.06 16.25H1019.6V14.79H1021.06V16.25ZM1021.09 13.3H1019.62V11.84H1021.09V13.3ZM1021.09 10.38H1019.62V8.90997H1021.09V10.38ZM1024.01 16.23H1022.55V14.77H1024.01V16.23ZM1022.55 13.3V11.84H1024.01V13.3H1022.55Z" fill="#D35433"/>
<path d="M1042.61 0L1028.54 14.07L1042.61 28.14L1056.68 14.07L1042.61 0ZM1034.53 16.3H1033.06V14.84H1034.53V16.3ZM1034.53 13.37H1033.06V11.91H1034.53V13.37ZM1037.45 19.23H1035.99V17.76H1037.45V19.23ZM1037.45 16.3H1035.99V14.84H1037.45V16.3ZM1037.48 13.35H1036.01V11.89H1037.48V13.35ZM1037.48 10.42H1036.01V8.95996H1037.48V10.42ZM1040.38 22.15H1038.92V20.69H1040.38V22.15ZM1040.38 19.23H1038.92V17.76H1040.38V19.23ZM1040.4 16.28H1038.94V14.81H1040.4V16.28ZM1040.4 13.35H1038.94V11.89H1040.4V13.35ZM1040.42 10.4H1038.96V8.94H1040.42V10.4ZM1040.42 7.47998H1038.96V6.01001H1040.42V7.47998ZM1043.3 25.08H1041.84V23.62H1043.3V25.08ZM1043.3 22.15H1041.84V20.69H1043.3V22.15ZM1043.33 19.2H1041.87V17.74H1043.33V19.2ZM1043.33 16.28H1041.87V14.81H1043.33V16.28ZM1043.35 13.33H1041.89V11.87H1043.35V13.33ZM1043.35 10.4H1041.89V8.94H1043.35V10.4ZM1043.38 7.45001H1041.91V5.98999H1043.38V7.45001ZM1043.38 4.52997H1041.91V3.06H1043.38V4.52997ZM1046.26 22.13H1044.79V20.66H1046.26V22.13ZM1046.26 19.2H1044.79V17.74H1046.26V19.2ZM1046.28 16.25H1044.81V14.79H1046.28V16.25ZM1046.28 13.33H1044.81V11.87H1046.28V13.33ZM1046.3 10.38H1044.84V8.90997H1046.3V10.38ZM1046.3 7.45001H1044.84V5.98999H1046.3V7.45001ZM1049.2 19.18H1047.74V17.72H1049.2V19.18ZM1049.2 16.25H1047.74V14.79H1049.2V16.25ZM1049.23 13.3H1047.76V11.84H1049.23V13.3ZM1049.23 10.38H1047.76V8.90997H1049.23V10.38ZM1052.15 16.23H1050.69V14.77H1052.15V16.23ZM1050.69 13.3V11.84H1052.15V13.3H1050.69Z" fill="#D35433"/>
<path d="M1070.75 0L1056.68 14.07L1070.75 28.14L1084.82 14.07L1070.75 0ZM1062.67 16.3H1061.2V14.84H1062.67V16.3ZM1062.67 13.37H1061.2V11.91H1062.67V13.37ZM1065.59 19.23H1064.13V17.76H1065.59V19.23ZM1065.59 16.3H1064.13V14.84H1065.59V16.3ZM1065.62 13.35H1064.15V11.89H1065.62V13.35ZM1065.62 10.42H1064.15V8.95996H1065.62V10.42ZM1068.52 22.15H1067.06V20.69H1068.52V22.15ZM1068.52 19.23H1067.06V17.76H1068.52V19.23ZM1068.54 16.28H1067.08V14.81H1068.54V16.28ZM1068.54 13.35H1067.08V11.89H1068.54V13.35ZM1068.56 10.4H1067.1V8.94H1068.56V10.4ZM1068.56 7.47998H1067.1V6.01001H1068.56V7.47998ZM1071.44 25.08H1069.98V23.62H1071.44V25.08ZM1071.44 22.15H1069.98V20.69H1071.44V22.15ZM1071.47 19.2H1070.01V17.74H1071.47V19.2ZM1071.47 16.28H1070.01V14.81H1071.47V16.28ZM1071.49 13.33H1070.03V11.87H1071.49V13.33ZM1071.49 10.4H1070.03V8.94H1071.49V10.4ZM1071.52 7.45001H1070.05V5.98999H1071.52V7.45001ZM1071.52 4.52997H1070.05V3.06H1071.52V4.52997ZM1074.4 22.13H1072.93V20.66H1074.4V22.13ZM1074.4 19.2H1072.93V17.74H1074.4V19.2ZM1074.42 16.25H1072.95V14.79H1074.42V16.25ZM1074.42 13.33H1072.95V11.87H1074.42V13.33ZM1074.44 10.38H1072.98V8.90997H1074.44V10.38ZM1074.44 7.45001H1072.98V5.98999H1074.44V7.45001ZM1077.34 19.18H1075.88V17.72H1077.34V19.18ZM1077.34 16.25H1075.88V14.79H1077.34V16.25ZM1077.37 13.3H1075.9V11.84H1077.37V13.3ZM1077.37 10.38H1075.9V8.90997H1077.37V10.38ZM1080.29 16.23H1078.83V14.77H1080.29V16.23ZM1078.83 13.3V11.84H1080.29V13.3H1078.83Z" fill="#D35433"/>
<path d="M1098.89 0L1084.82 14.07L1098.89 28.14L1112.96 14.07L1098.89 0ZM1090.81 16.3H1089.34V14.84H1090.81V16.3ZM1090.81 13.37H1089.34V11.91H1090.81V13.37ZM1093.73 19.23H1092.27V17.76H1093.73V19.23ZM1093.73 16.3H1092.27V14.84H1093.73V16.3ZM1093.76 13.35H1092.29V11.89H1093.76V13.35ZM1093.76 10.42H1092.29V8.95996H1093.76V10.42ZM1096.66 22.15H1095.2V20.69H1096.66V22.15ZM1096.66 19.23H1095.2V17.76H1096.66V19.23ZM1096.68 16.28H1095.22V14.81H1096.68V16.28ZM1096.68 13.35H1095.22V11.89H1096.68V13.35ZM1096.7 10.4H1095.24V8.94H1096.7V10.4ZM1096.7 7.47998H1095.24V6.01001H1096.7V7.47998ZM1099.58 25.08H1098.12V23.62H1099.58V25.08ZM1099.58 22.15H1098.12V20.69H1099.58V22.15ZM1099.61 19.2H1098.15V17.74H1099.61V19.2ZM1099.61 16.28H1098.15V14.81H1099.61V16.28ZM1099.63 13.33H1098.17V11.87H1099.63V13.33ZM1099.63 10.4H1098.17V8.94H1099.63V10.4ZM1099.66 7.45001H1098.19V5.98999H1099.66V7.45001ZM1099.66 4.52997H1098.19V3.06H1099.66V4.52997ZM1102.54 22.13H1101.07V20.66H1102.54V22.13ZM1102.54 19.2H1101.07V17.74H1102.54V19.2ZM1102.56 16.25H1101.09V14.79H1102.56V16.25ZM1102.56 13.33H1101.09V11.87H1102.56V13.33ZM1102.58 10.38H1101.12V8.90997H1102.58V10.38ZM1102.58 7.45001H1101.12V5.98999H1102.58V7.45001ZM1105.48 19.18H1104.02V17.72H1105.48V19.18ZM1105.48 16.25H1104.02V14.79H1105.48V16.25ZM1105.51 13.3H1104.04V11.84H1105.51V13.3ZM1105.51 10.38H1104.04V8.90997H1105.51V10.38ZM1108.43 16.23H1106.97V14.77H1108.43V16.23ZM1106.97 13.3V11.84H1108.43V13.3H1106.97Z" fill="#D35433"/>
<path d="M1127.03 0L1112.96 14.07L1127.03 28.14L1141.1 14.07L1127.03 0ZM1118.95 16.3H1117.48V14.84H1118.95V16.3ZM1118.95 13.37H1117.48V11.91H1118.95V13.37ZM1121.87 19.23H1120.41V17.76H1121.87V19.23ZM1121.87 16.3H1120.41V14.84H1121.87V16.3ZM1121.9 13.35H1120.43V11.89H1121.9V13.35ZM1121.9 10.42H1120.43V8.95996H1121.9V10.42ZM1124.8 22.15H1123.34V20.69H1124.8V22.15ZM1124.8 19.23H1123.34V17.76H1124.8V19.23ZM1124.82 16.28H1123.36V14.81H1124.82V16.28ZM1124.82 13.35H1123.36V11.89H1124.82V13.35ZM1124.84 10.4H1123.38V8.94H1124.84V10.4ZM1124.84 7.47998H1123.38V6.01001H1124.84V7.47998ZM1127.72 25.08H1126.26V23.62H1127.72V25.08ZM1127.72 22.15H1126.26V20.69H1127.72V22.15ZM1127.75 19.2H1126.29V17.74H1127.75V19.2ZM1127.75 16.28H1126.29V14.81H1127.75V16.28ZM1127.77 13.33H1126.31V11.87H1127.77V13.33ZM1127.77 10.4H1126.31V8.94H1127.77V10.4ZM1127.8 7.45001H1126.33V5.98999H1127.8V7.45001ZM1127.8 4.52997H1126.33V3.06H1127.8V4.52997ZM1130.68 22.13H1129.21V20.66H1130.68V22.13ZM1130.68 19.2H1129.21V17.74H1130.68V19.2ZM1130.7 16.25H1129.23V14.79H1130.7V16.25ZM1130.7 13.33H1129.23V11.87H1130.7V13.33ZM1130.72 10.38H1129.26V8.90997H1130.72V10.38ZM1130.72 7.45001H1129.26V5.98999H1130.72V7.45001ZM1133.62 19.18H1132.16V17.72H1133.62V19.18ZM1133.62 16.25H1132.16V14.79H1133.62V16.25ZM1133.65 13.3H1132.18V11.84H1133.65V13.3ZM1133.65 10.38H1132.18V8.90997H1133.65V10.38ZM1136.57 16.23H1135.11V14.77H1136.57V16.23ZM1135.11 13.3V11.84H1136.57V13.3H1135.11Z" fill="#D35433"/>
<path d="M1155.17 0L1141.1 14.07L1155.17 28.14L1169.24 14.07L1155.17 0ZM1147.09 16.3H1145.62V14.84H1147.09V16.3ZM1147.09 13.37H1145.62V11.91H1147.09V13.37ZM1150.01 19.23H1148.55V17.76H1150.01V19.23ZM1150.01 16.3H1148.55V14.84H1150.01V16.3ZM1150.04 13.35H1148.57V11.89H1150.04V13.35ZM1150.04 10.42H1148.57V8.95996H1150.04V10.42ZM1152.94 22.15H1151.48V20.69H1152.94V22.15ZM1152.94 19.23H1151.48V17.76H1152.94V19.23ZM1152.96 16.28H1151.5V14.81H1152.96V16.28ZM1152.96 13.35H1151.5V11.89H1152.96V13.35ZM1152.98 10.4H1151.52V8.94H1152.98V10.4ZM1152.98 7.47998H1151.52V6.01001H1152.98V7.47998ZM1155.86 25.08H1154.4V23.62H1155.86V25.08ZM1155.86 22.15H1154.4V20.69H1155.86V22.15ZM1155.89 19.2H1154.43V17.74H1155.89V19.2ZM1155.89 16.28H1154.43V14.81H1155.89V16.28ZM1155.91 13.33H1154.45V11.87H1155.91V13.33ZM1155.91 10.4H1154.45V8.94H1155.91V10.4ZM1155.94 7.45001H1154.47V5.98999H1155.94V7.45001ZM1155.94 4.52997H1154.47V3.06H1155.94V4.52997ZM1158.82 22.13H1157.35V20.66H1158.82V22.13ZM1158.82 19.2H1157.35V17.74H1158.82V19.2ZM1158.84 16.25H1157.37V14.79H1158.84V16.25ZM1158.84 13.33H1157.37V11.87H1158.84V13.33ZM1158.86 10.38H1157.4V8.90997H1158.86V10.38ZM1158.86 7.45001H1157.4V5.98999H1158.86V7.45001ZM1161.76 19.18H1160.3V17.72H1161.76V19.18ZM1161.76 16.25H1160.3V14.79H1161.76V16.25ZM1161.79 13.3H1160.32V11.84H1161.79V13.3ZM1161.79 10.38H1160.32V8.90997H1161.79V10.38ZM1164.71 16.23H1163.25V14.77H1164.71V16.23ZM1163.25 13.3V11.84H1164.71V13.3H1163.25Z" fill="#D35433"/>
<path d="M1183.31 0L1169.24 14.07L1183.31 28.14L1197.38 14.07L1183.31 0ZM1175.23 16.3H1173.76V14.84H1175.23V16.3ZM1175.23 13.37H1173.76V11.91H1175.23V13.37ZM1178.15 19.23H1176.69V17.76H1178.15V19.23ZM1178.15 16.3H1176.69V14.84H1178.15V16.3ZM1178.18 13.35H1176.71V11.89H1178.18V13.35ZM1178.18 10.42H1176.71V8.95996H1178.18V10.42ZM1181.08 22.15H1179.62V20.69H1181.08V22.15ZM1181.08 19.23H1179.62V17.76H1181.08V19.23ZM1181.1 16.28H1179.64V14.81H1181.1V16.28ZM1181.1 13.35H1179.64V11.89H1181.1V13.35ZM1181.12 10.4H1179.66V8.94H1181.12V10.4ZM1181.12 7.47998H1179.66V6.01001H1181.12V7.47998ZM1184 25.08H1182.54V23.62H1184V25.08ZM1184 22.15H1182.54V20.69H1184V22.15ZM1184.03 19.2H1182.57V17.74H1184.03V19.2ZM1184.03 16.28H1182.57V14.81H1184.03V16.28ZM1184.05 13.33H1182.59V11.87H1184.05V13.33ZM1184.05 10.4H1182.59V8.94H1184.05V10.4ZM1184.08 7.45001H1182.61V5.98999H1184.08V7.45001ZM1184.08 4.52997H1182.61V3.06H1184.08V4.52997ZM1186.96 22.13H1185.49V20.66H1186.96V22.13ZM1186.96 19.2H1185.49V17.74H1186.96V19.2ZM1186.98 16.25H1185.51V14.79H1186.98V16.25ZM1186.98 13.33H1185.51V11.87H1186.98V13.33ZM1187 10.38H1185.54V8.90997H1187V10.38ZM1187 7.45001H1185.54V5.98999H1187V7.45001ZM1189.9 19.18H1188.44V17.72H1189.9V19.18ZM1189.9 16.25H1188.44V14.79H1189.9V16.25ZM1189.93 13.3H1188.46V11.84H1189.93V13.3ZM1189.93 10.38H1188.46V8.90997H1189.93V10.38ZM1192.85 16.23H1191.39V14.77H1192.85V16.23ZM1191.39 13.3V11.84H1192.85V13.3H1191.39Z" fill="#D35433"/>
<path d="M1211.45 0L1197.38 14.07L1211.45 28.14L1225.52 14.07L1211.45 0ZM1203.37 16.3H1201.9V14.84H1203.37V16.3ZM1203.37 13.37H1201.9V11.91H1203.37V13.37ZM1206.29 19.23H1204.83V17.76H1206.29V19.23ZM1206.29 16.3H1204.83V14.84H1206.29V16.3ZM1206.32 13.35H1204.85V11.89H1206.32V13.35ZM1206.32 10.42H1204.85V8.95996H1206.32V10.42ZM1209.22 22.15H1207.76V20.69H1209.22V22.15ZM1209.22 19.23H1207.76V17.76H1209.22V19.23ZM1209.24 16.28H1207.78V14.81H1209.24V16.28ZM1209.24 13.35H1207.78V11.89H1209.24V13.35ZM1209.26 10.4H1207.8V8.94H1209.26V10.4ZM1209.26 7.47998H1207.8V6.01001H1209.26V7.47998ZM1212.14 25.08H1210.68V23.62H1212.14V25.08ZM1212.14 22.15H1210.68V20.69H1212.14V22.15ZM1212.17 19.2H1210.71V17.74H1212.17V19.2ZM1212.17 16.28H1210.71V14.81H1212.17V16.28ZM1212.19 13.33H1210.73V11.87H1212.19V13.33ZM1212.19 10.4H1210.73V8.94H1212.19V10.4ZM1212.22 7.45001H1210.75V5.98999H1212.22V7.45001ZM1212.22 4.52997H1210.75V3.06H1212.22V4.52997ZM1215.1 22.13H1213.63V20.66H1215.1V22.13ZM1215.1 19.2H1213.63V17.74H1215.1V19.2ZM1215.12 16.25H1213.65V14.79H1215.12V16.25ZM1215.12 13.33H1213.65V11.87H1215.12V13.33ZM1215.14 10.38H1213.68V8.90997H1215.14V10.38ZM1215.14 7.45001H1213.68V5.98999H1215.14V7.45001ZM1218.04 19.18H1216.58V17.72H1218.04V19.18ZM1218.04 16.25H1216.58V14.79H1218.04V16.25ZM1218.07 13.3H1216.6V11.84H1218.07V13.3ZM1218.07 10.38H1216.6V8.90997H1218.07V10.38ZM1220.99 16.23H1219.53V14.77H1220.99V16.23ZM1219.53 13.3V11.84H1220.99V13.3H1219.53Z" fill="#D35433"/>
<path d="M1239.59 0L1225.52 14.07L1239.59 28.14L1253.66 14.07L1239.59 0ZM1231.51 16.3H1230.04V14.84H1231.51V16.3ZM1231.51 13.37H1230.04V11.91H1231.51V13.37ZM1234.43 19.23H1232.97V17.76H1234.43V19.23ZM1234.43 16.3H1232.97V14.84H1234.43V16.3ZM1234.46 13.35H1232.99V11.89H1234.46V13.35ZM1234.46 10.42H1232.99V8.95996H1234.46V10.42ZM1237.36 22.15H1235.9V20.69H1237.36V22.15ZM1237.36 19.23H1235.9V17.76H1237.36V19.23ZM1237.38 16.28H1235.92V14.81H1237.38V16.28ZM1237.38 13.35H1235.92V11.89H1237.38V13.35ZM1237.4 10.4H1235.94V8.94H1237.4V10.4ZM1237.4 7.47998H1235.94V6.01001H1237.4V7.47998ZM1240.28 25.08H1238.82V23.62H1240.28V25.08ZM1240.28 22.15H1238.82V20.69H1240.28V22.15ZM1240.31 19.2H1238.85V17.74H1240.31V19.2ZM1240.31 16.28H1238.85V14.81H1240.31V16.28ZM1240.33 13.33H1238.87V11.87H1240.33V13.33ZM1240.33 10.4H1238.87V8.94H1240.33V10.4ZM1240.36 7.45001H1238.89V5.98999H1240.36V7.45001ZM1240.36 4.52997H1238.89V3.06H1240.36V4.52997ZM1243.24 22.13H1241.77V20.66H1243.24V22.13ZM1243.24 19.2H1241.77V17.74H1243.24V19.2ZM1243.26 16.25H1241.79V14.79H1243.26V16.25ZM1243.26 13.33H1241.79V11.87H1243.26V13.33ZM1243.28 10.38H1241.82V8.90997H1243.28V10.38ZM1243.28 7.45001H1241.82V5.98999H1243.28V7.45001ZM1246.18 19.18H1244.72V17.72H1246.18V19.18ZM1246.18 16.25H1244.72V14.79H1246.18V16.25ZM1246.21 13.3H1244.74V11.84H1246.21V13.3ZM1246.21 10.38H1244.74V8.90997H1246.21V10.38ZM1249.13 16.23H1247.67V14.77H1249.13V16.23ZM1247.67 13.3V11.84H1249.13V13.3H1247.67Z" fill="#D35433"/>
<path d="M1267.73 0L1253.66 14.07L1267.73 28.14L1281.8 14.07L1267.73 0ZM1259.65 16.3H1258.18V14.84H1259.65V16.3ZM1259.65 13.37H1258.18V11.91H1259.65V13.37ZM1262.57 19.23H1261.11V17.76H1262.57V19.23ZM1262.57 16.3H1261.11V14.84H1262.57V16.3ZM1262.6 13.35H1261.13V11.89H1262.6V13.35ZM1262.6 10.42H1261.13V8.95996H1262.6V10.42ZM1265.5 22.15H1264.04V20.69H1265.5V22.15ZM1265.5 19.23H1264.04V17.76H1265.5V19.23ZM1265.52 16.28H1264.06V14.81H1265.52V16.28ZM1265.52 13.35H1264.06V11.89H1265.52V13.35ZM1265.54 10.4H1264.08V8.94H1265.54V10.4ZM1265.54 7.47998H1264.08V6.01001H1265.54V7.47998ZM1268.42 25.08H1266.96V23.62H1268.42V25.08ZM1268.42 22.15H1266.96V20.69H1268.42V22.15ZM1268.45 19.2H1266.99V17.74H1268.45V19.2ZM1268.45 16.28H1266.99V14.81H1268.45V16.28ZM1268.47 13.33H1267.01V11.87H1268.47V13.33ZM1268.47 10.4H1267.01V8.94H1268.47V10.4ZM1268.5 7.45001H1267.03V5.98999H1268.5V7.45001ZM1268.5 4.52997H1267.03V3.06H1268.5V4.52997ZM1271.38 22.13H1269.91V20.66H1271.38V22.13ZM1271.38 19.2H1269.91V17.74H1271.38V19.2ZM1271.4 16.25H1269.93V14.79H1271.4V16.25ZM1271.4 13.33H1269.93V11.87H1271.4V13.33ZM1271.42 10.38H1269.96V8.90997H1271.42V10.38ZM1271.42 7.45001H1269.96V5.98999H1271.42V7.45001ZM1274.32 19.18H1272.86V17.72H1274.32V19.18ZM1274.32 16.25H1272.86V14.79H1274.32V16.25ZM1274.35 13.3H1272.88V11.84H1274.35V13.3ZM1274.35 10.38H1272.88V8.90997H1274.35V10.38ZM1277.27 16.23H1275.81V14.77H1277.27V16.23ZM1275.81 13.3V11.84H1277.27V13.3H1275.81Z" fill="#D35433"/>
<path d="M1295.87 0L1281.8 14.07L1295.87 28.14L1309.94 14.07L1295.87 0ZM1287.79 16.3H1286.32V14.84H1287.79V16.3ZM1287.79 13.37H1286.32V11.91H1287.79V13.37ZM1290.71 19.23H1289.25V17.76H1290.71V19.23ZM1290.71 16.3H1289.25V14.84H1290.71V16.3ZM1290.74 13.35H1289.27V11.89H1290.74V13.35ZM1290.74 10.42H1289.27V8.95996H1290.74V10.42ZM1293.64 22.15H1292.18V20.69H1293.64V22.15ZM1293.64 19.23H1292.18V17.76H1293.64V19.23ZM1293.66 16.28H1292.2V14.81H1293.66V16.28ZM1293.66 13.35H1292.2V11.89H1293.66V13.35ZM1293.68 10.4H1292.22V8.94H1293.68V10.4ZM1293.68 7.47998H1292.22V6.01001H1293.68V7.47998ZM1296.56 25.08H1295.1V23.62H1296.56V25.08ZM1296.56 22.15H1295.1V20.69H1296.56V22.15ZM1296.59 19.2H1295.13V17.74H1296.59V19.2ZM1296.59 16.28H1295.13V14.81H1296.59V16.28ZM1296.61 13.33H1295.15V11.87H1296.61V13.33ZM1296.61 10.4H1295.15V8.94H1296.61V10.4ZM1296.64 7.45001H1295.17V5.98999H1296.64V7.45001ZM1296.64 4.52997H1295.17V3.06H1296.64V4.52997ZM1299.52 22.13H1298.05V20.66H1299.52V22.13ZM1299.52 19.2H1298.05V17.74H1299.52V19.2ZM1299.54 16.25H1298.07V14.79H1299.54V16.25ZM1299.54 13.33H1298.07V11.87H1299.54V13.33ZM1299.56 10.38H1298.1V8.90997H1299.56V10.38ZM1299.56 7.45001H1298.1V5.98999H1299.56V7.45001ZM1302.46 19.18H1301V17.72H1302.46V19.18ZM1302.46 16.25H1301V14.79H1302.46V16.25ZM1302.49 13.3H1301.02V11.84H1302.49V13.3ZM1302.49 10.38H1301.02V8.90997H1302.49V10.38ZM1305.41 16.23H1303.95V14.77H1305.41V16.23ZM1303.95 13.3V11.84H1305.41V13.3H1303.95Z" fill="#D35433"/>
<path d="M1324.01 0L1309.94 14.07L1324.01 28.14L1338.08 14.07L1324.01 0ZM1315.93 16.3H1314.46V14.84H1315.93V16.3ZM1315.93 13.37H1314.46V11.91H1315.93V13.37ZM1318.85 19.23H1317.39V17.76H1318.85V19.23ZM1318.85 16.3H1317.39V14.84H1318.85V16.3ZM1318.88 13.35H1317.41V11.89H1318.88V13.35ZM1318.88 10.42H1317.41V8.95996H1318.88V10.42ZM1321.78 22.15H1320.32V20.69H1321.78V22.15ZM1321.78 19.23H1320.32V17.76H1321.78V19.23ZM1321.8 16.28H1320.34V14.81H1321.8V16.28ZM1321.8 13.35H1320.34V11.89H1321.8V13.35ZM1321.82 10.4H1320.36V8.94H1321.82V10.4ZM1321.82 7.47998H1320.36V6.01001H1321.82V7.47998ZM1324.7 25.08H1323.24V23.62H1324.7V25.08ZM1324.7 22.15H1323.24V20.69H1324.7V22.15ZM1324.73 19.2H1323.27V17.74H1324.73V19.2ZM1324.73 16.28H1323.27V14.81H1324.73V16.28ZM1324.75 13.33H1323.29V11.87H1324.75V13.33ZM1324.75 10.4H1323.29V8.94H1324.75V10.4ZM1324.78 7.45001H1323.31V5.98999H1324.78V7.45001ZM1324.78 4.52997H1323.31V3.06H1324.78V4.52997ZM1327.66 22.13H1326.19V20.66H1327.66V22.13ZM1327.66 19.2H1326.19V17.74H1327.66V19.2ZM1327.68 16.25H1326.21V14.79H1327.68V16.25ZM1327.68 13.33H1326.21V11.87H1327.68V13.33ZM1327.7 10.38H1326.24V8.90997H1327.7V10.38ZM1327.7 7.45001H1326.24V5.98999H1327.7V7.45001ZM1330.6 19.18H1329.14V17.72H1330.6V19.18ZM1330.6 16.25H1329.14V14.79H1330.6V16.25ZM1330.63 13.3H1329.16V11.84H1330.63V13.3ZM1330.63 10.38H1329.16V8.90997H1330.63V10.38ZM1333.55 16.23H1332.09V14.77H1333.55V16.23ZM1332.09 13.3V11.84H1333.55V13.3H1332.09Z" fill="#D35433"/>
<path d="M1352.15 0L1338.08 14.07L1352.15 28.14L1366.22 14.07L1352.15 0ZM1344.07 16.3H1342.6V14.84H1344.07V16.3ZM1344.07 13.37H1342.6V11.91H1344.07V13.37ZM1346.99 19.23H1345.53V17.76H1346.99V19.23ZM1346.99 16.3H1345.53V14.84H1346.99V16.3ZM1347.02 13.35H1345.55V11.89H1347.02V13.35ZM1347.02 10.42H1345.55V8.95996H1347.02V10.42ZM1349.92 22.15H1348.46V20.69H1349.92V22.15ZM1349.92 19.23H1348.46V17.76H1349.92V19.23ZM1349.94 16.28H1348.48V14.81H1349.94V16.28ZM1349.94 13.35H1348.48V11.89H1349.94V13.35ZM1349.96 10.4H1348.5V8.94H1349.96V10.4ZM1349.96 7.47998H1348.5V6.01001H1349.96V7.47998ZM1352.84 25.08H1351.38V23.62H1352.84V25.08ZM1352.84 22.15H1351.38V20.69H1352.84V22.15ZM1352.87 19.2H1351.41V17.74H1352.87V19.2ZM1352.87 16.28H1351.41V14.81H1352.87V16.28ZM1352.89 13.33H1351.43V11.87H1352.89V13.33ZM1352.89 10.4H1351.43V8.94H1352.89V10.4ZM1352.92 7.45001H1351.45V5.98999H1352.92V7.45001ZM1352.92 4.52997H1351.45V3.06H1352.92V4.52997ZM1355.8 22.13H1354.33V20.66H1355.8V22.13ZM1355.8 19.2H1354.33V17.74H1355.8V19.2ZM1355.82 16.25H1354.35V14.79H1355.82V16.25ZM1355.82 13.33H1354.35V11.87H1355.82V13.33ZM1355.84 10.38H1354.38V8.90997H1355.84V10.38ZM1355.84 7.45001H1354.38V5.98999H1355.84V7.45001ZM1358.74 19.18H1357.28V17.72H1358.74V19.18ZM1358.74 16.25H1357.28V14.79H1358.74V16.25ZM1358.77 13.3H1357.3V11.84H1358.77V13.3ZM1358.77 10.38H1357.3V8.90997H1358.77V10.38ZM1361.69 16.23H1360.23V14.77H1361.69V16.23ZM1360.23 13.3V11.84H1361.69V13.3H1360.23Z" fill="#D35433"/>
<path d="M1380.29 0L1366.22 14.07L1380.29 28.14L1394.36 14.07L1380.29 0ZM1372.21 16.3H1370.74V14.84H1372.21V16.3ZM1372.21 13.37H1370.74V11.91H1372.21V13.37ZM1375.13 19.23H1373.67V17.76H1375.13V19.23ZM1375.13 16.3H1373.67V14.84H1375.13V16.3ZM1375.16 13.35H1373.69V11.89H1375.16V13.35ZM1375.16 10.42H1373.69V8.95996H1375.16V10.42ZM1378.06 22.15H1376.6V20.69H1378.06V22.15ZM1378.06 19.23H1376.6V17.76H1378.06V19.23ZM1378.08 16.28H1376.62V14.81H1378.08V16.28ZM1378.08 13.35H1376.62V11.89H1378.08V13.35ZM1378.1 10.4H1376.64V8.94H1378.1V10.4ZM1378.1 7.47998H1376.64V6.01001H1378.1V7.47998ZM1380.98 25.08H1379.52V23.62H1380.98V25.08ZM1380.98 22.15H1379.52V20.69H1380.98V22.15ZM1381.01 19.2H1379.55V17.74H1381.01V19.2ZM1381.01 16.28H1379.55V14.81H1381.01V16.28ZM1381.03 13.33H1379.57V11.87H1381.03V13.33ZM1381.03 10.4H1379.57V8.94H1381.03V10.4ZM1381.06 7.45001H1379.59V5.98999H1381.06V7.45001ZM1381.06 4.52997H1379.59V3.06H1381.06V4.52997ZM1383.94 22.13H1382.47V20.66H1383.94V22.13ZM1383.94 19.2H1382.47V17.74H1383.94V19.2ZM1383.96 16.25H1382.49V14.79H1383.96V16.25ZM1383.96 13.33H1382.49V11.87H1383.96V13.33ZM1383.98 10.38H1382.52V8.90997H1383.98V10.38ZM1383.98 7.45001H1382.52V5.98999H1383.98V7.45001ZM1386.88 19.18H1385.42V17.72H1386.88V19.18ZM1386.88 16.25H1385.42V14.79H1386.88V16.25ZM1386.91 13.3H1385.44V11.84H1386.91V13.3ZM1386.91 10.38H1385.44V8.90997H1386.91V10.38ZM1389.83 16.23H1388.37V14.77H1389.83V16.23ZM1388.37 13.3V11.84H1389.83V13.3H1388.37Z" fill="#D35433"/>
<path d="M1408.43 0L1394.36 14.07L1408.43 28.14L1422.5 14.07L1408.43 0ZM1400.35 16.3H1398.88V14.84H1400.35V16.3ZM1400.35 13.37H1398.88V11.91H1400.35V13.37ZM1403.27 19.23H1401.81V17.76H1403.27V19.23ZM1403.27 16.3H1401.81V14.84H1403.27V16.3ZM1403.3 13.35H1401.83V11.89H1403.3V13.35ZM1403.3 10.42H1401.83V8.95996H1403.3V10.42ZM1406.2 22.15H1404.74V20.69H1406.2V22.15ZM1406.2 19.23H1404.74V17.76H1406.2V19.23ZM1406.22 16.28H1404.76V14.81H1406.22V16.28ZM1406.22 13.35H1404.76V11.89H1406.22V13.35ZM1406.24 10.4H1404.78V8.94H1406.24V10.4ZM1406.24 7.47998H1404.78V6.01001H1406.24V7.47998ZM1409.12 25.08H1407.66V23.62H1409.12V25.08ZM1409.12 22.15H1407.66V20.69H1409.12V22.15ZM1409.15 19.2H1407.69V17.74H1409.15V19.2ZM1409.15 16.28H1407.69V14.81H1409.15V16.28ZM1409.17 13.33H1407.71V11.87H1409.17V13.33ZM1409.17 10.4H1407.71V8.94H1409.17V10.4ZM1409.2 7.45001H1407.73V5.98999H1409.2V7.45001ZM1409.2 4.52997H1407.73V3.06H1409.2V4.52997ZM1412.08 22.13H1410.61V20.66H1412.08V22.13ZM1412.08 19.2H1410.61V17.74H1412.08V19.2ZM1412.1 16.25H1410.63V14.79H1412.1V16.25ZM1412.1 13.33H1410.63V11.87H1412.1V13.33ZM1412.12 10.38H1410.66V8.90997H1412.12V10.38ZM1412.12 7.45001H1410.66V5.98999H1412.12V7.45001ZM1415.02 19.18H1413.56V17.72H1415.02V19.18ZM1415.02 16.25H1413.56V14.79H1415.02V16.25ZM1415.05 13.3H1413.58V11.84H1415.05V13.3ZM1415.05 10.38H1413.58V8.90997H1415.05V10.38ZM1417.97 16.23H1416.51V14.77H1417.97V16.23ZM1416.51 13.3V11.84H1417.97V13.3H1416.51Z" fill="#D35433"/>
<path d="M1436.57 0L1422.5 14.07L1436.57 28.14L1450.64 14.07L1436.57 0ZM1428.49 16.3H1427.02V14.84H1428.49V16.3ZM1428.49 13.37H1427.02V11.91H1428.49V13.37ZM1431.41 19.23H1429.95V17.76H1431.41V19.23ZM1431.41 16.3H1429.95V14.84H1431.41V16.3ZM1431.44 13.35H1429.97V11.89H1431.44V13.35ZM1431.44 10.42H1429.97V8.95996H1431.44V10.42ZM1434.34 22.15H1432.88V20.69H1434.34V22.15ZM1434.34 19.23H1432.88V17.76H1434.34V19.23ZM1434.36 16.28H1432.9V14.81H1434.36V16.28ZM1434.36 13.35H1432.9V11.89H1434.36V13.35ZM1434.38 10.4H1432.92V8.94H1434.38V10.4ZM1434.38 7.47998H1432.92V6.01001H1434.38V7.47998ZM1437.26 25.08H1435.8V23.62H1437.26V25.08ZM1437.26 22.15H1435.8V20.69H1437.26V22.15ZM1437.29 19.2H1435.83V17.74H1437.29V19.2ZM1437.29 16.28H1435.83V14.81H1437.29V16.28ZM1437.31 13.33H1435.85V11.87H1437.31V13.33ZM1437.31 10.4H1435.85V8.94H1437.31V10.4ZM1437.34 7.45001H1435.87V5.98999H1437.34V7.45001ZM1437.34 4.52997H1435.87V3.06H1437.34V4.52997ZM1440.22 22.13H1438.75V20.66H1440.22V22.13ZM1440.22 19.2H1438.75V17.74H1440.22V19.2ZM1440.24 16.25H1438.77V14.79H1440.24V16.25ZM1440.24 13.33H1438.77V11.87H1440.24V13.33ZM1440.26 10.38H1438.8V8.90997H1440.26V10.38ZM1440.26 7.45001H1438.8V5.98999H1440.26V7.45001ZM1443.16 19.18H1441.7V17.72H1443.16V19.18ZM1443.16 16.25H1441.7V14.79H1443.16V16.25ZM1443.19 13.3H1441.72V11.84H1443.19V13.3ZM1443.19 10.38H1441.72V8.90997H1443.19V10.38ZM1446.11 16.23H1444.65V14.77H1446.11V16.23ZM1444.65 13.3V11.84H1446.11V13.3H1444.65Z" fill="#D35433"/>
</svg>
