<svg width="35" height="34" viewBox="0 0 35 34" fill="none" xmlns="http://www.w3.org/2000/svg">
<path d="M0.910015 16.7352L17.645 33.4702L34.38 16.7352L17.645 0.000212113L0.910015 16.7352Z" fill="#1C3F55"/>
<path d="M24.8095 10.2215L21.9567 13.0743C22.68 13.9309 23.1487 15.0111 23.2487 16.1936H27.2815C27.1697 13.8999 26.2537 11.8157 24.8095 10.2215ZM17.2076 11.1066V7.07373C14.914 7.18556 12.8297 8.10159 11.2356 9.54582L14.0884 12.3986C14.9449 11.6753 16.0251 11.2066 17.2076 11.1066ZM13.4126 13.0719L10.5599 10.2192C9.11563 11.8133 8.1996 13.8976 8.08777 16.1912H12.1183C12.2182 15.0087 12.6869 13.9285 13.4126 13.0719ZM17.2076 22.2346C16.0251 22.1347 14.9449 21.666 14.0884 20.9403L11.2356 23.793C12.8297 25.2373 14.914 26.1533 17.2076 26.2651V22.2346ZM12.1207 17.1477H8.09015C8.20198 19.4413 9.11801 21.5256 10.5622 23.1197L13.415 20.2669C12.6917 19.4104 12.223 18.3302 12.1207 17.1477ZM24.1361 23.7954L21.2834 20.9427C20.4268 21.666 19.3466 22.1347 18.1641 22.237V26.2675C20.4577 26.1557 22.542 25.2397 24.1361 23.7954ZM24.1361 9.5482C22.542 8.10397 20.4577 7.18794 18.1641 7.07611V11.109C19.3466 11.2089 20.4244 11.6777 21.2834 12.4034L24.1385 9.5482H24.1361ZM27.2839 17.1501H23.251C23.1511 18.3326 22.6824 19.4128 21.9591 20.2693L24.8118 23.1221C26.2561 21.528 27.1721 19.4437 27.2839 17.1501Z" fill="#5B94A4"/>
<path d="M13.2104 16.6292C13.2104 14.15 15.2281 12.1323 17.7073 12.1323C20.1865 12.1323 22.2042 14.15 22.2042 16.6292C22.2042 19.1084 20.1865 21.1261 17.7073 21.1261C15.2281 21.1261 13.2104 19.1084 13.2104 16.6292ZM21.0883 16.6292C21.0883 14.7638 19.5703 13.2458 17.7049 13.2458C15.8396 13.2458 14.3216 14.7638 14.3216 16.6292C14.3216 18.4946 15.8396 20.0126 17.7049 20.0126C19.5703 20.0126 21.0883 18.4946 21.0883 16.6292Z" fill="#5B94A4"/>
</svg>
