<svg width="197" height="29" viewBox="0 0 197 29" fill="none" xmlns="http://www.w3.org/2000/svg">
<path d="M14.07 0L0 14.07L14.07 28.14L28.14 14.07L14.07 0ZM5.98999 16.3H4.52002V14.84H5.98999V16.3ZM5.98999 13.37H4.52002V11.91H5.98999V13.37ZM8.90997 19.23H7.45001V17.76H8.90997V19.23ZM8.90997 16.3H7.45001V14.84H8.90997V16.3ZM8.94 13.35H7.46997V11.89H8.94V13.35ZM8.94 10.42H7.46997V8.95996H8.94V10.42ZM11.84 22.15H10.38V20.69H11.84V22.15ZM11.84 19.23H10.38V17.76H11.84V19.23ZM11.86 16.28H10.4V14.81H11.86V16.28ZM11.86 13.35H10.4V11.89H11.86V13.35ZM11.88 10.4H10.42V8.94H11.88V10.4ZM11.88 7.47998H10.42V6.01001H11.88V7.47998ZM14.76 25.08H13.3V23.62H14.76V25.08ZM14.76 22.15H13.3V20.69H14.76V22.15ZM14.79 19.2H13.33V17.74H14.79V19.2ZM14.79 16.28H13.33V14.81H14.79V16.28ZM14.81 13.33H13.35V11.87H14.81V13.33ZM14.81 10.4H13.35V8.94H14.81V10.4ZM14.84 7.45001H13.37V5.98999H14.84V7.45001ZM14.84 4.52997H13.37V3.06H14.84V4.52997ZM17.72 22.13H16.25V20.66H17.72V22.13ZM17.72 19.2H16.25V17.74H17.72V19.2ZM17.74 16.25H16.27V14.79H17.74V16.25ZM17.74 13.33H16.27V11.87H17.74V13.33ZM17.76 10.38H16.3V8.90997H17.76V10.38ZM17.76 7.45001H16.3V5.98999H17.76V7.45001ZM20.66 19.18H19.2V17.72H20.66V19.18ZM20.66 16.25H19.2V14.79H20.66V16.25ZM20.69 13.3H19.22V11.84H20.69V13.3ZM20.69 10.38H19.22V8.90997H20.69V10.38ZM23.61 16.23H22.15V14.77H23.61V16.23ZM22.15 13.3V11.84H23.61V13.3H22.15Z" fill="#F4BB58"/>
<path d="M42.21 0L28.14 14.07L42.21 28.14L56.28 14.07L42.21 0ZM34.13 16.3H32.66V14.84H34.13V16.3ZM34.13 13.37H32.66V11.91H34.13V13.37ZM37.05 19.23H35.59V17.76H37.05V19.23ZM37.05 16.3H35.59V14.84H37.05V16.3ZM37.08 13.35H35.61V11.89H37.08V13.35ZM37.08 10.42H35.61V8.95996H37.08V10.42ZM39.98 22.15H38.52V20.69H39.98V22.15ZM39.98 19.23H38.52V17.76H39.98V19.23ZM40 16.28H38.54V14.81H40V16.28ZM40 13.35H38.54V11.89H40V13.35ZM40.02 10.4H38.56V8.94H40.02V10.4ZM40.02 7.47998H38.56V6.01001H40.02V7.47998ZM42.9 25.08H41.44V23.62H42.9V25.08ZM42.9 22.15H41.44V20.69H42.9V22.15ZM42.93 19.2H41.47V17.74H42.93V19.2ZM42.93 16.28H41.47V14.81H42.93V16.28ZM42.95 13.33H41.49V11.87H42.95V13.33ZM42.95 10.4H41.49V8.94H42.95V10.4ZM42.98 7.45001H41.51V5.98999H42.98V7.45001ZM42.98 4.52997H41.51V3.06H42.98V4.52997ZM45.86 22.13H44.39V20.66H45.86V22.13ZM45.86 19.2H44.39V17.74H45.86V19.2ZM45.88 16.25H44.41V14.79H45.88V16.25ZM45.88 13.33H44.41V11.87H45.88V13.33ZM45.9 10.38H44.44V8.90997H45.9V10.38ZM45.9 7.45001H44.44V5.98999H45.9V7.45001ZM48.8 19.18H47.34V17.72H48.8V19.18ZM48.8 16.25H47.34V14.79H48.8V16.25ZM48.83 13.3H47.36V11.84H48.83V13.3ZM48.83 10.38H47.36V8.90997H48.83V10.38ZM51.75 16.23H50.29V14.77H51.75V16.23ZM50.29 13.3V11.84H51.75V13.3H50.29Z" fill="#F4BB58"/>
<path d="M70.35 0L56.28 14.07L70.35 28.14L84.42 14.07L70.35 0ZM62.2701 16.3H60.8V14.84H62.2701V16.3ZM62.2701 13.37H60.8V11.91H62.2701V13.37ZM65.1901 19.23H63.73V17.76H65.1901V19.23ZM65.1901 16.3H63.73V14.84H65.1901V16.3ZM65.22 13.35H63.7501V11.89H65.22V13.35ZM65.22 10.42H63.7501V8.95996H65.22V10.42ZM68.1201 22.15H66.66V20.69H68.1201V22.15ZM68.1201 19.23H66.66V17.76H68.1201V19.23ZM68.1401 16.28H66.6801V14.81H68.1401V16.28ZM68.1401 13.35H66.6801V11.89H68.1401V13.35ZM68.16 10.4H66.7001V8.94H68.16V10.4ZM68.16 7.47998H66.7001V6.01001H68.16V7.47998ZM71.04 25.08H69.5801V23.62H71.04V25.08ZM71.04 22.15H69.5801V20.69H71.04V22.15ZM71.0701 19.2H69.61V17.74H71.0701V19.2ZM71.0701 16.28H69.61V14.81H71.0701V16.28ZM71.09 13.33H69.6301V11.87H71.09V13.33ZM71.09 10.4H69.6301V8.94H71.09V10.4ZM71.1201 7.45001H69.6501V5.98999H71.1201V7.45001ZM71.1201 4.52997H69.6501V3.06H71.1201V4.52997ZM74.0001 22.13H72.53V20.66H74.0001V22.13ZM74.0001 19.2H72.53V17.74H74.0001V19.2ZM74.0201 16.25H72.55V14.79H74.0201V16.25ZM74.0201 13.33H72.55V11.87H74.0201V13.33ZM74.04 10.38H72.5801V8.90997H74.04V10.38ZM74.04 7.45001H72.5801V5.98999H74.04V7.45001ZM76.9401 19.18H75.48V17.72H76.9401V19.18ZM76.9401 16.25H75.48V14.79H76.9401V16.25ZM76.97 13.3H75.5001V11.84H76.97V13.3ZM76.97 10.38H75.5001V8.90997H76.97V10.38ZM79.8901 16.23H78.4301V14.77H79.8901V16.23ZM78.4301 13.3V11.84H79.8901V13.3H78.4301Z" fill="#F4BB58"/>
<path d="M98.4899 0L84.4199 14.07L98.4899 28.14L112.56 14.07L98.4899 0ZM90.4099 16.3H88.9399V14.84H90.4099V16.3ZM90.4099 13.37H88.9399V11.91H90.4099V13.37ZM93.33 19.23H91.8699V17.76H93.33V19.23ZM93.33 16.3H91.8699V14.84H93.33V16.3ZM93.3599 13.35H91.89V11.89H93.3599V13.35ZM93.3599 10.42H91.89V8.95996H93.3599V10.42ZM96.2599 22.15H94.7999V20.69H96.2599V22.15ZM96.2599 19.23H94.7999V17.76H96.2599V19.23ZM96.2799 16.28H94.8199V14.81H96.2799V16.28ZM96.2799 13.35H94.8199V11.89H96.2799V13.35ZM96.2999 10.4H94.8399V8.94H96.2999V10.4ZM96.2999 7.47998H94.8399V6.01001H96.2999V7.47998ZM99.1799 25.08H97.7199V23.62H99.1799V25.08ZM99.1799 22.15H97.7199V20.69H99.1799V22.15ZM99.21 19.2H97.7499V17.74H99.21V19.2ZM99.21 16.28H97.7499V14.81H99.21V16.28ZM99.2299 13.33H97.77V11.87H99.2299V13.33ZM99.2299 10.4H97.77V8.94H99.2299V10.4ZM99.2599 7.45001H97.7899V5.98999H99.2599V7.45001ZM99.2599 4.52997H97.7899V3.06H99.2599V4.52997ZM102.14 22.13H100.67V20.66H102.14V22.13ZM102.14 19.2H100.67V17.74H102.14V19.2ZM102.16 16.25H100.69V14.79H102.16V16.25ZM102.16 13.33H100.69V11.87H102.16V13.33ZM102.18 10.38H100.72V8.90997H102.18V10.38ZM102.18 7.45001H100.72V5.98999H102.18V7.45001ZM105.08 19.18H103.62V17.72H105.08V19.18ZM105.08 16.25H103.62V14.79H105.08V16.25ZM105.11 13.3H103.64V11.84H105.11V13.3ZM105.11 10.38H103.64V8.90997H105.11V10.38ZM108.03 16.23H106.57V14.77H108.03V16.23ZM106.57 13.3V11.84H108.03V13.3H106.57Z" fill="#F4BB58"/>
<path d="M126.63 0L112.56 14.07L126.63 28.14L140.7 14.07L126.63 0ZM118.55 16.3H117.08V14.84H118.55V16.3ZM118.55 13.37H117.08V11.91H118.55V13.37ZM121.47 19.23H120.01V17.76H121.47V19.23ZM121.47 16.3H120.01V14.84H121.47V16.3ZM121.5 13.35H120.03V11.89H121.5V13.35ZM121.5 10.42H120.03V8.95996H121.5V10.42ZM124.4 22.15H122.94V20.69H124.4V22.15ZM124.4 19.23H122.94V17.76H124.4V19.23ZM124.42 16.28H122.96V14.81H124.42V16.28ZM124.42 13.35H122.96V11.89H124.42V13.35ZM124.44 10.4H122.98V8.94H124.44V10.4ZM124.44 7.47998H122.98V6.01001H124.44V7.47998ZM127.32 25.08H125.86V23.62H127.32V25.08ZM127.32 22.15H125.86V20.69H127.32V22.15ZM127.35 19.2H125.89V17.74H127.35V19.2ZM127.35 16.28H125.89V14.81H127.35V16.28ZM127.37 13.33H125.91V11.87H127.37V13.33ZM127.37 10.4H125.91V8.94H127.37V10.4ZM127.4 7.45001H125.93V5.98999H127.4V7.45001ZM127.4 4.52997H125.93V3.06H127.4V4.52997ZM130.28 22.13H128.81V20.66H130.28V22.13ZM130.28 19.2H128.81V17.74H130.28V19.2ZM130.3 16.25H128.83V14.79H130.3V16.25ZM130.3 13.33H128.83V11.87H130.3V13.33ZM130.32 10.38H128.86V8.90997H130.32V10.38ZM130.32 7.45001H128.86V5.98999H130.32V7.45001ZM133.22 19.18H131.76V17.72H133.22V19.18ZM133.22 16.25H131.76V14.79H133.22V16.25ZM133.25 13.3H131.78V11.84H133.25V13.3ZM133.25 10.38H131.78V8.90997H133.25V10.38ZM136.17 16.23H134.71V14.77H136.17V16.23ZM134.71 13.3V11.84H136.17V13.3H134.71Z" fill="#F4BB58"/>
<path d="M154.77 0L140.7 14.07L154.77 28.14L168.84 14.07L154.77 0ZM146.69 16.3H145.22V14.84H146.69V16.3ZM146.69 13.37H145.22V11.91H146.69V13.37ZM149.61 19.23H148.15V17.76H149.61V19.23ZM149.61 16.3H148.15V14.84H149.61V16.3ZM149.64 13.35H148.17V11.89H149.64V13.35ZM149.64 10.42H148.17V8.95996H149.64V10.42ZM152.54 22.15H151.08V20.69H152.54V22.15ZM152.54 19.23H151.08V17.76H152.54V19.23ZM152.56 16.28H151.1V14.81H152.56V16.28ZM152.56 13.35H151.1V11.89H152.56V13.35ZM152.58 10.4H151.12V8.94H152.58V10.4ZM152.58 7.47998H151.12V6.01001H152.58V7.47998ZM155.46 25.08H154V23.62H155.46V25.08ZM155.46 22.15H154V20.69H155.46V22.15ZM155.49 19.2H154.03V17.74H155.49V19.2ZM155.49 16.28H154.03V14.81H155.49V16.28ZM155.51 13.33H154.05V11.87H155.51V13.33ZM155.51 10.4H154.05V8.94H155.51V10.4ZM155.54 7.45001H154.07V5.98999H155.54V7.45001ZM155.54 4.52997H154.07V3.06H155.54V4.52997ZM158.42 22.13H156.95V20.66H158.42V22.13ZM158.42 19.2H156.95V17.74H158.42V19.2ZM158.44 16.25H156.97V14.79H158.44V16.25ZM158.44 13.33H156.97V11.87H158.44V13.33ZM158.46 10.38H157V8.90997H158.46V10.38ZM158.46 7.45001H157V5.98999H158.46V7.45001ZM161.36 19.18H159.9V17.72H161.36V19.18ZM161.36 16.25H159.9V14.79H161.36V16.25ZM161.39 13.3H159.92V11.84H161.39V13.3ZM161.39 10.38H159.92V8.90997H161.39V10.38ZM164.31 16.23H162.85V14.77H164.31V16.23ZM162.85 13.3V11.84H164.31V13.3H162.85Z" fill="#F4BB58"/>
<path d="M182.91 0L168.84 14.07L182.91 28.14L196.98 14.07L182.91 0ZM174.83 16.3H173.36V14.84H174.83V16.3ZM174.83 13.37H173.36V11.91H174.83V13.37ZM177.75 19.23H176.29V17.76H177.75V19.23ZM177.75 16.3H176.29V14.84H177.75V16.3ZM177.78 13.35H176.31V11.89H177.78V13.35ZM177.78 10.42H176.31V8.95996H177.78V10.42ZM180.68 22.15H179.22V20.69H180.68V22.15ZM180.68 19.23H179.22V17.76H180.68V19.23ZM180.7 16.28H179.24V14.81H180.7V16.28ZM180.7 13.35H179.24V11.89H180.7V13.35ZM180.72 10.4H179.26V8.94H180.72V10.4ZM180.72 7.47998H179.26V6.01001H180.72V7.47998ZM183.6 25.08H182.14V23.62H183.6V25.08ZM183.6 22.15H182.14V20.69H183.6V22.15ZM183.63 19.2H182.17V17.74H183.63V19.2ZM183.63 16.28H182.17V14.81H183.63V16.28ZM183.65 13.33H182.19V11.87H183.65V13.33ZM183.65 10.4H182.19V8.94H183.65V10.4ZM183.68 7.45001H182.21V5.98999H183.68V7.45001ZM183.68 4.52997H182.21V3.06H183.68V4.52997ZM186.56 22.13H185.09V20.66H186.56V22.13ZM186.56 19.2H185.09V17.74H186.56V19.2ZM186.58 16.25H185.11V14.79H186.58V16.25ZM186.58 13.33H185.11V11.87H186.58V13.33ZM186.6 10.38H185.14V8.90997H186.6V10.38ZM186.6 7.45001H185.14V5.98999H186.6V7.45001ZM189.5 19.18H188.04V17.72H189.5V19.18ZM189.5 16.25H188.04V14.79H189.5V16.25ZM189.53 13.3H188.06V11.84H189.53V13.3ZM189.53 10.38H188.06V8.90997H189.53V10.38ZM192.45 16.23H190.99V14.77H192.45V16.23ZM190.99 13.3V11.84H192.45V13.3H190.99Z" fill="#F4BB58"/>
</svg>
