<svg width="201" height="35" viewBox="0 0 201 35" fill="none" xmlns="http://www.w3.org/2000/svg">
<path d="M200.97 28.6H0V34.6H200.97V28.6Z" fill="#F4BB58"/>
<path d="M200.97 6.08008H0V7.08008H200.97V6.08008Z" fill="#F4BB58"/>
<path d="M200.97 0H0V3H200.97V0Z" fill="#F4BB58"/>
<path d="M200.97 22.7001V12.04H193.035V22.7001H200.97Z" fill="#F4BB58"/>
<path d="M190.92 22.71V12.05H182.985V22.71H190.92Z" fill="#F4BB58"/>
<path d="M180.871 22.7V12.04H172.935V22.7H180.871Z" fill="#F4BB58"/>
<path d="M170.829 22.7V12.04H162.893V22.7H170.829Z" fill="#F4BB58"/>
<path d="M160.779 22.7V12.04H152.844V22.7H160.779Z" fill="#F4BB58"/>
<path d="M150.729 22.7V12.04H142.794V22.7H150.729Z" fill="#F4BB58"/>
<path d="M140.68 22.7V12.04H132.744V22.7H140.68Z" fill="#F4BB58"/>
<path d="M130.63 22.7V12.04H122.695V22.7H130.63Z" fill="#F4BB58"/>
<path d="M120.581 22.71V12.05H112.645V22.71H120.581Z" fill="#F4BB58"/>
<path d="M110.531 22.7V12.04H102.596V22.7H110.531Z" fill="#F4BB58"/>
<path d="M100.489 22.7V12.04H92.5533V22.7H100.489Z" fill="#F4BB58"/>
<path d="M90.4392 22.7V12.04H82.5037V22.7H90.4392Z" fill="#F4BB58"/>
<path d="M80.3895 22.7V12.04H72.454V22.7H80.3895Z" fill="#F4BB58"/>
<path d="M70.34 22.7V12.04H62.4045V22.7H70.34Z" fill="#F4BB58"/>
<path d="M60.2903 22.7V12.04H52.3548V22.7H60.2903Z" fill="#F4BB58"/>
<path d="M50.2407 22.71V12.05H42.3052V22.71H50.2407Z" fill="#F4BB58"/>
<path d="M40.1912 22.7V12.04H32.2557V22.7H40.1912Z" fill="#F4BB58"/>
<path d="M30.1489 22.7V12.04H22.2134V22.7H30.1489Z" fill="#F4BB58"/>
<path d="M20.0994 22.7V12.04H12.1639V22.7H20.0994Z" fill="#F4BB58"/>
<path d="M10.0497 22.7V12.04H2.11418L2.11418 22.7H10.0497Z" fill="#F4BB58"/>
</svg>
