<svg width="221" height="221" viewBox="0 0 221 221" fill="none" xmlns="http://www.w3.org/2000/svg">
<path d="M0.951954 110.522L110.956 220.527L220.96 110.522L110.956 0.517644L0.951954 110.522Z" fill="#5B94A4"/>
<path d="M112.253 66.4864V97.1198C112.253 97.3265 112.382 97.5074 112.576 97.5979C112.615 97.6108 112.641 97.6237 112.679 97.6495C112.873 97.74 113.106 97.7012 113.248 97.5591L136.904 74.8328C143.48 68.5149 141.581 57.6104 133.312 53.7473C133.067 53.631 132.821 53.5277 132.576 53.4114C123.041 49.122 112.24 56.0342 112.24 66.4994L112.253 66.4864Z" fill="#F5BC58"/>
<path d="M58.79 83.6959C58.7125 83.8897 58.635 84.0964 58.5575 84.2902C55.4567 92.572 61.7487 101.371 70.5989 101.371H103.958C104.023 101.215 104.023 101.203 104.087 101.06L81.9426 78.9155C74.7462 71.7191 62.4593 74.1997 58.7771 83.683L58.79 83.6959Z" fill="#F5BC58"/>
<path d="M161.711 83.2954C161.892 83.7605 162.072 84.2256 162.24 84.6907C165.212 92.8045 159.114 101.396 150.47 101.396H116.697C116.633 101.241 116.633 101.228 116.568 101.086L139.023 78.6312C146.064 71.5898 158.041 74.0447 161.711 83.3083V83.2954Z" fill="#F5BC58"/>
<path d="M83.519 74.3031L106.788 97.572C106.943 97.727 107.175 97.7658 107.369 97.6754C107.447 97.6366 107.511 97.6108 107.589 97.5849C107.77 97.5074 107.886 97.3136 107.886 97.1198V65.2074C107.886 55.6207 98.1701 49.0315 89.2941 52.6491C88.6481 52.9075 88.0151 53.1917 87.382 53.476C79.1778 57.1969 77.1494 67.9335 83.5319 74.3031H83.519Z" fill="#F5BC58"/>
<path d="M112.253 151.642V120.453C112.253 120.247 112.382 120.066 112.576 119.975C112.615 119.962 112.641 119.949 112.679 119.924C112.873 119.833 113.106 119.872 113.248 120.014L137.279 143.102C143.532 149.11 141.995 159.588 134.204 163.399C133.351 163.813 132.486 164.213 131.607 164.588C122.434 168.503 112.253 161.604 112.253 151.629V151.642Z" fill="#F5BC58"/>
<path d="M59.1262 134.717C58.829 133.981 58.5447 133.231 58.2734 132.482C55.4439 124.549 61.3225 116.19 69.7593 116.19H103.971C104.036 116.345 104.036 116.358 104.101 116.5L81.3097 139.291C74.4234 146.177 62.7954 143.748 59.1262 134.717Z" fill="#F5BC58"/>
<path d="M161.543 134.704C161.84 133.968 162.124 133.231 162.395 132.482C165.225 124.536 159.346 116.177 150.91 116.177H116.71C116.646 116.332 116.646 116.345 116.581 116.487L139.359 139.265C146.245 146.151 157.886 143.722 161.556 134.691L161.543 134.704Z" fill="#F5BC58"/>
<path d="M82.4726 144.317L106.788 120.001C106.943 119.846 107.175 119.807 107.369 119.898C107.447 119.937 107.511 119.962 107.589 119.988C107.77 120.066 107.886 120.26 107.886 120.453V153.89C107.886 162.547 99.2814 168.619 91.1418 165.635C89.2555 164.937 87.4209 164.149 85.6379 163.27C78.3769 159.666 76.749 150.04 82.4726 144.317Z" fill="#F5BC58"/>
<path d="M109.94 40.0263C71.4646 40.0263 40.1725 71.3186 40.1725 109.794C40.1725 148.27 71.4646 179.562 109.94 179.562C148.403 179.562 179.695 148.27 179.695 109.794C179.695 71.3186 148.403 40.0263 109.94 40.0263ZM109.94 45.2589C144.307 45.2589 172.486 72.2746 174.372 106.177H45.5084C47.3947 72.2746 75.5861 45.2589 109.94 45.2589ZM109.94 174.343C74.8884 174.343 46.2708 146.255 45.4181 111.396H174.45C173.597 146.255 144.992 174.343 109.94 174.343Z" fill="#F5BC58"/>
</svg>
