<svg width="137" height="56" viewBox="0 0 137 56" fill="none" xmlns="http://www.w3.org/2000/svg">
<g clip-path="url(#clip0_27_101)">
<path d="M59.3039 8.2051L57.4783 8.21533C57.2777 8.21533 57.1145 8.05164 57.1145 7.85043V6.0123C57.1145 5.81109 57.2777 5.6474 57.4783 5.6474L59.3039 5.65763C59.5045 5.65763 59.6643 5.82132 59.6643 6.02253V7.84361C59.6643 8.04482 59.5045 8.2051 59.3039 8.20851V8.2051Z" fill="#1B3F55"/>
<path d="M73.0013 22.5657L71.1349 22.576C70.9445 22.576 70.7915 22.4225 70.7915 22.2349V20.3525C70.7915 20.1615 70.9445 20.0114 71.1349 20.0114L73.0013 20.0217C73.1883 20.0217 73.3413 20.1751 73.3413 20.3627V22.2281C73.3413 22.4157 73.1883 22.5691 73.0013 22.5691V22.5657Z" fill="#1B3F55"/>
<path d="M58.9946 11.2641V18.1801C58.9946 18.4257 58.7975 18.6269 58.5493 18.6269H58.2637C58.0189 18.6269 57.8184 18.4291 57.8184 18.1801V11.2641C57.8184 11.2232 57.7844 11.1891 57.7436 11.1891H54.8538C54.813 11.1891 54.7791 11.2232 54.7791 11.2641V18.7906C54.7791 20.98 56.2953 22.5726 58.3827 22.5726C60.4701 22.5726 61.9864 20.9766 61.9864 18.7906V11.2641C61.9864 11.2232 61.9524 11.1891 61.9116 11.1891H59.0626C59.0218 11.1891 58.9878 11.2232 58.9878 11.2641H58.9946Z" fill="#1B3F55"/>
<path d="M77.3698 15.4314V18.1665C77.3698 18.4188 77.1658 18.6269 76.9108 18.6269H63.7031C63.4515 18.6269 63.2441 18.4223 63.2441 18.1665V6.10437C63.2441 5.85201 63.4481 5.64398 63.7031 5.64398H66.3004C66.552 5.64398 66.7594 5.8486 66.7594 6.10437V15.1791C66.7594 15.4314 66.9634 15.6395 67.2184 15.6395H73.4024C73.6539 15.6395 73.8613 15.4349 73.8613 15.1791V15.1245C73.8613 14.7187 73.5349 14.3913 73.1304 14.3913H68.3573C68.1057 14.3913 67.8983 14.1867 67.8983 13.9309V11.6495C67.8983 11.3971 68.1023 11.1891 68.3573 11.1891H73.1474C75.483 11.1891 77.3766 13.0886 77.3766 15.4314H77.3698Z" fill="#1B3F55"/>
<path d="M99.274 11.1925H94.2459C92.1245 11.1925 90.4043 12.9147 90.4043 15.0461C90.4043 15.087 90.3703 15.1245 90.3261 15.1245H90.0337C89.9929 15.1245 89.9623 15.087 89.9623 15.0461V11.2675C89.9623 11.2266 89.9283 11.1959 89.8841 11.1959H86.7802C84.6588 11.1959 82.9318 12.9181 82.9318 15.0495C82.9318 15.0904 82.8978 15.1279 82.8604 15.1279H82.568C82.5238 15.1279 82.4898 15.0904 82.4898 15.0495V11.2709C82.4898 11.23 82.4558 11.1993 82.4184 11.1993H80.484C79.6545 11.1993 78.9814 11.8745 78.9814 12.7066V19.3362C78.9814 19.8682 78.5496 20.2911 78.0295 20.2911H76.3194C76.1053 20.2911 75.9285 20.4684 75.9285 20.6832V22.1906C75.9285 22.4054 76.1053 22.5759 76.3194 22.5759H79.063C81.0552 22.5316 82.4932 20.9527 82.4932 18.7974V18.6269H82.8672C82.9046 18.6269 82.9386 18.6678 82.9386 18.7053V22.5043C82.9386 22.5453 82.9726 22.5759 83.0168 22.5759H86.1207C88.2421 22.5759 89.9657 20.8538 89.9657 18.7223V18.7019C89.9657 18.661 89.9997 18.6234 90.0371 18.6234H99.2774C99.3182 18.6234 99.3488 18.5893 99.3488 18.5518V11.2675C99.3488 11.2266 99.3148 11.1959 99.2774 11.1959L99.274 11.1925ZM87.4058 18.2927C87.4058 18.8178 86.9876 19.2373 86.4641 19.2373H85.5563C85.5189 19.2373 85.4849 19.2032 85.4849 19.1657V18.2108C85.4849 18.1699 85.5189 18.1324 85.5563 18.1324H87.3344C87.3752 18.1324 87.4058 18.1733 87.4058 18.2108V18.2961V18.2927ZM87.4058 15.561C87.4058 15.5985 87.3718 15.6395 87.3344 15.6395H85.5563C85.5189 15.6395 85.4849 15.5985 85.4849 15.561V15.2541C85.4849 14.7767 85.8691 14.3879 86.3485 14.3879H87.3344C87.3752 14.3879 87.4058 14.422 87.4058 14.4595V15.561ZM95.8369 15.561C95.8369 15.5985 95.803 15.6395 95.7588 15.6395H93.9875C93.9433 15.6395 93.9093 15.5985 93.9093 15.561V15.2064C93.9093 14.7528 94.2833 14.3879 94.7321 14.3879H95.7588C95.803 14.3879 95.8369 14.422 95.8369 14.4595V15.561Z" fill="#1B3F55"/>
<path d="M11.6235 11.6358V18.1835C11.6235 18.4291 11.4263 18.6269 11.1816 18.6269H0.900942C0.656165 18.6269 0.458984 18.4291 0.458984 18.1835V14.9745C0.458984 13.0511 1.68967 11.5847 3.47109 11.2607C3.74307 11.2095 3.99464 11.421 3.99464 11.6972V14.3913H3.97085V15.1961C3.97085 15.4417 4.16803 15.6395 4.4128 15.6395H7.66969C7.91447 15.6395 8.11165 15.4417 8.11165 15.1961V11.6358C8.11165 11.3903 8.30883 11.1925 8.5536 11.1925H11.1816C11.4263 11.1925 11.6235 11.3903 11.6235 11.6358Z" fill="#1B3F55"/>
<path d="M7.03743 22.5657L5.07922 22.576C4.91603 22.576 4.78345 22.443 4.78345 22.2793V20.3047C4.78345 20.141 4.91603 20.008 5.07922 20.008L7.03743 20.0183C7.20061 20.0183 7.3298 20.1513 7.3298 20.315V22.269C7.3298 22.4327 7.19722 22.5623 7.03743 22.5657Z" fill="#1B3F55"/>
<path d="M40.4358 5.65763L38.6203 5.6474C38.4164 5.6474 38.2532 5.81109 38.2532 6.01571V7.84702C38.2532 8.05164 38.4198 8.21533 38.6203 8.21533L40.4358 8.2051C40.6363 8.2051 40.7995 8.04141 40.7995 7.83679V6.02594C40.7995 5.82473 40.6363 5.65763 40.4358 5.65763Z" fill="#1B3F55"/>
<path d="M36.3935 5.65763L34.5781 5.6474C34.3741 5.6474 34.2109 5.81109 34.2109 6.01571V7.84702C34.2109 8.05164 34.3775 8.21533 34.5781 8.21533L36.3935 8.2051C36.5941 8.2051 36.7573 8.04141 36.7573 7.83679V6.02594C36.7573 5.82473 36.5941 5.65763 36.3935 5.65763Z" fill="#1B3F55"/>
<path d="M32.3852 5.65763L30.5698 5.6474C30.3658 5.6474 30.2026 5.81109 30.2026 6.01571V7.84702C30.2026 8.05164 30.3692 8.21533 30.5698 8.21533L32.3852 8.2051C32.5858 8.2051 32.749 8.04141 32.749 7.83679V6.02594C32.749 5.82473 32.5858 5.65763 32.3852 5.65763Z" fill="#1B3F55"/>
<path d="M45.967 5.64398V18.6303H49.4823V5.64398H45.967Z" fill="#1B3F55"/>
<path d="M44.8756 5.64398H42.0267C41.8431 5.64398 41.6935 5.79403 41.6935 5.97819V15.3087C41.6935 15.4928 41.5508 15.6429 41.3672 15.6429H41.17C40.9864 15.6429 40.8368 15.4928 40.8368 15.3087V11.5301C40.8368 11.3391 40.6872 11.1959 40.5037 11.1959H38.1579C37.9743 11.1959 37.8315 11.3391 37.8315 11.5301V15.3087C37.8315 15.4928 37.6819 15.6429 37.4984 15.6429H37.2434C37.0598 15.6429 36.917 15.4928 36.917 15.3087V11.5301C36.917 11.3391 36.7674 11.1959 36.5838 11.1959H34.3877C34.2041 11.1959 34.0545 11.3391 34.0545 11.5301V15.3087C34.0545 15.4928 33.9117 15.6429 33.7281 15.6429H33.5139C33.3304 15.6429 33.1808 15.4928 33.1808 15.3087V11.5301C33.1808 11.3391 33.038 11.1959 32.8544 11.1959H30.529C30.3454 11.1959 30.1959 11.3391 30.1959 11.5301V15.3087C30.1959 15.4928 30.0463 15.6429 29.8627 15.6429H25.6097C25.4261 15.6429 25.2765 15.4928 25.2765 15.3087V15.1245C25.2765 14.7051 25.6165 14.364 26.0347 14.364H28.8632C29.0468 14.364 29.1964 14.214 29.1964 14.0298V11.5267C29.1964 11.3357 29.0468 11.1925 28.8632 11.1925H25.8647C23.6039 11.1925 21.7647 13.034 21.7647 15.3053C21.7647 15.4894 21.6219 15.6395 21.4383 15.6395H21.2547C21.0711 15.6395 20.9216 15.4894 20.9216 15.3053V11.5267C20.9216 11.3357 20.7788 11.1925 20.5952 11.1925H16.4816C14.214 11.1925 12.3816 13.034 12.3816 15.3053V18.2927C12.3816 18.4768 12.5244 18.62 12.7079 18.62H17.0833C17.2669 18.62 17.4165 18.7701 17.4165 18.9543V19.8648C17.4165 20.0933 17.2261 20.2843 16.9983 20.2843H12.7521C12.5448 20.2843 12.3782 20.4548 12.3782 20.6628V22.1701C12.3782 22.3782 12.5414 22.5453 12.7521 22.5453H17.8516C19.6535 22.3372 20.9216 20.8163 20.9216 18.7906V18.62H44.8722C45.0558 18.62 45.2054 18.4768 45.2054 18.2927V5.97819C45.2054 5.79403 45.0558 5.64398 44.8722 5.64398H44.8756ZM17.5049 15.3087C17.5049 15.4928 17.3553 15.6429 17.1717 15.6429H15.9104C15.7269 15.6429 15.5841 15.4928 15.5841 15.3087V15.145C15.5841 14.7119 15.9308 14.364 16.3626 14.364H17.1717C17.3553 14.364 17.5049 14.5073 17.5049 14.6914V15.3087Z" fill="#1B3F55"/>
<path d="M2.67901 42.8261L0.802388 42.8159C0.615406 42.8159 0.46582 42.9659 0.46582 43.1535V45.0462C0.46582 45.2338 0.618806 45.3838 0.802388 45.3838L2.67901 45.3736C2.86259 45.3736 3.01217 45.2235 3.01217 45.036V43.1637C3.01217 42.9796 2.86259 42.8295 2.67901 42.8261Z" fill="#1B3F55"/>
<path d="M6.23516 42.8261L4.35854 42.8159C4.17156 42.8159 4.02197 42.9659 4.02197 43.1535V45.0462C4.02197 45.2338 4.17496 45.3838 4.35854 45.3838L6.23516 45.3736C6.41874 45.3736 6.56833 45.2235 6.56833 45.036V43.1637C6.56833 42.9796 6.41874 42.8295 6.23516 42.8261Z" fill="#1B3F55"/>
<path d="M17.9299 28.694V41.1994C17.9299 41.329 17.8245 41.4347 17.6953 41.4347H10.7634C10.6342 41.4347 10.5288 41.329 10.5288 41.1994V38.1677C10.5288 38.0381 10.4234 37.9324 10.2943 37.9324H9.68911C9.55993 37.9324 9.45454 38.0381 9.45454 38.1677V41.1994C9.45454 41.329 9.34915 41.4347 9.21996 41.4347H0.69698C0.567792 41.4347 0.462402 41.329 0.462402 41.1994V38.0177C0.462402 35.7976 2.25743 34.0004 4.46722 34.0004H5.6775C5.80669 34.0004 5.91208 34.1061 5.91208 34.2357V36.9639C5.91208 37.0935 5.80669 37.1992 5.6775 37.1992H4.94317C4.40602 37.1992 3.97426 37.6357 3.97426 38.1711V38.2086C3.97426 38.3382 4.07965 38.4439 4.20884 38.4439H6.12286C6.25204 38.4439 6.35743 38.3382 6.35743 38.2086V38.0177C6.35743 35.7976 8.15246 34.0004 10.3622 34.0004H13.2928C13.422 34.0004 13.5273 34.1061 13.5273 34.2357V38.2086C13.5273 38.3382 13.6327 38.4439 13.7619 38.4439H14.1801C14.3093 38.4439 14.4147 38.3382 14.4147 38.2086V28.6906C14.4147 28.561 14.52 28.4553 14.6492 28.4553H17.6919C17.8211 28.4553 17.9265 28.561 17.9265 28.6906L17.9299 28.694Z" fill="#1B3F55"/>
<path d="M39.2764 28.6326V41.2574C39.2764 41.3563 39.1982 41.4347 39.0996 41.4347H28.564C28.4654 41.4347 28.3872 41.3563 28.3872 41.2574V38.6213C28.3872 38.5224 28.4654 38.4439 28.564 38.4439H31.7257C31.8243 38.4439 31.9025 38.3655 31.9025 38.2666V38.0858C31.9025 37.5948 31.5047 37.1958 31.0152 37.1958H28.5674C28.4688 37.1958 28.3906 37.1173 28.3906 37.0184V34.1709C28.3906 34.072 28.4688 33.9935 28.5674 33.9935H31.4707C33.6499 33.9935 35.4177 35.7669 35.4177 37.9528V38.2632C35.4177 38.3621 35.4959 38.4405 35.5945 38.4405C35.6931 38.4405 35.7713 38.3621 35.7713 38.2632V28.6258C35.7713 28.5269 35.8495 28.4484 35.9481 28.4484H39.1098C39.2084 28.4484 39.2866 28.5269 39.2866 28.6258L39.2764 28.6326Z" fill="#1B3F55"/>
<path d="M40.0381 28.4586V41.4381H43.5533V28.4586H40.0381Z" fill="#1B3F55"/>
<path d="M60.2899 28.4655L58.4507 28.4553C58.2535 28.4553 58.0938 28.6155 58.0938 28.8133V30.6651C58.0938 30.8629 58.2535 31.0232 58.4507 31.0232L60.2899 31.013C60.4871 31.013 60.6435 30.8527 60.6435 30.6549V28.8202C60.6435 28.6224 60.4871 28.4655 60.2899 28.4621V28.4655Z" fill="#1B3F55"/>
<path d="M57.1825 28.4655L55.3433 28.4553C55.1461 28.4553 54.9863 28.6155 54.9863 28.8133V30.6651C54.9863 30.8629 55.1461 31.0232 55.3433 31.0232L57.1825 31.013C57.3797 31.013 57.5361 30.8527 57.5361 30.6549V28.8202C57.5361 28.6224 57.3797 28.4655 57.1825 28.4621V28.4655Z" fill="#1B3F55"/>
<path d="M53.861 28.4655L52.0218 28.4553C51.8246 28.4553 51.6648 28.6155 51.6648 28.8133V30.6651C51.6648 30.8629 51.8246 31.0232 52.0218 31.0232L53.861 31.013C54.0582 31.013 54.2145 30.8527 54.2145 30.6549V28.8202C54.2145 28.6224 54.0582 28.4655 53.861 28.4621V28.4655Z" fill="#1B3F55"/>
<path d="M74.9119 28.4655L73.1305 28.4553C72.9163 28.4553 72.7463 28.6258 72.7463 28.8406V30.6378C72.7463 30.8527 72.9197 31.0232 73.1305 31.0232L74.9119 31.013C75.1227 31.013 75.2927 30.839 75.2927 30.6276V28.8509C75.2927 28.6394 75.1227 28.4689 74.9119 28.4655Z" fill="#1B3F55"/>
<path d="M78.4678 28.4655L76.6864 28.4553C76.4722 28.4553 76.3022 28.6258 76.3022 28.8406V30.6378C76.3022 30.8527 76.4756 31.0232 76.6864 31.0232L78.4678 31.013C78.6786 31.013 78.8486 30.839 78.8486 30.6276V28.8509C78.8486 28.6394 78.6786 28.4689 78.4678 28.4655Z" fill="#1B3F55"/>
<path d="M57.1314 34.4744V37.9733C57.1314 38.2359 56.9206 38.4473 56.6589 38.4473H53.4632C53.2014 38.4473 52.9906 38.2359 52.9906 37.9733V37.1992H52.9974V34.546C52.9974 34.2493 52.7289 34.0208 52.4365 34.0788C50.6856 34.4232 49.4788 35.876 49.4788 37.7823V40.9607C49.4788 41.2233 49.6895 41.4347 49.9513 41.4347H60.1707C60.4325 41.4347 60.6433 41.2233 60.6433 40.9607V34.4744C60.6433 34.2118 60.4325 34.0003 60.1707 34.0003H57.604C57.3422 34.0003 57.1314 34.2118 57.1314 34.4744Z" fill="#1B3F55"/>
<path d="M61.3982 28.4586V41.4381H64.9135V28.4586H61.3982Z" fill="#1B3F55"/>
<path d="M83.377 28.8849V41.005C83.377 41.2472 83.1866 41.4381 82.9521 41.4381H69.7069V41.8576C69.6015 43.8765 68.1975 45.3293 66.2903 45.377H63.5467C63.3325 45.377 63.1558 45.2065 63.1558 44.9916V43.4843C63.1558 43.2695 63.3325 43.0921 63.5467 43.0921H65.2568C65.7803 43.0921 66.2087 42.6658 66.2087 42.1372V35.5077C66.2087 34.6756 66.8818 34.0003 67.7113 34.0003H69.6457C69.6729 34.0003 69.6967 34.014 69.7035 34.0413V38.4576H72.3349C72.5695 38.4576 72.7666 38.2598 72.7666 38.0245V34.4335C72.7666 34.1981 72.957 34.0072 73.1916 34.0072H75.8501C76.0847 34.0072 76.2751 34.1981 76.2751 34.4335V38.0245C76.2751 38.2598 76.4723 38.4576 76.7069 38.4576H79.4368C79.6714 38.4576 79.8618 38.2598 79.8618 38.0245V28.8918C79.8618 28.6565 80.0521 28.4655 80.2935 28.4655H82.9521C83.1866 28.4655 83.377 28.6565 83.377 28.8918V28.8849Z" fill="#1B3F55"/>
<path d="M87.817 28.4586H85.376C85.0837 28.4586 84.8423 28.694 84.8423 28.9975V40.9027C84.8423 41.196 85.0837 41.4415 85.376 41.4415H87.817C88.1094 41.4415 88.3542 41.1994 88.3542 40.9027V28.9975C88.3542 28.6974 88.1128 28.4586 87.817 28.4586Z" fill="#1B3F55"/>
<path d="M27.1057 34.0106H22.9921C20.7245 34.0106 18.8921 35.8521 18.8921 38.1234V41.1108C18.8921 41.2949 19.0349 41.4381 19.2185 41.4381H23.5938C23.7774 41.4381 23.927 41.5882 23.927 41.7723V42.6829C23.927 42.9114 23.7366 43.1024 23.5088 43.1024H19.2627C19.0553 43.1024 18.8921 43.2729 18.8921 43.4809V44.9882C18.8921 45.1963 19.0553 45.3599 19.2627 45.3599H24.3622C26.164 45.1519 27.4321 43.6309 27.4321 41.6052V34.3414C27.4321 34.1504 27.2893 34.0072 27.1057 34.0072V34.0106ZM24.0086 38.1234C24.0086 38.3075 23.859 38.4576 23.6754 38.4576H22.4142C22.2306 38.4576 22.0878 38.3075 22.0878 38.1234V37.9597C22.0878 37.5266 22.4345 37.1787 22.8663 37.1787H23.6754C23.859 37.1787 24.0086 37.322 24.0086 37.5061V38.1234Z" fill="#1B3F55"/>
<path d="M99.0188 34.0106H94.9052C92.6376 34.0106 90.8052 35.8521 90.8052 38.1234V41.1108C90.8052 41.2949 90.948 41.4381 91.1315 41.4381H95.5069C95.6905 41.4381 95.8401 41.5882 95.8401 41.7723V42.6829C95.8401 42.9114 95.6497 43.1024 95.4219 43.1024H91.1757C90.9684 43.1024 90.8052 43.2729 90.8052 43.4809V44.9882C90.8052 45.1963 90.9684 45.3599 91.1757 45.3599H96.2752C98.0771 45.1519 99.3452 43.6309 99.3452 41.6052V34.3414C99.3452 34.1504 99.2024 34.0072 99.0188 34.0072V34.0106ZM95.9217 38.1234C95.9217 38.3075 95.7721 38.4576 95.5885 38.4576H94.3272C94.1436 38.4576 94.0009 38.3075 94.0009 38.1234V37.9597C94.0009 37.5266 94.3476 37.1787 94.7794 37.1787H95.5885C95.7721 37.1787 95.9217 37.322 95.9217 37.5061V38.1234Z" fill="#1B3F55"/>
<path d="M136.99 45.8306V55.4066C136.99 55.734 136.728 56 136.408 56H109.32C108.997 56 108.739 55.734 108.739 55.4066V45.8306C108.739 45.5032 109 45.2372 109.32 45.2372H115.212C115.534 45.2372 115.793 45.5032 115.793 45.8306V48.9203C115.793 49.2477 116.055 49.5137 116.374 49.5137H118.713C119.05 49.5137 119.322 49.2375 119.325 48.8964L119.349 45.8545C119.349 45.5134 119.624 45.2372 119.961 45.2372H125.829C126.152 45.2372 126.41 45.5032 126.41 45.8306V48.9203C126.41 49.2477 126.672 49.5137 126.991 49.5137H129.354C129.677 49.5137 129.935 49.2477 129.935 48.9203V45.8306C129.935 45.5032 130.197 45.2372 130.517 45.2372H136.398C136.721 45.2372 136.98 45.5032 136.98 45.8306H136.99Z" fill="#1B3F55"/>
<path d="M125.57 40.9641H120.195C119.73 40.9641 119.352 40.5822 119.352 40.1082V34.6449C119.352 34.1709 119.73 33.7889 120.195 33.7889H125.57C126.036 33.7889 126.413 34.1709 126.413 34.6449V40.1082C126.413 40.5822 126.036 40.9641 125.57 40.9641Z" fill="#1B3F55"/>
<path d="M114.95 40.9607H109.575C109.109 40.9607 108.732 40.5788 108.732 40.1047V34.6415C108.732 34.1675 109.109 33.7855 109.575 33.7855H114.95C115.415 33.7855 115.793 34.1675 115.793 34.6415V40.1047C115.793 40.5788 115.415 40.9607 114.95 40.9607Z" fill="#D35433"/>
<path d="M136.157 40.9607H130.782C130.316 40.9607 129.939 40.5788 129.939 40.1047V34.6415C129.939 34.1675 130.316 33.7855 130.782 33.7855H136.157C136.623 33.7855 137 34.1675 137 34.6415V40.1047C137 40.5788 136.623 40.9607 136.157 40.9607Z" fill="#D35433"/>
<path d="M114.95 29.5125H109.575C109.109 29.5125 108.732 29.1305 108.732 28.6565V23.1932C108.732 22.7192 109.109 22.3372 109.575 22.3372H114.95C115.415 22.3372 115.793 22.7192 115.793 23.1932V28.6565C115.793 29.1305 115.415 29.5125 114.95 29.5125Z" fill="#D35433"/>
<path d="M136.157 29.5125H130.782C130.316 29.5125 129.939 29.1305 129.939 28.6565V23.1932C129.939 22.7192 130.316 22.3372 130.782 22.3372H136.157C136.623 22.3372 137 22.7192 137 23.1932V28.6565C137 29.1305 136.623 29.5125 136.157 29.5125Z" fill="#D35433"/>
<path d="M136.99 4.81871V17.5151C136.99 17.8186 136.749 18.0608 136.453 18.0608H130.483C130.184 18.0608 129.946 17.8152 129.946 17.5117C129.949 16.5296 129.96 14.5653 129.96 14.4357C129.96 10.4559 126.788 7.23318 122.875 7.23318C118.962 7.23318 115.79 10.4593 115.79 14.4357C115.79 14.4936 115.79 16.5159 115.793 17.5151C115.793 17.8186 115.552 18.0608 115.256 18.0608H109.276C108.98 18.0608 108.739 17.8152 108.739 17.5151V4.81871C108.739 4.12642 109.12 3.49211 109.728 3.18178C113.043 1.47324 116.721 0.392181 120.61 0.088667C121.355 0.0272821 122.11 0 122.868 0C123.626 0 124.381 0.0306924 125.125 0.088667C129.018 0.392181 132.696 1.47324 136.008 3.18178C136.613 3.49552 136.997 4.12983 136.997 4.81871H136.99Z" fill="#D35433"/>
<path d="M1.18649 49.9914V50.4381H2.43077V51.5771H1.18649V53.0265H0V48.8012H2.43077V49.9914H1.18649Z" fill="#5B94A4"/>
<path d="M80.1338 49.9911V50.4379H81.378V51.5769H80.1338V53.0263H78.9473V48.8009H81.378V49.9911H80.1338Z" fill="#5B94A4"/>
<path d="M10.6581 50.6527H10.1039L10.1107 51.0824H10.6581V53.0296H9.51577V51.7269H9.2336V53.0296H8.22729V48.8043H9.2336V50.1616H9.51577V48.8043H10.6581V50.6561V50.6527Z" fill="#5B94A4"/>
<path d="M24.4913 48.7975V53.0228H23.4272V51.7201H23.0906V53.0228H22.0605V48.7975H23.0906V50.1548H23.4272V48.7975H24.4913Z" fill="#5B94A4"/>
<path d="M26.0687 49.9945V50.3594H27.2552V51.4234H26.0687V51.8122H27.2552V53.0228H24.8245V48.7975H27.2552V49.9945H26.0687Z" fill="#5B94A4"/>
<path d="M82.9555 50.0252V50.3901H84.1419V51.4541H82.9555V51.8429H84.1419V53.0535H81.7112V48.8282H84.1419V50.0252H82.9555Z" fill="#5B94A4"/>
<path d="M85.6786 50.0491V50.3867H86.9059V53.0535H84.4751V51.8429H85.6786V51.4609H84.4751V48.8282H86.9059V50.0491H85.6786Z" fill="#5B94A4"/>
<path d="M3.93688 48.8009C4.64741 48.8009 5.16416 49.3193 5.16416 50.032V53.0263H3.96068C3.25015 53.0263 2.7334 52.5079 2.7334 51.7951V48.8009H3.93688ZM4.17486 50.1412H3.69891V51.7406H4.17486V50.1412Z" fill="#5B94A4"/>
<path d="M5.49388 53.0296V48.8043H6.63617V52.1498H7.86345V53.0331H5.49048L5.49388 53.0296Z" fill="#5B94A4"/>
<path d="M13.5546 48.8009C14.2651 48.8009 14.7818 49.3193 14.7818 50.032V53.0263H13.7925V51.8361H13.3268V53.0263H12.3511V48.8009H13.5546ZM13.7925 50.1309H13.3268V50.7891H13.7925V50.1309Z" fill="#5B94A4"/>
<path d="M16.315 48.8009C17.0256 48.8009 17.5423 49.3193 17.5423 50.032V53.0263H16.5836V50.1582H16.1553V53.0263H15.1082V48.8009H16.3116H16.315Z" fill="#5B94A4"/>
<path d="M19.079 48.8009C19.7895 48.8009 20.3063 49.3193 20.3063 50.032V51.7951C20.3063 52.5079 19.7895 53.0263 19.079 53.0263H17.8755V48.8009H19.079ZM19.2898 50.1412H18.8342V51.7406H19.2898V50.1412Z" fill="#5B94A4"/>
<path d="M29.9852 50.032V51.4575H29.5195L29.5263 51.8224H29.9852V53.0263H28.9857V52.409H28.5981V53.0263H27.5544V48.8009H28.7579C29.4685 48.8009 29.9852 49.3193 29.9852 50.032ZM28.9857 49.6774H28.5981V50.4686H28.9857V49.6774Z" fill="#5B94A4"/>
<path d="M31.4606 48.8009V53.0263H30.3184V48.8009H31.4606Z" fill="#5B94A4"/>
<path d="M34.2279 50.148H33.5785V53.0296H32.4362V50.148H31.7937V48.7941H34.2313V50.148H34.2279Z" fill="#5B94A4"/>
<path d="M35.7611 48.8009C36.4716 48.8009 36.9884 49.3193 36.9884 50.032V53.0263H36.0297V51.8361H35.5979V53.0263H34.5542V48.8009H35.7577H35.7611ZM36.0331 50.1309H35.6013V50.7891H36.0331V50.1309Z" fill="#5B94A4"/>
<path d="M38.4638 51.7235H38.7426V50.4583H39.7523V53.0263H38.5488C37.8383 53.0263 37.3215 52.5079 37.3215 51.7951V48.8009H39.7523V50.1309H38.4638V51.7235Z" fill="#5B94A4"/>
<path d="M41.3297 50.1309V50.4583H42.5162V51.3654H41.3297V51.6962H42.5162V53.0296H40.0854V48.8043H42.5162V50.1343H41.3297V50.1309Z" fill="#5B94A4"/>
<path d="M45.3823 48.8009V53.0263H44.24V48.8009H45.3823Z" fill="#5B94A4"/>
<path d="M46.9154 48.8009C47.6259 48.8009 48.1427 49.3193 48.1427 50.032V53.0263H47.1024V50.1582H46.6944V53.0263H45.7119V48.8009H46.9154Z" fill="#5B94A4"/>
<path d="M50.9134 50.148H50.2641V53.0296H49.1218V50.148H48.4792V48.7941H50.9168V50.148H50.9134Z" fill="#5B94A4"/>
<path d="M52.4874 50.1309V50.4686H53.6739V51.3552H52.4874V51.6928H53.6739V53.0263H51.2432V48.8009H53.6739V50.1309H52.4874Z" fill="#5B94A4"/>
<path d="M56.4378 50.032V51.4746H55.9007L55.9075 51.7849H56.4378V53.0228H55.3907V52.2623H55.0168V53.0228H54.0071V48.7975H55.2106C55.9211 48.7975 56.4378 49.3159 56.4378 50.0286V50.032ZM55.3907 49.6774H55.0168V50.4685H55.3907V49.6774Z" fill="#5B94A4"/>
<path d="M57.9713 48.8009C58.6818 48.8009 59.1986 49.3193 59.1986 50.032V53.0263H58.1821V50.1582H57.7877V53.0263H56.7678V48.8009H57.9713Z" fill="#5B94A4"/>
<path d="M60.7352 48.8009C61.4458 48.8009 61.9625 49.3193 61.9625 50.032V53.0263H60.929V51.8361H60.5584V53.0263H59.5317V48.8009H60.7352ZM60.929 50.1309H60.5584V50.7891H60.929V50.1309Z" fill="#5B94A4"/>
<path d="M64.7298 50.148H64.0805V53.0296H62.9382V50.148H62.2957V48.7941H64.7332V50.148H64.7298Z" fill="#5B94A4"/>
<path d="M66.2053 48.8009V53.0263H65.063V48.8009H66.2053Z" fill="#5B94A4"/>
<path d="M67.7418 48.8009C68.4523 48.8009 68.9691 49.3193 68.9691 50.032V53.0263H67.7656C67.0551 53.0263 66.5383 52.5079 66.5383 51.7951V48.8009H67.7418ZM67.9186 50.1412H67.5752V51.7406H67.9186V50.1412Z" fill="#5B94A4"/>
<path d="M70.5023 48.8009C71.2128 48.8009 71.7296 49.3193 71.7296 50.032V53.0263H70.6553V50.1582H70.2677V53.0263H69.2988V48.8009H70.5023Z" fill="#5B94A4"/>
<path d="M73.2662 48.8009C73.9768 48.8009 74.4935 49.3193 74.4935 50.032V53.0263H73.443V51.8361H73.0928V53.0263H72.0627V48.8009H73.2662ZM73.443 50.1309H73.0928V50.7891H73.443V50.1309Z" fill="#5B94A4"/>
<path d="M95.4696 48.8009C96.1801 48.8009 96.6969 49.3193 96.6969 50.032V53.0263H95.6464V51.8361H95.2962V53.0263H94.2661V48.8009H95.4696ZM95.6464 50.1309H95.2962V50.7891H95.6464V50.1309Z" fill="#5B94A4"/>
<path d="M74.8235 53.0296V48.8043H75.9658V52.1498H77.193V53.0331H74.8201L74.8235 53.0296Z" fill="#5B94A4"/>
<path d="M89.6427 50.148H88.9933V53.0296H87.851V50.148H87.2085V48.7941H89.6461V50.148H89.6427Z" fill="#5B94A4"/>
<path d="M91.1181 48.8009V53.0263H89.9758V48.8009H91.1181Z" fill="#5B94A4"/>
<path d="M93.8785 48.8009V51.669L92.777 53.0263H92.5493L91.4478 51.669V48.8009H92.59V51.669H92.7328V48.8009H93.8751H93.8785Z" fill="#5B94A4"/>
<path d="M96.9721 53.0296V48.8043H98.1144V52.1498H99.3417V53.0331H96.9688L96.9721 53.0296Z" fill="#5B94A4"/>
</g>
<defs>
<clipPath id="clip0_27_101">
<rect width="137" height="56" fill="white"/>
</clipPath>
</defs>
</svg>
