<svg width="29" height="56" viewBox="0 0 29 56" fill="none" xmlns="http://www.w3.org/2000/svg">
<path d="M28.9898 45.8306V55.4066C28.9898 55.734 28.728 56 28.4085 56H1.31987C0.996898 56 0.738525 55.734 0.738525 55.4066V45.8306C0.738525 45.5032 1.0003 45.2372 1.31987 45.2372H7.2115C7.53447 45.2372 7.79285 45.5032 7.79285 45.8306V48.9203C7.79285 49.2477 8.05462 49.5137 8.37419 49.5137H10.7132C11.0497 49.5137 11.3217 49.2375 11.3251 48.8964L11.3489 45.8545C11.3489 45.5134 11.6243 45.2372 11.9608 45.2372H17.8287C18.1516 45.2372 18.41 45.5032 18.41 45.8306V48.9203C18.41 49.2477 18.6718 49.5137 18.9914 49.5137H21.3541C21.6771 49.5137 21.9355 49.2477 21.9355 48.9203V45.8306C21.9355 45.5032 22.1973 45.2372 22.5168 45.2372H28.3983C28.7212 45.2372 28.9796 45.5032 28.9796 45.8306H28.9898Z" fill="#1B3F55"/>
<path d="M17.5703 40.9641H12.1954C11.7297 40.9641 11.3523 40.5822 11.3523 40.1082V34.6449C11.3523 34.1709 11.7297 33.7889 12.1954 33.7889H17.5703C18.036 33.7889 18.4134 34.1709 18.4134 34.6449V40.1082C18.4134 40.5822 18.036 40.9641 17.5703 40.9641Z" fill="#1B3F55"/>
<path d="M6.94969 40.9607H1.57481C1.10906 40.9607 0.731689 40.5788 0.731689 40.1047V34.6415C0.731689 34.1675 1.10906 33.7855 1.57481 33.7855H6.94969C7.41545 33.7855 7.79282 34.1675 7.79282 34.6415V40.1047C7.79282 40.5788 7.41545 40.9607 6.94969 40.9607Z" fill="#D35433"/>
<path d="M28.157 40.9607H22.7821C22.3163 40.9607 21.939 40.5788 21.939 40.1047V34.6415C21.939 34.1675 22.3163 33.7855 22.7821 33.7855H28.157C28.6227 33.7855 29.0001 34.1675 29.0001 34.6415V40.1047C29.0001 40.5788 28.6227 40.9607 28.157 40.9607Z" fill="#D35433"/>
<path d="M6.94969 29.5125H1.57481C1.10906 29.5125 0.731689 29.1305 0.731689 28.6565V23.1932C0.731689 22.7192 1.10906 22.3372 1.57481 22.3372H6.94969C7.41545 22.3372 7.79282 22.7192 7.79282 23.1932V28.6565C7.79282 29.1305 7.41545 29.5125 6.94969 29.5125Z" fill="#D35433"/>
<path d="M28.157 29.5125H22.7821C22.3163 29.5125 21.939 29.1305 21.939 28.6565V23.1932C21.939 22.7192 22.3163 22.3372 22.7821 22.3372H28.157C28.6227 22.3372 29.0001 22.7192 29.0001 23.1932V28.6565C29.0001 29.1305 28.6227 29.5125 28.157 29.5125Z" fill="#D35433"/>
<path d="M28.99 4.81871V17.5151C28.99 17.8186 28.7487 18.0608 28.4529 18.0608H22.4831C22.1839 18.0608 21.9459 17.8152 21.9459 17.5117C21.9493 16.5296 21.9595 14.5653 21.9595 14.4357C21.9595 10.4559 18.7876 7.23318 14.8746 7.23318C10.9616 7.23318 7.78969 10.4593 7.78969 14.4357C7.78969 14.4936 7.78969 16.5159 7.79309 17.5151C7.79309 17.8186 7.55171 18.0608 7.25593 18.0608H1.27591C0.980142 18.0608 0.73877 17.8152 0.73877 17.5151V4.81871C0.73877 4.12642 1.11953 3.49211 1.72808 3.18178C5.04276 1.47324 8.72119 0.392181 12.6104 0.088667C13.3549 0.0272821 14.1097 0 14.8678 0C15.6259 0 16.3807 0.0306924 17.1252 0.088667C21.0178 0.392181 24.6963 1.47324 28.0075 3.18178C28.6127 3.49552 28.9968 4.12983 28.9968 4.81871H28.99Z" fill="#D35433"/>
</svg>
