<svg width="221" height="221" viewBox="0 0 221 221" fill="none" xmlns="http://www.w3.org/2000/svg">
<path d="M205.401 110.99L110.187 15.7762L14.9733 110.99L110.187 206.204L205.401 110.99Z" fill="#1C3F55"/>
<path d="M110.187 89.7158L88.9206 110.982L110.187 132.249L131.454 110.982L110.187 89.7158ZM110.187 117.468L103.701 110.982L110.174 104.509L116.66 110.995L110.187 117.468Z" fill="#5B94A4"/>
<path d="M110.187 60.1417L59.3337 110.995L110.187 161.849L161.04 110.995L110.187 60.1417ZM110.187 147.055L74.1271 110.995L110.187 74.9352L146.247 110.995L110.187 147.055Z" fill="#5B94A4"/>
<path d="M110.187 30.5677L29.7596 110.995L110.187 191.423L190.615 110.995L110.187 30.5677ZM110.187 176.629L44.5531 110.995L110.187 45.3612L175.821 110.995L110.187 176.629Z" fill="#5B94A4"/>
<path d="M110.187 89.7158L88.9206 110.982L110.187 132.249L131.454 110.982L110.187 89.7158ZM110.187 117.468L103.701 110.982L110.174 104.509L116.66 110.995L110.187 117.468Z" fill="#1C3F55"/>
<path d="M110.187 60.1417L59.3337 110.995L110.187 161.849L161.04 110.995L110.187 60.1417ZM110.187 147.055L74.1271 110.995L110.187 74.9352L146.247 110.995L110.187 147.055Z" fill="#1C3F55"/>
<path d="M110.187 30.5677L29.7596 110.995L110.187 191.423L190.615 110.995L110.187 30.5677ZM110.187 176.629L44.5531 110.995L110.187 45.3612L175.821 110.995L110.187 176.629Z" fill="#1C3F55"/>
<path d="M110.187 89.7158L88.9206 110.982L110.187 132.249L131.454 110.982L110.187 89.7158ZM110.187 117.468L103.701 110.982L110.174 104.509L116.66 110.995L110.187 117.468Z" fill="#5B94A4"/>
<path d="M110.187 60.1417L59.3337 110.995L110.187 161.849L161.04 110.995L110.187 60.1417ZM110.187 147.055L74.1271 110.995L110.187 74.9352L146.247 110.995L110.187 147.055Z" fill="#5B94A4"/>
<path d="M110.187 89.7158L88.9206 110.982L110.187 132.249L131.454 110.982L110.187 89.7158ZM110.187 117.468L103.701 110.982L110.174 104.509L116.66 110.995L110.187 117.468Z" fill="#1C3F55"/>
<path d="M110.187 60.1417L59.3337 110.995L110.187 161.849L161.04 110.995L110.187 60.1417ZM110.187 147.055L74.1271 110.995L110.187 74.9352L146.247 110.995L110.187 147.055Z" fill="#1C3F55"/>
<path d="M110.187 89.7158L88.9206 110.982L110.187 132.249L131.454 110.982L110.187 89.7158ZM110.187 117.468L103.701 110.982L110.174 104.509L116.66 110.995L110.187 117.468Z" fill="#5B94A4"/>
<path d="M110.187 89.7158L88.9206 110.982L110.187 132.249L131.454 110.982L110.187 89.7158ZM110.187 117.468L103.701 110.982L110.174 104.509L116.66 110.995L110.187 117.468Z" fill="#1C3F55"/>
<path d="M110.187 0.980728L0.185608 110.982L110.187 220.984L220.189 110.982L110.187 0.980728ZM110.187 206.203L14.9791 110.995L110.187 15.7742L205.408 110.995L110.187 206.216V206.203Z" fill="#5B94A4"/>
<path d="M110.187 30.5677L29.7596 110.995L110.187 191.423L190.615 110.995L110.187 30.5677ZM110.187 176.629L44.5531 110.995L110.187 45.3612L175.821 110.995L110.187 176.629Z" fill="#5B94A4"/>
<path d="M110.187 60.1417L59.3337 110.995L110.187 161.849L161.04 110.995L110.187 60.1417ZM110.187 147.055L74.1271 110.995L110.187 74.9352L146.247 110.995L110.187 147.055Z" fill="#5B94A4"/>
<path d="M110.187 89.7158L88.9206 110.982L110.187 132.249L131.454 110.982L110.187 89.7158ZM110.187 117.468L103.701 110.982L110.174 104.509L116.66 110.995L110.187 117.468Z" fill="#5B94A4"/>
</svg>
