<svg width="64" height="64" viewBox="0 0 64 64" fill="none" xmlns="http://www.w3.org/2000/svg">
<path d="M-1.14441e-05 63.8768L63.2882 63.8768L63.2882 0.588558L-1.14441e-05 0.588558L-1.14441e-05 63.8768Z" fill="#D35433"/>
<path d="M41.9013 46.9207C41.9013 46.0902 41.7278 45.3386 41.5754 44.6764C41.4493 44.1297 41.3336 43.6146 41.3547 43.2257C41.3652 43.0627 41.5649 42.8157 41.7909 42.7684C42.1483 42.6896 42.7055 42.8262 43.2942 42.9786C43.9459 43.1468 44.6817 43.3256 45.5069 43.3256C51.6197 43.3256 56.5972 38.3481 56.5972 32.23C56.5972 26.1172 51.6197 21.1397 45.5069 21.1397C44.6817 21.1397 43.9459 21.3289 43.2994 21.4866C42.7738 21.6233 42.285 21.7442 41.9328 21.7126C41.6963 21.6916 41.444 21.4971 41.3757 21.2816C41.2653 20.9347 41.402 20.3776 41.5649 19.7311C41.7278 19.0899 41.9118 18.3593 41.9118 17.5393C41.9118 11.4265 36.9343 6.44904 30.8163 6.44904C24.6982 6.44904 19.7207 11.4265 19.7207 17.5393C19.7207 18.3593 19.9047 19.0899 20.0676 19.7311C20.2148 20.2988 20.3357 20.7928 20.2779 21.1502C20.2463 21.371 20.0676 21.597 19.9257 21.6548C19.8521 21.6863 19.6261 21.7389 19.0847 21.639C18.8377 21.5917 18.6012 21.5339 18.3594 21.4709C17.7024 21.3079 16.9613 21.1292 16.1203 21.1292C10.0075 21.1292 5.03003 26.1067 5.03003 32.2195C5.03003 35.494 6.47019 38.5898 8.96682 40.7028C11.6474 42.9681 15.0323 43.7197 18.7589 42.8788C19.0637 42.8105 19.5315 42.7053 19.7943 42.7421C19.9835 42.7684 20.1938 42.9313 20.2411 43.0733C20.2516 43.1048 20.2568 43.1311 20.2621 43.1416C20.3777 43.6304 20.2305 44.34 20.0729 45.0916C19.8836 46.0009 19.6682 47.0311 19.7943 48.1506C19.994 49.9587 20.651 51.7037 21.6812 53.2017C22.7167 54.7049 24.0938 55.9033 25.6653 56.7285C27.2316 57.5537 29.0029 58.0005 30.8215 58.0005C36.9396 58.0005 41.917 53.023 41.917 46.9102L41.9013 46.9207ZM44.235 25.2027C44.708 25.0818 45.1495 24.9661 45.4964 24.9661C49.5015 24.9661 52.7603 28.2249 52.7603 32.23C52.7603 36.2351 49.5015 39.4939 45.4964 39.4939C45.1495 39.4939 44.6975 39.3835 44.2192 39.2574C43.3204 39.0314 42.2009 38.7475 40.9605 39.0208C40.4296 39.1365 39.9303 39.3572 39.4888 39.6568L32.0462 31.9304L39.2417 24.5877C39.8987 25.1028 40.7029 25.4392 41.5596 25.518C42.5741 25.6179 43.4571 25.3919 44.235 25.1921V25.2027ZM23.5787 23.1528C23.8152 22.706 23.9781 22.2225 24.057 21.7126C24.0885 21.4603 24.1095 21.2186 24.1095 20.982C24.1095 20.1673 23.9256 19.4263 23.7679 18.806C23.647 18.3382 23.5366 17.8967 23.5366 17.5446C23.5366 13.5395 26.8006 10.2807 30.8005 10.2807C34.8056 10.2807 38.0644 13.5395 38.0644 17.5446C38.0644 17.8915 37.954 18.3382 37.8331 18.806C37.5808 19.8152 37.2654 21.0714 37.7175 22.459C37.77 22.6167 37.8278 22.7691 37.8962 22.9163L30.5587 30.4009L23.5734 23.1528H23.5787ZM17.9021 39.1575C15.3214 39.7409 13.2032 39.2889 11.4214 37.7857C9.80253 36.4191 8.84067 34.343 8.84067 32.23C8.84067 28.2249 12.0994 24.9661 16.1045 24.9661C16.483 24.9661 16.9192 25.0713 17.4343 25.1974C17.7392 25.2762 18.0493 25.3498 18.3594 25.4076C19.521 25.6284 20.5039 25.5601 21.3764 25.2027C21.6549 25.087 21.9283 24.9398 22.1753 24.7611L29.0818 31.9252L21.7338 39.415C21.2923 39.1838 20.8087 39.0261 20.2989 38.9578C19.4211 38.8369 18.638 38.9893 17.9074 39.1522L17.9021 39.1575ZM21.266 41.4018L21.245 41.3756C21.245 41.3756 21.2607 41.3861 21.2712 41.3966C21.4079 41.5069 21.5288 41.6278 21.6392 41.7592L21.2712 41.4018H21.266ZM24.8138 51.0362C24.1358 50.0586 23.7101 48.9127 23.5787 47.7354C23.5208 47.2256 23.6575 46.5738 23.7994 45.8852C24.0254 44.813 24.2777 43.5989 23.9676 42.2691C23.9413 42.1482 23.9098 42.0326 23.8677 41.9012C23.7416 41.5122 23.5576 41.1548 23.3316 40.8184L30.5535 33.4547L38.0486 41.2284C37.749 41.7592 37.5703 42.3532 37.5283 42.9786C37.4704 43.9247 37.6649 44.7815 37.8384 45.5383C37.9592 46.0482 38.0696 46.5317 38.0696 46.9207C38.0696 50.9258 34.8109 54.1846 30.8057 54.1846C28.451 54.1846 26.1594 52.9809 24.8191 51.0414L24.8138 51.0362Z" fill="#1C3F55"/>
</svg>
