<svg width="64" height="64" viewBox="0 0 64 64" fill="none" xmlns="http://www.w3.org/2000/svg">
<path d="M63.4303 0.572754H0.14209V63.861H63.4303V0.572754Z" fill="#D35433"/>
<path d="M30.5538 6.35969V17.1451C27.5683 17.4027 24.6407 18.5537 22.2124 20.6036L14.5859 12.9771C19.1323 8.85106 24.8089 6.64352 30.5538 6.35969ZM43.2524 22.4064L50.8789 14.7799C55.0049 19.3264 57.2125 25.0029 57.4963 30.7478H46.7109C46.4533 27.7624 45.3023 24.8347 43.2524 22.4064ZM46.7109 33.297H57.4963C57.2125 39.0419 55.0049 44.7184 50.8789 49.2649L43.2577 41.6436C45.3075 39.2153 46.4586 36.2877 46.7109 33.297ZM22.2124 43.4464C24.6407 45.4963 27.5683 46.6474 30.559 46.8997V57.6851C24.8141 57.4013 19.1376 55.1937 14.5911 51.0677L22.2124 43.4464ZM41.4548 43.4464L49.0761 51.0677C44.5296 55.1937 38.8531 57.4013 33.1082 57.6851V46.8997C36.0989 46.6474 39.0265 45.4963 41.4548 43.4464ZM6.1709 33.297H16.9563C17.2086 36.2877 18.3597 39.2153 20.4095 41.6436L12.7883 49.2649C8.66225 44.7184 6.45473 39.0419 6.1709 33.297ZM33.1135 6.35443C38.8583 6.63826 44.5349 8.8458 49.0814 12.9718L41.4548 20.5984C39.0265 18.5485 36.1042 17.4027 33.1135 17.1504V6.35969V6.35443ZM12.7883 14.7746L20.4148 22.4012C18.3649 24.8295 17.2139 27.7571 16.9563 30.7425H6.1709C6.45473 24.9977 8.66225 19.3211 12.7883 14.7746Z" fill="#1C3F55"/>
<path d="M40.372 40.4084C45.0604 35.72 45.0604 28.0934 40.372 23.405C35.6836 18.7166 28.057 18.7166 23.3686 23.405C18.6802 28.0934 18.6802 35.72 23.3686 40.4084C28.057 45.0968 35.6836 45.0968 40.372 40.4084ZM25.4763 25.5127C29.0031 21.9859 34.7427 21.9859 38.2695 25.5127C41.7964 29.0395 41.7964 34.7792 38.2695 38.306C34.7427 41.8328 29.0031 41.8328 25.4763 38.306C21.9495 34.7792 21.9495 29.0395 25.4763 25.5127Z" fill="#1C3F55"/>
</svg>
