<svg width="220" height="220" viewBox="0 0 220 220" fill="none" xmlns="http://www.w3.org/2000/svg">
<path d="M54.844 55.552L54.8182 55.5262L109.586 0.758232L164.353 55.5262L164.328 55.552H54.844Z" fill="#D35433"/>
<path d="M164.328 55.552L164.354 55.5262L219.121 110.294L164.354 165.062L164.328 165.036V55.552Z" fill="#D35433"/>
<path d="M54.8441 55.552L54.8182 55.5262L0.0505371 110.294L54.8182 165.062L54.8441 165.036V55.552Z" fill="#D35433"/>
<path d="M54.844 165.036L54.8181 165.062L109.586 219.83L164.353 165.062L164.328 165.036H54.844Z" fill="#D35433"/>
<path d="M54.8439 165.062H164.366V55.5391L54.8439 55.5391L54.8439 165.062Z" fill="#F5BC58"/>
<path d="M136.924 82.9037L109.599 55.5779L82.2601 82.9037H109.599H136.924Z" fill="#D35433"/>
<path d="M109.608 82.9185L82.228 110.299L109.608 137.679L136.988 110.299L109.608 82.9185Z" fill="#D35433"/>
<path d="M136.989 82.9683V137.672L164.341 110.32L136.989 82.9683Z" fill="#D35433"/>
<path d="M109.599 165.075L136.976 137.685H82.2216L109.599 165.075Z" fill="#D35433"/>
<path d="M82.2084 82.9554L54.844 110.32L82.2084 137.672V110.294V82.9554Z" fill="#D35433"/>
<path d="M136.989 82.9683L136.925 82.9037H136.989V82.9683Z" fill="#F5BC58"/>
<path d="M136.989 137.685H136.976L136.989 137.672V137.685Z" fill="#F5BC58"/>
<path d="M82.2603 82.9037L82.2086 82.9554V82.9037H82.2603Z" fill="#F5BC58"/>
<path d="M82.2216 137.685H82.2086V137.672L82.2216 137.685Z" fill="#F5BC58"/>
</svg>
